SplineFontDB: 3.0
FontName: InconsolataLGC-Bold
FullName: Inconsolata LGC Bold
FamilyName: Inconsolata LGC
Weight: Bold
Copyright: Original Roman version created by Raph Levien using his own tools and FontForge. Copyright 2006 Raph Levien. Hellenisation of the Roman font, by Dimosthenis Kaponis, using FontForge. Hellenic glyphs Copyright 2010-2012 Dimosthenis Kaponis. Released under the SIL Open Font License, http://scripts.sil.org/OFL.\n\nCyrillic glyphs added by MihailJP, using FontForge. Cyrillic glyphs Copyright 2012 MihailJP. Released under the SIL Open Font License, http://scripts.sil.org/OFL.\n\nEmboldened by MihailJP.\n\nSome glyphs modified by Greg Omelaenko, using FontForge.
UComments: "2005-8-26: Created." 
Version: 1.2
ItalicAngle: 0
UnderlinePosition: -102
UnderlineWidth: 51
Ascent: 840
Descent: 184
LayerCount: 2
Layer: 0 0 "Back"  1
Layer: 1 0 "Fore"  0
XUID: [1021 77 1780377399 11264577]
FSType: 8
OS2Version: 0
OS2_WeightWidthSlopeOnly: 0
OS2_UseTypoMetrics: 0
CreationTime: 1161020814
ModificationTime: 1459694985
PfmFamily: 17
TTFWeight: 700
TTFWidth: 5
LineGap: 205
VLineGap: 0
Panose: 2 11 8 9 3 0 3 0 0 0
OS2TypoAscent: 0
OS2TypoAOffset: 1
OS2TypoDescent: 0
OS2TypoDOffset: 1
OS2TypoLinegap: 0
OS2WinAscent: 0
OS2WinAOffset: 1
OS2WinDescent: 0
OS2WinDOffset: 1
HheadAscent: 0
HheadAOffset: 1
HheadDescent: 0
HheadDOffset: 1
OS2Vendor: 'PfEd'
Lookup: 1 0 0 "Polish kreska forms"  {"Polish kreska forms-1" ("pl" ) } ['locl' ('latn' <'PLK ' > ) ]
Lookup: 1 0 0 "Romanian comma accent"  {"Romanian comma accent-1"  } ['locl' ('latn' <'MOL ' 'ROM ' > ) ]
MarkAttachClasses: 1
DEI: 91125
LangName: 1033 
Encoding: UnicodeBmp
Compacted: 1
UnicodeInterp: none
NameList: Adobe Glyph List
DisplaySize: -72
AntiAlias: 1
FitToEm: 1
WinInfo: 32 16 4
BeginPrivate: 6
BlueValues 31 [-14 0 542 555 739 748 767 796]
OtherBlues 11 [-206 -198]
StemSnapH 16 [20 65 70 74 81]
StdHW 4 [70]
StemSnapV 7 [79 86]
StdVW 4 [86]
EndPrivate
Grid
-1024 682.745 m 0
 2048 682.745 l 0

StartChar: a
Encoding: 97 97 0
Width: 613
Flags: W
TeX: 99 0
LayerCount: 2
Fore
SplineSet
98 464 m 1
 107 473 l 2
 161 529 235 554 311 554 c 0
 399 554 474 523 513 461 c 1
 540 417 542 375 542 333 c 0
 542 0 l 1
 430 0 l 1
 430 44 l 1
 373 5 312 -13 251 -13 c 0
 130 -13 53 63 53 149 c 0
 53 214 97 278 187 310 c 1
 255 334 334 335 409 335 c 0
 415 335 421 335 427 335 c 0
 429 335 l 1
 429 338 l 0
 429 364 429 392 414 414 c 1
 401 433 375 454 315 454 c 0
 267 454 211 440 171 398 c 0
 159 385 l 1
 98 464 l 1
432 220 m 0
 432 239 l 1
 428 239 l 0
 408 239 386 239 364 239 c 0
 324 239 282 238 253 232 c 1
 191 218 170 183 170 154 c 0
 170 119 203 83 268 83 c 0
 332 83 381 119 399 136 c 0
 432 168 432 195 432 220 c 0
EndSplineSet
EndChar

StartChar: c
Encoding: 99 99 1
Width: 613
Flags: W
TeX: 101 0
LayerCount: 2
Fore
SplineSet
565 446 m 0
 571 436 l 1
 494 346 l 1
 482 354 l 0
 463 368 470 387 470 387 c 1
 465 395 425 450 344 450 c 0
 253 450 180 386 180 279 c 0
 180 168 255 95 351 95 c 0
 401 95 449 118 483 156 c 0
 495 169 l 1
 564 88 l 1
 555 78 l 0
 500 19 424 -13 344 -13 c 0
 182 -13 61 109 61 271 c 0
 61 433 181 553 349 553 c 0
 441 553 519 513 565 446 c 0
EndSplineSet
EndChar

StartChar: m
Encoding: 109 109 2
Width: 613
Flags: W
TeX: 112 0
LayerCount: 2
Fore
SplineSet
148 0 m 1
 40 0 l 1
 40 542 l 1
 150 542 l 1
 149 516 l 1
 175 540 209 555 244 555 c 0
 288 555 325 532 344 497 c 1
 372 534 415 555 462 555 c 0
 495 555 535 543 559 508 c 1
 583 475 584 435 584 398 c 0
 584 392 584 385 584 379 c 0
 584 -1 l 1
 472 -1 l 1
 472 372 l 0
 472 382 472 392 472 402 c 0
 472 418 471 434 466 445 c 1
 458 460 448 465 437 465 c 0
 415 465 397 453 387 437 c 1
 369 407 367 401 367 374 c 0
 367 0 l 1
 256 0 l 1
 256 368 l 0
 256 376 256 384 256 392 c 0
 256 406 256 419 252 431 c 1
 245 453 229 459 216 459 c 0
 202 459 182 450 164 419 c 1
 150 395 148 376 148 353 c 0
 148 0 l 1
EndSplineSet
EndChar

StartChar: s
Encoding: 115 115 3
Width: 613
Flags: W
TeX: 118 0
LayerCount: 2
Fore
SplineSet
535 465 m 0
 543 456 l 1
 480 362 l 1
 470 365 l 0
 463 367 452 375 452 390 c 0
 452 392 l 1
 433 417 384 460 314 460 c 0
 255 460 215 433 215 405 c 0
 215 394 220 374 260 356 c 0
 307 335 395 323 460 289 c 0
 529 253 548 200 548 161 c 0
 548 74 461 -12 307 -12 c 0
 221 -12 134 16 67 78 c 0
 58 86 l 1
 121 194 l 1
 133 188 l 0
 150 180 148 162 148 162 c 0
 148 161 147 160 147 160 c 1
 163 142 219 90 305 90 c 0
 381 90 429 122 429 156 c 0
 429 169 424 190 384 208 c 0
 346 225 286 238 239 254 c 0
 212 263 97 298 97 399 c 0
 97 486 190 555 321 555 c 0
 405 555 482 524 535 465 c 0
EndSplineSet
EndChar

StartChar: I
Encoding: 73 73 4
Width: 613
Flags: W
TeX: 75 0
LayerCount: 2
Fore
SplineSet
99 639 m 1
 99 739 l 1
 497 739 l 1
 497 639 l 1
 350 639 l 1
 350 98 l 1
 504 98 l 1
 504 -1 l 1
 91 -1 l 1
 91 99 l 1
 237 99 l 1
 237 639 l 1
 99 639 l 1
EndSplineSet
EndChar

StartChar: o
Encoding: 111 111 5
Width: 613
Flags: W
TeX: 114 0
LayerCount: 2
Fore
SplineSet
315 554 m 0
 447 554 572 453 572 269 c 0
 572 92 450 -14 312 -14 c 0
 166 -14 43 103 43 267 c 0
 43 433 167 554 315 554 c 0
455 265 m 0
 455 397 377 451 309 451 c 0
 236 451 164 391 164 274 c 0
 164 156 237 90 313 90 c 0
 382 90 455 145 455 265 c 0
EndSplineSet
EndChar

StartChar: n
Encoding: 110 110 6
Width: 613
Flags: W
TeX: 113 0
LayerCount: 2
Fore
SplineSet
194 0 m 1
 76 0 l 1
 76 542 l 1
 194 542 l 1
 194 476 l 1
 236 522 294 555 358 555 c 0
 426 555 488 519 517 456 c 0
 538 411 538 366 538 326 c 0
 538 0 l 1
 423 0 l 1
 423 320 l 0
 423 356 422 395 397 423 c 0
 381 441 358 450 335 450 c 0
 286 450 236 409 217 385 c 0
 197 360 194 340 194 307 c 0
 194 0 l 1
EndSplineSet
EndChar

StartChar: l
Encoding: 108 108 7
Width: 613
Flags: W
TeX: 111 0
LayerCount: 2
Fore
SplineSet
95 689 m 1
 95 788 l 1
 366 788 l 1
 366 99 l 1
 525 99 l 1
 525 0 l 1
 88 0 l 1
 88 99 l 1
 249 99 l 1
 249 689 l 1
 95 689 l 1
EndSplineSet
EndChar

StartChar: t
Encoding: 116 116 8
Width: 613
Flags: W
TeX: 119 0
LayerCount: 2
Fore
SplineSet
209 542 m 1
 219 685 l 1
 335 704 l 1
 340 694 l 0
 343 688 343 683 343 681 c 0
 343 665 336 657 335 653 c 1
 331 630 325 571 323 543 c 1
 499 543 l 1
 499 441 l 1
 319 441 l 1
 313 380 310 321 310 261 c 0
 310 191 313 173 313 166 c 1
 322 114 356 99 389 99 c 0
 418 99 458 113 502 146 c 0
 518 157 l 1
 556 60 l 1
 547 53 l 0
 499 18 434 -10 365 -10 c 0
 306 -10 257 12 228 50 c 1
 193 97 194 151 194 196 c 0
 194 277 198 361 204 441 c 1
 78 441 l 1
 79 542 l 1
 209 542 l 1
EndSplineSet
EndChar

StartChar: e
Encoding: 101 101 9
Width: 613
Flags: W
TeX: 103 0
LayerCount: 2
Fore
SplineSet
52 266 m 0
 52 461 179 555 317 555 c 0
 411 555 521 506 547 360 c 1
 551 340 553 317 553 295 c 0
 553 282 552 270 551 257 c 0
 550 244 l 1
 167 244 l 1
 180 116 270 87 335 87 c 0
 385 87 431 106 464 143 c 0
 474 155 l 1
 543 88 l 1
 534 77 l 0
 485 18 410 -12 328 -12 c 0
 174 -12 52 87 52 266 c 0
311 459 m 0
 261 459 192 433 172 340 c 1
 437 340 l 1
 437 342 437 342 437 343 c 0
 437 407 384 459 311 459 c 0
EndSplineSet
EndChar

StartChar: b
Encoding: 98 98 11
Width: 613
Flags: W
TeX: 100 0
LayerCount: 2
Fore
SplineSet
449 261 m 0
 449 430 349 451 305 451 c 0
 257 451 214 426 196 387 c 0
 185 363 183 332 183 287 c 0
 183 244 183 215 186 190 c 0
 199 105 270 94 304 94 c 0
 351 94 449 117 449 261 c 0
66 0 m 1
 66 790 l 1
 193 790 l 1
 196 778 l 2
 201 759 186 750 186 750 c 1
 185 749 l 1
 184 748 l 2
 183 748 l 1
 183 748 l 2
 183 489 l 1
 222 531 277 555 335 555 c 0
 451 555 568 463 568 277 c 0
 568 84 447 -13 327 -13 c 0
 266 -13 209 13 170 57 c 1
 146 0 l 1
 66 0 l 1
EndSplineSet
EndChar

StartChar: H
Encoding: 72 72 12
Width: 613
Flags: W
TeX: 74 0
LayerCount: 2
Fore
SplineSet
59 0 m 1
 59 739 l 1
 176 739 l 1
 181 731 l 0
 183 727 184 723 184 719 c 0
 184 699 176 701 176 697 c 0
 176 438 l 1
 435 438 l 1
 435 739 l 1
 549 739 l 1
 554 732 l 0
 556 728 557 724 557 720 c 0
 557 698 549 701 549 699 c 0
 549 -1 l 1
 434 -1 l 1
 434 337 l 1
 176 337 l 1
 176 0 l 1
 59 0 l 1
EndSplineSet
EndChar

StartChar: g
Encoding: 103 103 13
Width: 613
Flags: W
TeX: 105 0
LayerCount: 2
Fore
SplineSet
280 477 m 0
 222 477 175 430 175 373 c 0
 175 316 222 269 279 269 c 0
 337 269 383 316 383 373 c 0
 383 430 337 477 280 477 c 0
67 362 m 0
 67 472 169 560 285 560 c 0
 334 560 379 543 414 513 c 1
 454 542 500 557 548 557 c 0
 554 557 558 556 564 556 c 0
 577 555 l 1
 592 452 l 1
 570 456 l 0
 561 458 552 459 542 459 c 0
 517 459 491 453 469 443 c 1
 484 417 490 390 490 361 c 0
 490 258 396 170 280 170 c 0
 258 170 235 173 214 180 c 1
 203 170 187 153 187 140 c 0
 187 132 193 125 209 120 c 1
 220 117 244 114 283 114 c 0
 308 114 333 115 359 115 c 0
 397 115 436 113 472 99 c 1
 535 76 565 25 565 -24 c 0
 565 -107 490 -204 301 -204 c 0
 108 -204 40 -132 40 -60 c 0
 40 -17 70 22 117 54 c 1
 92 75 85 103 85 123 c 0
 85 158 106 192 137 221 c 1
 92 256 67 307 67 362 c 0
292 23 m 1
 253 24 224 26 205 28 c 1
 175 11 150 -13 150 -40 c 0
 150 -54 155 -77 193 -92 c 1
 231 -107 275 -109 299 -109 c 0
 335 -109 378 -106 413 -87 c 1
 447 -69 457 -46 457 -29 c 0
 457 -11 448 13 405 20 c 1
 391 22 372 22 353 22 c 0
 346 22 340 22 333 22 c 0
 320 22 305 22 292 23 c 1
EndSplineSet
EndChar

StartChar: h
Encoding: 104 104 14
Width: 613
Flags: W
TeX: 106 0
LayerCount: 2
Fore
SplineSet
196 0 m 1
 78 0 l 1
 78 788 l 1
 202 788 l 1
 206 778 l 0
 207 775 207 773 207 770 c 0
 207 755 197 747 196 746 c 0
 196 746 196 746 196 745 c 0
 196 476 l 1
 238 522 296 555 360 555 c 0
 428 555 490 519 519 456 c 0
 540 411 540 366 540 326 c 0
 540 0 l 1
 425 0 l 1
 425 320 l 0
 425 356 424 395 399 423 c 0
 383 441 360 450 337 450 c 0
 288 450 238 409 219 385 c 0
 199 360 196 340 196 307 c 0
 196 0 l 1
EndSplineSet
EndChar

StartChar: u
Encoding: 117 117 15
Width: 613
Flags: W
TeX: 120 0
LayerCount: 2
Fore
SplineSet
69 241 m 1
 70 542 l 1
 186 542 l 1
 186 244 l 0
 186 209 187 174 204 142 c 1
 223 106 257 87 294 87 c 0
 339 87 383 116 405 154 c 0
 422 183 425 209 425 248 c 0
 425 542 l 1
 542 542 l 1
 542 61 l 0
 542 46 543 32 547 19 c 0
 553 0 l 1
 429 0 l 1
 427 13 l 0
 425 26 425 40 425 51 c 1
 385 10 331 -13 274 -13 c 0
 198 -13 125 27 91 100 c 1
 68 148 69 197 69 241 c 1
EndSplineSet
EndChar

StartChar: r
Encoding: 114 114 16
Width: 613
Flags: W
TeX: 117 0
LayerCount: 2
Fore
SplineSet
113 -1 m 1
 113 542 l 1
 233 542 l 1
 231 477 l 1
 277 530 343 555 409 555 c 0
 474 555 528 529 565 491 c 0
 573 483 l 1
 519 373 l 1
 503 387 l 0
 491 398 487 409 482 416 c 0
 469 432 444 451 404 451 c 0
 369 451 311 440 265 372 c 0
 230 320 229 291 229 261 c 0
 229 -1 l 1
 113 -1 l 1
EndSplineSet
EndChar

StartChar: i
Encoding: 105 105 17
Width: 613
Flags: W
TeX: 108 0
LayerCount: 2
Fore
SplineSet
121 442 m 1
 121 543 l 1
 369 543 l 1
 369 99 l 1
 496 99 l 1
 496 0 l 1
 114 0 l 1
 114 99 l 1
 252 99 l 1
 252 442 l 1
 121 442 l 1
236 702 m 0
 236 744 270 778 312 778 c 0
 354 778 389 744 389 702 c 0
 389 660 354 626 312 626 c 0
 270 626 236 660 236 702 c 0
EndSplineSet
EndChar

StartChar: f
Encoding: 102 102 18
Width: 613
Flags: W
TeX: 104 0
LayerCount: 2
Fore
SplineSet
219 694 m 1
 260 761 338 796 418 796 c 0
 491 796 554 767 596 716 c 0
 602 709 l 1
 554 612 l 1
 545 612 l 0
 534 612 521 622 520 637 c 1
 520 641 l 1
 519 642 l 1
 519 643 l 0
 499 674 461 698 414 698 c 0
 374 698 336 681 317 646 c 1
 301 618 300 583 300 547 c 0
 300 543 300 541 300 537 c 0
 300 511 l 1
 477 511 l 1
 477 418 l 1
 300 418 l 1
 300 0 l 1
 187 0 l 1
 187 419 l 1
 70 419 l 1
 70 512 l 1
 187 512 l 1
 187 548 l 0
 187 596 189 645 219 694 c 1
EndSplineSet
EndChar

StartChar: v
Encoding: 118 118 19
Width: 613
Flags: W
TeX: 121 0
LayerCount: 2
Fore
SplineSet
262 -4 m 1
 35 543 l 1
 172 543 l 1
 175 531 l 0
 178 515 171 504 171 504 c 1
 171 504 172 503 172 502 c 0
 315 141 l 1
 387 308 l 0
 418 379 446 453 460 530 c 0
 462 543 l 1
 571 543 l 1
 567 525 l 0
 549 445 518 370 485 298 c 0
 349 -4 l 1
 262 -4 l 1
EndSplineSet
EndChar

StartChar: d
Encoding: 100 100 20
Width: 613
Flags: W
TeX: 102 0
LayerCount: 2
Fore
SplineSet
292 556 m 0
 351 556 401 533 435 497 c 1
 435 790 l 1
 556 790 l 1
 557 775 l 0
 558 761 550 751 548 748 c 0
 545 743 546 745 546 740 c 0
 547 63 l 0
 547 48 547 32 551 18 c 0
 556 0 l 1
 440 0 l 1
 437 11 l 0
 432 27 431 42 431 55 c 1
 392 13 337 -12 279 -12 c 0
 164 -12 48 79 48 275 c 0
 48 479 181 556 292 556 c 0
420 369 m 0
 401 435 339 456 296 456 c 0
 242 456 162 423 162 288 c 0
 162 129 247 94 299 94 c 0
 349 94 399 125 418 179 c 0
 426 202 428 229 428 266 c 0
 428 322 426 348 420 369 c 0
EndSplineSet
EndChar

StartChar: p
Encoding: 112 112 21
Width: 613
Flags: W
TeX: 115 0
LayerCount: 2
Fore
SplineSet
67 -198 m 1
 66 542 l 1
 183 542 l 1
 183 488 l 1
 225 531 280 554 339 554 c 0
 455 554 574 465 574 277 c 0
 574 82 452 -14 332 -14 c 0
 276 -14 222 8 184 45 c 1
 184 -198 l 1
 67 -198 l 1
455 260 m 0
 455 434 349 451 308 451 c 0
 258 451 214 426 196 386 c 1
 185 364 183 336 183 294 c 0
 183 221 184 182 197 152 c 1
 215 113 261 92 307 92 c 0
 353 92 455 112 455 260 c 0
EndSplineSet
EndChar

StartChar: q
Encoding: 113 113 22
Width: 613
Flags: W
TeX: 116 0
LayerCount: 2
Fore
SplineSet
296 556 m 0
 367 556 412 525 438 497 c 1
 438 542 l 1
 550 542 l 1
 550 -198 l 1
 434 -198 l 1
 434 55 l 1
 396 13 342 -12 284 -12 c 0
 153 -12 45 104 45 276 c 0
 45 458 168 556 296 556 c 0
419 380 m 1
 398 435 342 456 299 456 c 0
 235 456 162 412 162 288 c 0
 162 151 236 94 302 94 c 0
 351 94 402 125 421 179 c 1
 429 202 431 229 431 265 c 0
 431 325 429 355 419 380 c 1
EndSplineSet
EndChar

StartChar: y
Encoding: 121 121 23
Width: 613
Flags: W
TeX: 124 0
LayerCount: 2
Fore
SplineSet
268 16 m 1
 42 542 l 1
 185 542 l 1
 186 527 l 0
 187 510 181 502 181 501 c 0
 181 500 181 500 182 497 c 0
 326 136 l 1
 416 388 l 0
 432 434 447 482 456 530 c 0
 458 543 l 1
 581 543 l 1
 575 524 l 0
 559 473 540 423 520 374 c 0
 351 -52 l 0
 339 -83 328 -113 302 -142 c 0
 263 -186 207 -206 154 -206 c 0
 106 -206 60 -190 26 -157 c 0
 18 -148 l 1
 76 -46 l 1
 90 -57 l 0
 104 -68 104 -81 104 -81 c 1
 106 -85 123 -105 154 -105 c 0
 175 -105 199 -96 219 -75 c 0
 234 -59 244 -37 253 -16 c 0
 268 16 l 1
EndSplineSet
EndChar

StartChar: period
Encoding: 46 46 24
Width: 613
Flags: W
TeX: 115 0
LayerCount: 2
Fore
SplineSet
293 123 m 0
 340 123 379 85 379 39 c 0
 379 -7 340 -44 293 -44 c 0
 246 -44 208 -7 208 39 c 0
 208 85 246 123 293 123 c 0
EndSplineSet
EndChar

StartChar: comma
Encoding: 44 44 25
Width: 613
Flags: W
TeX: 101 0
LayerCount: 2
Fore
SplineSet
290 122 m 0
 342 122 388 76 388 8 c 0
 388 -52 342 -121 258 -195 c 0
 248 -205 l 1
 183 -157 l 1
 195 -147 l 0
 222 -126 241 -103 252 -87 c 0
 258 -79 268 -64 268 -52 c 0
 268 -39 258 -33 247 -27 c 0
 237 -20 207 -2 207 39 c 0
 207 83 242 122 290 122 c 0
EndSplineSet
EndChar

StartChar: plus
Encoding: 43 43 28
Width: 613
Flags: W
TeX: 115 0
LayerCount: 2
Fore
SplineSet
258 433 m 1
 258 621 l 1
 364 621 l 1
 364 433 l 1
 566 433 l 1
 566 330 l 1
 364 330 l 1
 364 108 l 1
 258 108 l 1
 258 330 l 1
 48 330 l 1
 48 433 l 1
 258 433 l 1
EndSplineSet
EndChar

StartChar: minus
Encoding: 8722 8722 29
Width: 613
Flags: W
TeX: 106 0
LayerCount: 2
Fore
SplineSet
48 335 m 1
 48 438 l 1
 566 438 l 1
 566 335 l 1
 48 335 l 1
EndSplineSet
EndChar

StartChar: underscore
Encoding: 95 95 31
Width: 613
Flags: W
TeX: 120 0
LayerCount: 2
Fore
SplineSet
36 -126 m 1
 36 -23 l 1
 579 -23 l 1
 579 -126 l 1
 36 -126 l 1
EndSplineSet
EndChar

StartChar: less
Encoding: 60 60 32
Width: 613
Flags: W
TeX: 111 0
LayerCount: 2
Fore
SplineSet
569 566 m 1
 175 378 l 1
 572 168 l 1
 572 43 l 1
 36 342 l 1
 36 418 l 1
 569 685 l 1
 569 566 l 1
EndSplineSet
EndChar

StartChar: greater
Encoding: 62 62 33
Width: 613
Flags: W
TeX: 105 0
LayerCount: 2
Fore
SplineSet
45 566 m 1
 45 685 l 1
 579 418 l 1
 579 342 l 1
 42 43 l 1
 42 168 l 1
 440 378 l 1
 45 566 l 1
EndSplineSet
EndChar

StartChar: quotesingle
Encoding: 39 39 34
Width: 613
Flags: W
TeX: 116 0
LayerCount: 2
Fore
SplineSet
335 791 m 0
 368 791 396 767 396 708 c 2
 396 595 l 1
 399 473 l 1
 268 473 l 1
 267 518 l 0
 263 565 267 566 265 611 c 0
 265 613 l 1
 266 615 l 0
 270 627 263 637 263 663 c 0
 263 716 l 0
 263 766 304 791 335 791 c 0
EndSplineSet
EndChar

StartChar: grave
Encoding: 96 96 35
Width: 613
Flags: W
TeX: 105 0
LayerCount: 2
Fore
SplineSet
287 361 m 2
 222 474 l 1
 159 580 l 1
 156 805 l 1
 185 762 l 0
 215 721 215 713 244 671 c 0
 245 670 l 1
 245 669 l 0
 256 640 261 645 277 617 c 0
 311 566 l 0
 340 513 352 424 353 378 c 0
 353 362 356 342 338 333 c 0
 315 321 298 345 287 361 c 2
EndSplineSet
EndChar

StartChar: slash
Encoding: 47 47 36
Width: 613
Flags: W
TeX: 118 0
LayerCount: 2
Fore
SplineSet
163 -56 m 1
 66 -7 l 1
 450 794 l 1
 549 746 l 1
 163 -56 l 1
EndSplineSet
EndChar

StartChar: backslash
Encoding: 92 92 37
Width: 613
Flags: W
TeX: 100 0
LayerCount: 2
Fore
SplineSet
164 794 m 1
 549 -7 l 1
 451 -56 l 1
 66 746 l 1
 164 794 l 1
EndSplineSet
EndChar

StartChar: micro
Encoding: 181 181 38
Width: 613
Flags: W
TeX: 120 0
LayerCount: 2
Fore
SplineSet
23 -198 m 1
 24 -182 l 2
 25 -49 47 94 47 237 c 0
 47 542 l 1
 156 542 l 1
 156 226 l 0
 156 192 156 163 171 136 c 0
 190 100 224 82 255 82 c 0
 291 82 327 105 346 146 c 1
 358 172 360 199 360 233 c 0
 360 542 l 1
 467 542 l 1
 467 144 l 0
 467 126 468 109 475 97 c 0
 475 97 l 1
 476 96 l 0
 482 85 490 82 499 82 c 0
 526 82 549 125 550 127 c 0
 563 155 l 1
 614 64 l 1
 609 56 l 0
 585 21 543 -12 492 -12 c 0
 445 -12 406 18 389 57 c 1
 355 13 304 -13 249 -13 c 0
 203 -13 159 7 129 38 c 1
 129 -36 129 -109 128 -182 c 0
 128 -198 l 1
 23 -198 l 1
EndSplineSet
EndChar

StartChar: braceleft
Encoding: 123 123 39
Width: 613
Flags: W
TeX: 100 0
LayerCount: 2
Fore
SplineSet
57 255 m 1
 57 352 l 1
 96 352 l 0
 118 352 143 353 165 373 c 1
 188 398 191 433 191 460 c 0
 191 487 188 513 188 542 c 0
 188 586 195 655 252 706 c 1
 305 753 375 756 432 756 c 0
 510 756 l 1
 510 657 l 1
 454 657 l 0
 436 657 421 658 407 658 c 0
 379 658 360 656 342 645 c 1
 304 622 301 575 301 551 c 0
 301 526 305 500 305 471 c 0
 305 443 302 407 284 373 c 1
 270 345 248 320 221 303 c 1
 264 277 302 223 302 120 c 0
 302 82 298 49 298 20 c 0
 298 -20 305 -65 341 -90 c 0
 363 -105 389 -106 427 -106 c 0
 509 -106 l 1
 509 -204 l 1
 414 -204 l 0
 357 -204 303 -201 256 -165 c 1
 187 -112 183 -24 183 19 c 0
 183 66 188 103 188 138 c 0
 188 188 180 218 161 236 c 0
 141 255 118 255 97 255 c 0
 57 255 l 1
EndSplineSet
EndChar

StartChar: braceright
Encoding: 125 125 40
Width: 613
Flags: W
TeX: 100 0
LayerCount: 2
Fore
SplineSet
518 352 m 0
 557 352 l 1
 557 255 l 1
 517 255 l 0
 496 255 473 255 453 236 c 0
 434 218 426 188 426 138 c 0
 426 103 431 66 431 19 c 0
 431 -24 428 -112 359 -165 c 1
 313 -201 258 -204 201 -204 c 0
 105 -204 l 1
 105 -106 l 1
 187 -106 l 0
 225 -106 252 -105 274 -90 c 0
 310 -65 316 -20 316 20 c 0
 316 49 312 82 312 120 c 0
 312 224 352 278 394 303 c 1
 366 321 344 345 330 373 c 1
 312 407 309 443 309 471 c 0
 309 500 313 526 313 551 c 0
 313 575 310 622 272 645 c 1
 254 656 236 658 208 658 c 0
 194 658 179 657 161 657 c 0
 104 657 l 1
 104 756 l 1
 182 756 l 0
 239 756 310 753 363 706 c 1
 420 655 426 586 426 542 c 0
 426 513 423 487 423 460 c 0
 423 433 426 397 449 373 c 1
 472 352 496 352 518 352 c 0
EndSplineSet
EndChar

StartChar: asterisk
Encoding: 42 42 41
Width: 613
Flags: W
TeX: 99 0
LayerCount: 2
Fore
SplineSet
246 615 m 1
 377 615 l 1
 375 611 l 0
 372 594 369 592 368 581 c 0
 352 417 l 1
 530 498 l 1
 575 394 l 1
 377 349 l 1
 522 176 l 1
 432 116 l 1
 307 296 l 1
 177 115 l 1
 88 176 l 1
 237 349 l 1
 39 394 l 1
 82 503 l 1
 264 417 l 1
 246 615 l 1
EndSplineSet
EndChar

StartChar: O
Encoding: 79 79 42
Width: 613
Flags: W
TeX: 81 0
LayerCount: 2
Fore
SplineSet
538 606 m 0
 580 526 585 435 585 368 c 0
 585 305 580 214 539 134 c 0
 488 35 398 -11 312 -11 c 0
 189 -11 30 86 30 371 c 0
 30 657 192 748 311 748 c 0
 397 748 487 702 538 606 c 0
443 538 m 0
 411 614 354 639 308 639 c 0
 241 639 142 585 142 381 c 0
 142 162 240 100 312 100 c 0
 356 100 408 124 440 187 c 0
 468 244 471 313 471 358 c 0
 471 417 467 482 443 538 c 0
EndSplineSet
EndChar

StartChar: zero
Encoding: 48 48 43
Width: 613
Flags: W
TeX: 125 0
LayerCount: 2
Fore
SplineSet
54 364 m 0
 54 595 177 744 308 744 c 0
 435 744 559 603 559 357 c 0
 559 109 429 -13 310 -13 c 0
 180 -13 54 131 54 364 c 0
172 258 m 1
 406 562 l 1
 376 619 338 641 307 641 c 0
 248 641 163 550 163 363 c 0
 163 325 166 289 172 258 c 1
452 363 m 0
 452 405 448 443 443 476 c 1
 209 177 l 1
 240 119 280 93 313 93 c 0
 365 93 452 159 452 363 c 0
EndSplineSet
EndChar

StartChar: one
Encoding: 49 49 44
Width: 613
Flags: W
TeX: 114 0
LayerCount: 2
Fore
SplineSet
304 740 m 1
 381 740 l 1
 381 -1 l 1
 267 -1 l 1
 267 607 l 1
 125 566 l 1
 95 635 l 1
 304 740 l 1
EndSplineSet
EndChar

StartChar: two
Encoding: 50 50 45
Width: 613
Flags: W
TeX: 119 0
LayerCount: 2
Fore
SplineSet
82 606 m 1
 89 617 l 2
 135 696 220 744 309 744 c 0
 438 744 539 650 539 532 c 0
 539 423 458 346 404 298 c 0
 354 254 278 190 220 103 c 1
 503 103 l 0
 504 103 l 1
 505 104 504 104 505 105 c 0
 506 106 518 119 536 113 c 0
 547 109 l 1
 547 0 l 1
 82 0 l 1
 82 68 l 1
 84 71 l 0
 147 190 217 265 302 338 c 0
 357 385 426 444 426 521 c 0
 426 589 371 640 300 640 c 0
 242 640 201 604 186 580 c 0
 184 577 186 568 175 552 c 0
 166 539 l 1
 82 606 l 1
EndSplineSet
EndChar

StartChar: N
Encoding: 78 78 46
Width: 613
Flags: W
TeX: 80 0
LayerCount: 2
Fore
SplineSet
165 0 m 1
 54 0 l 1
 54 739 l 1
 159 739 l 1
 445 234 l 1
 445 740 l 1
 562 740 l 1
 564 727 l 0
 566 715 560 706 559 704 c 0
 556 698 556 700 556 695 c 0
 556 -1 l 1
 466 -1 l 1
 165 538 l 1
 165 0 l 1
EndSplineSet
EndChar

StartChar: four
Encoding: 52 52 47
Width: 613
Flags: W
TeX: 104 0
LayerCount: 2
Fore
SplineSet
52 269 m 1
 374 740 l 1
 467 740 l 1
 467 293 l 1
 562 293 l 1
 562 188 l 1
 467 188 l 1
 467 0 l 1
 350 0 l 1
 350 189 l 1
 52 189 l 1
 52 269 l 1
351 293 m 1
 351 557 l 1
 178 293 l 1
 351 293 l 1
EndSplineSet
EndChar

StartChar: eight
Encoding: 56 56 48
Width: 613
Flags: W
TeX: 103 0
LayerCount: 2
Fore
SplineSet
101 559 m 0
 101 664 196 749 317 749 c 0
 433 749 524 669 524 566 c 0
 524 499 484 434 423 395 c 1
 498 353 549 280 549 198 c 0
 549 80 443 -12 306 -12 c 0
 172 -12 66 78 66 193 c 0
 66 274 120 349 198 393 c 1
 139 432 101 492 101 559 c 0
434 207 m 0
 434 269 381 328 293 358 c 1
 229 330 182 272 182 212 c 0
 182 147 237 93 310 93 c 0
 382 93 434 145 434 207 c 0
413 553 m 0
 413 606 368 648 310 648 c 0
 253 648 212 607 212 558 c 0
 212 486 299 439 326 427 c 1
 378 457 413 506 413 553 c 0
EndSplineSet
EndChar

StartChar: five
Encoding: 53 53 49
Width: 613
Flags: W
TeX: 104 0
LayerCount: 2
Fore
SplineSet
95 353 m 1
 122 739 l 1
 526 739 l 1
 526 634 l 1
 220 634 l 1
 211 476 l 1
 246 489 280 496 315 496 c 0
 447 496 554 402 554 241 c 0
 554 78 441 -13 305 -13 c 0
 212 -13 125 30 73 107 c 0
 65 119 l 1
 160 190 l 1
 169 184 l 0
 187 171 182 150 182 150 c 1
 188 141 236 90 304 90 c 0
 374 90 438 141 438 243 c 0
 438 348 371 396 302 396 c 0
 256 396 209 373 176 332 c 0
 169 323 l 1
 95 353 l 1
EndSplineSet
EndChar

StartChar: S
Encoding: 83 83 50
Width: 613
Flags: W
TeX: 85 0
LayerCount: 2
Fore
SplineSet
538 646 m 2
 546 637 l 1
 480 547 l 1
 470 551 l 2
 462 553 453 561 453 574 c 0
 453 576 452 578 452 578 c 1
 425 616 379 644 315 644 c 0
 237 644 197 600 197 555 c 0
 197 531 206 495 264 463 c 0
 328 427 434 407 503 345 c 0
 553 300 566 246 566 206 c 0
 566 110 493 -12 304 -12 c 0
 209 -12 121 21 60 88 c 2
 53 96 l 1
 115 204 l 1
 128 197 l 2
 143 189 142 173 142 172 c 0
 142 169 l 1
 142 169 l 2
 172 131 230 93 306 93 c 0
 406 93 452 154 452 207 c 0
 452 234 442 266 398 292 c 0
 346 323 237 347 165 398 c 0
 99 444 81 503 81 548 c 0
 81 654 181 743 321 743 c 0
 406 743 485 709 538 646 c 2
EndSplineSet
EndChar

StartChar: M
Encoding: 77 77 51
Width: 613
Flags: W
TeX: 79 0
LayerCount: 2
Fore
SplineSet
43 -1 m 1
 43 739 l 1
 133 739 l 1
 307 396 l 1
 484 740 l 1
 571 740 l 1
 571 -1 l 1
 462 -1 l 1
 462 512 l 1
 327 260 l 1
 276 260 l 1
 152 505 l 1
 152 -1 l 1
 43 -1 l 1
EndSplineSet
EndChar

StartChar: L
Encoding: 76 76 52
Width: 613
Flags: W
TeX: 78 0
LayerCount: 2
Fore
SplineSet
74 -1 m 1
 74 739 l 1
 199 739 l 1
 201 726 l 0
 203 713 197 702 195 699 c 0
 191 692 190 694 190 686 c 0
 190 101 l 1
 547 101 l 1
 547 -1 l 1
 74 -1 l 1
EndSplineSet
EndChar

StartChar: ampersand
Encoding: 38 38 53
Width: 613
Flags: W
TeX: 80 0
LayerCount: 2
Fore
SplineSet
103 582 m 0
 103 676 184 747 282 747 c 0
 379 747 456 676 456 580 c 0
 456 504 407 430 335 386 c 1
 446 236 l 1
 465 261 477 287 484 308 c 0
 485 310 485 311 485 312 c 0
 485 313 483 318 483 326 c 0
 483 336 487 344 493 349 c 0
 503 357 l 1
 601 291 l 1
 594 280 l 0
 569 237 541 194 510 154 c 1
 595 48 l 1
 500 -21 l 1
 436 80 l 1
 386 26 316 -12 238 -12 c 0
 123 -12 38 72 38 181 c 0
 38 270 95 358 180 409 c 1
 139 459 103 519 103 582 c 0
280 646 m 0
 247 646 216 618 216 574 c 0
 216 549 226 513 276 447 c 1
 321 476 347 524 347 568 c 0
 347 617 314 646 280 646 c 0
394 122 m 0
 411 146 l 1
 411 100 l 1
 394 122 l 0
251 95 m 0
 305 95 356 142 376 163 c 1
 240 345 l 1
 188 306 158 248 158 197 c 0
 158 136 199 95 251 95 c 0
EndSplineSet
EndChar

StartChar: F
Encoding: 70 70 54
Width: 613
Flags: W
TeX: 80 0
LayerCount: 2
Fore
SplineSet
87 0 m 1
 87 740 l 1
 544 740 l 1
 544 637 l 1
 202 637 l 1
 202 451 l 1
 478 451 l 1
 478 348 l 1
 202 348 l 1
 202 0 l 1
 87 0 l 1
EndSplineSet
EndChar

StartChar: w
Encoding: 119 119 55
Width: 613
Flags: W
TeX: 122 0
LayerCount: 2
Fore
SplineSet
348 492 m 1
 447 162 l 1
 481 385 487 450 487 504 c 0
 487 511 486 519 486 526 c 0
 486 542 l 1
 598 542 l 1
 596 525 l 0
 572 352 543 182 506 11 c 0
 503 -1 l 1
 399 -1 l 1
 311 308 l 1
 227 -1 l 1
 126 -1 l 1
 10 543 l 1
 127 543 l 1
 130 532 l 0
 135 517 130 504 128 499 c 0
 125 491 126 493 128 486 c 0
 128 486 l 1
 193 162 l 1
 273 492 l 1
 348 492 l 1
EndSplineSet
EndChar

StartChar: quotedbl
Encoding: 34 34 58
Width: 613
Flags: W
TeX: 116 0
LayerCount: 2
Fore
SplineSet
430 791 m 0
 461 791 482 764 482 708 c 2
 482 595 l 1
 484 473 l 1
 372 473 l 1
 371 518 l 0
 368 565 371 566 369 611 c 0
 369 613 l 1
 370 615 l 0
 374 628 368 638 368 663 c 0
 368 716 l 0
 368 763 400 791 430 791 c 0
223 791 m 0
 254 791 275 764 275 708 c 2
 275 595 l 1
 277 473 l 1
 165 473 l 1
 164 518 l 0
 161 565 164 566 162 611 c 0
 162 613 l 1
 163 615 l 0
 167 628 161 638 161 663 c 0
 161 716 l 0
 161 763 193 791 223 791 c 0
EndSplineSet
EndChar

StartChar: T
Encoding: 84 84 59
Width: 613
Flags: W
TeX: 86 0
LayerCount: 2
Fore
SplineSet
32 635 m 1
 32 740 l 1
 574 740 l 1
 574 635 l 1
 356 635 l 1
 356 -1 l 1
 242 -1 l 1
 242 635 l 1
 32 635 l 1
EndSplineSet
EndChar

StartChar: hyphen
Encoding: 45 45 60
Width: 613
Flags: W
TeX: 106 0
LayerCount: 2
Fore
SplineSet
79 334 m 1
 79 443 l 1
 537 443 l 1
 537 334 l 1
 79 334 l 1
EndSplineSet
EndChar

StartChar: exclam
Encoding: 33 33 61
Width: 613
Flags: W
TeX: 103 0
LayerCount: 2
Fore
SplineSet
294 158 m 0
 341 158 380 119 380 72 c 0
 380 25 341 -13 294 -13 c 0
 247 -13 209 25 209 72 c 0
 209 119 247 158 294 158 c 0
230 745 m 0
 243 776 269 793 296 793 c 0
 326 793 356 772 367 730 c 0
 369 722 372 707 372 678 c 0
 372 631 364 586 361 542 c 0
 339 247 l 1
 251 247 l 1
 232 542 l 0
 228 619 221 647 221 688 c 0
 221 711 223 729 230 745 c 0
EndSplineSet
EndChar

StartChar: U
Encoding: 85 85 63
Width: 613
Flags: W
TeX: 87 0
LayerCount: 2
Fore
SplineSet
54 259 m 0
 54 739 l 1
 173 739 l 1
 177 730 l 0
 179 726 179 723 179 719 c 0
 179 706 171 696 169 694 c 0
 167 691 167 692 167 688 c 0
 167 261 l 0
 167 226 168 194 183 163 c 0
 207 114 257 88 310 88 c 0
 362 88 412 113 437 162 c 0
 453 195 455 228 455 264 c 0
 455 739 l 1
 564 739 l 1
 564 263 l 0
 564 211 563 158 533 105 c 0
 488 25 399 -13 309 -13 c 0
 217 -13 129 26 85 105 c 0
 56 157 54 209 54 259 c 0
EndSplineSet
EndChar

StartChar: numbersign
Encoding: 35 35 64
Width: 613
Flags: W
TeX: 113 0
LayerCount: 2
Fore
SplineSet
179 539 m 1
 202 740 l 1
 305 744 l 1
 280 540 l 1
 380 541 l 1
 403 734 l 1
 508 738 l 1
 484 543 l 1
 592 544 l 1
 582 456 l 1
 473 455 l 1
 453 286 l 1
 570 288 l 1
 561 202 l 1
 442 200 l 1
 416 -14 l 1
 313 -19 l 1
 339 198 l 1
 239 197 l 1
 213 -14 l 1
 113 -18 l 1
 138 195 l 1
 23 193 l 1
 31 278 l 1
 148 280 l 1
 168 452 l 1
 40 450 l 1
 46 537 l 1
 179 539 l 1
370 469 m 1
 270 468 l 1
 249 298 l 1
 349 299 l 1
 370 469 l 1
EndSplineSet
EndChar

StartChar: j
Encoding: 106 106 65
Width: 613
Flags: W
TeX: 109 0
LayerCount: 2
Fore
SplineSet
144 441 m 1
 144 543 l 1
 463 543 l 1
 463 47 l 0
 463 2 462 -43 437 -90 c 0
 397 -168 315 -207 233 -207 c 0
 161 -207 98 -177 56 -125 c 0
 48 -116 l 1
 120 -20 l 1
 133 -30 l 0
 147 -41 146 -56 146 -56 c 0
 149 -60 181 -102 239 -102 c 0
 279 -102 316 -81 334 -43 c 0
 346 -19 346 5 346 32 c 0
 346 441 l 1
 144 441 l 1
329 702 m 0
 329 744 364 778 406 778 c 0
 448 778 482 744 482 702 c 0
 482 660 447 626 405 626 c 0
 363 626 329 660 329 702 c 0
EndSplineSet
EndChar

StartChar: x
Encoding: 120 120 66
Width: 613
Flags: W
TeX: 123 0
LayerCount: 2
Fore
SplineSet
305 354 m 1
 432 543 l 1
 556 543 l 1
 370 279 l 1
 581 0 l 1
 446 0 l 1
 305 199 l 1
 171 0 l 1
 37 0 l 1
 238 275 l 1
 40 543 l 1
 171 543 l 1
 305 354 l 1
EndSplineSet
EndChar

StartChar: G
Encoding: 71 71 67
Width: 613
Flags: W
TeX: 73 0
LayerCount: 2
Fore
SplineSet
38 361 m 0
 38 681 234 747 339 747 c 0
 435 747 522 697 567 615 c 0
 573 605 l 1
 498 528 l 1
 487 535 l 0
 473 544 469 559 466 565 c 0
 446 609 399 643 339 643 c 0
 282 643 222 614 186 551 c 0
 159 503 151 442 151 378 c 0
 151 305 160 211 217 149 c 0
 254 109 302 92 346 92 c 0
 384 92 428 105 464 127 c 1
 464 267 l 1
 330 267 l 1
 330 370 l 1
 571 370 l 1
 571 70 l 1
 565 65 l 0
 493 14 411 -11 339 -11 c 0
 201 -11 38 85 38 361 c 0
EndSplineSet
EndChar

StartChar: k
Encoding: 107 107 68
Width: 613
Flags: W
TeX: 110 0
LayerCount: 2
Fore
SplineSet
74 -1 m 1
 74 788 l 1
 199 788 l 1
 202 776 l 0
 205 760 193 749 192 747 c 0
 191 745 l 1
 191 745 190 744 190 742 c 0
 190 313 l 1
 442 546 l 1
 450 544 l 0
 469 539 490 539 510 539 c 0
 579 539 l 1
 333 319 l 1
 611 -1 l 1
 578 -1 l 0
 575 -1 573 -1 570 -1 c 0
 514 -1 469 -5 469 -5 c 0
 461 -6 l 1
 245 264 l 1
 190 213 l 1
 190 -1 l 1
 74 -1 l 1
EndSplineSet
EndChar

StartChar: z
Encoding: 122 122 69
Width: 613
Flags: W
TeX: 125 0
LayerCount: 2
Fore
SplineSet
79 437 m 1
 79 543 l 1
 531 543 l 1
 531 469 l 1
 217 103 l 1
 508 103 l 0
 516 103 520 111 540 111 c 0
 542 111 544 110 546 110 c 0
 559 109 l 1
 559 -1 l 1
 54 -1 l 1
 54 73 l 1
 373 437 l 1
 79 437 l 1
EndSplineSet
EndChar

StartChar: dollar
Encoding: 36 36 70
Width: 613
Flags: W
TeX: 102 0
LayerCount: 2
Fore
SplineSet
273 701 m 1
 273 772 l 1
 376 772 l 1
 380 763 l 0
 381 760 382 757 382 753 c 0
 382 739 374 734 374 734 c 1
 374 733 l 0
 374 702 l 1
 442 692 503 661 546 611 c 0
 554 602 l 1
 489 523 l 1
 479 525 l 0
 471 527 463 534 462 546 c 0
 462 549 462 550 462 551 c 1
 460 553 460 554 459 555 c 0
 440 578 412 595 374 604 c 1
 374 412 l 1
 399 404 421 396 443 387 c 0
 468 377 571 335 571 220 c 0
 571 133 505 41 374 19 c 1
 374 -55 l 1
 273 -55 l 1
 273 16 l 1
 193 24 123 55 70 110 c 0
 61 119 l 1
 127 207 l 1
 138 202 l 0
 155 195 153 177 153 177 c 0
 153 175 l 1
 181 146 223 121 273 112 c 1
 273 336 l 1
 254 342 236 349 217 358 c 0
 112 406 89 476 89 523 c 0
 89 612 167 683 273 701 c 1
412 287 m 0
 402 293 389 298 374 303 c 1
 374 108 l 1
 433 126 463 169 463 210 c 0
 463 230 456 263 412 287 c 0
255 461 m 0
 260 458 268 453 273 451 c 1
 273 615 l 1
 217 602 198 569 198 539 c 0
 198 519 207 489 255 461 c 0
EndSplineSet
EndChar

StartChar: A
Encoding: 65 65 71
Width: 613
Flags: W
TeX: 67 0
LayerCount: 2
Fore
SplineSet
121 -1 m 1
 6 -1 l 1
 278 753 l 1
 309 753 l 1
 606 0 l 1
 487 0 l 1
 405 201 l 1
 192 201 l 1
 121 -1 l 1
219 296 m 1
 375 296 l 1
 294 516 l 1
 219 296 l 1
EndSplineSet
EndChar

StartChar: C
Encoding: 67 67 72
Width: 613
Flags: W
TeX: 69 0
LayerCount: 2
Fore
SplineSet
43 365 m 0
 43 656 217 745 340 745 c 0
 444 745 538 685 580 590 c 0
 586 576 l 1
 486 527 l 1
 479 532 l 0
 466 541 467 554 467 556 c 0
 467 561 467 564 467 565 c 0
 467 567 467 566 465 570 c 0
 438 617 389 648 337 648 c 0
 245 648 155 556 155 373 c 0
 155 187 248 90 344 90 c 0
 396 90 449 121 481 173 c 0
 490 186 l 1
 577 130 l 1
 569 117 l 0
 520 37 433 -12 339 -12 c 0
 208 -12 43 84 43 365 c 0
EndSplineSet
EndChar

StartChar: B
Encoding: 66 66 73
Width: 613
Flags: W
TeX: 68 0
LayerCount: 2
Fore
SplineSet
52 0 m 1
 52 739 l 1
 278 739 l 0
 323 739 372 739 422 718 c 0
 497 687 539 621 539 551 c 0
 539 488 504 430 450 397 c 1
 522 361 567 289 567 211 c 0
 567 132 520 58 435 23 c 1
 379 0 327 0 276 0 c 0
 52 0 l 1
266 638 m 0
 165 638 l 1
 165 449 l 1
 265 449 l 0
 298 449 331 449 361 461 c 0
 402 478 424 510 424 543 c 0
 424 576 403 611 359 627 c 0
 330 638 298 638 266 638 c 0
270 348 m 0
 165 348 l 1
 165 103 l 1
 291 103 l 0
 323 103 351 104 380 116 c 0
 425 135 450 176 450 221 c 0
 450 266 424 310 375 332 c 0
 342 347 307 348 270 348 c 0
EndSplineSet
EndChar

StartChar: bracketleft
Encoding: 91 91 74
Width: 613
Flags: W
TeX: 100 0
LayerCount: 2
Fore
SplineSet
151 -105 m 1
 151 795 l 1
 520 795 l 1
 520 693 l 1
 257 693 l 1
 257 -7 l 1
 521 -7 l 1
 521 -105 l 1
 151 -105 l 1
EndSplineSet
EndChar

StartChar: bracketright
Encoding: 93 93 75
Width: 613
Flags: W
TeX: 100 0
LayerCount: 2
Fore
SplineSet
94 795 m 1
 464 795 l 1
 464 -105 l 1
 93 -105 l 1
 93 -7 l 1
 357 -7 l 1
 357 693 l 1
 94 693 l 1
 94 795 l 1
EndSplineSet
EndChar

StartChar: parenleft
Encoding: 40 40 76
Width: 613
Flags: W
TeX: 115 0
LayerCount: 2
Fore
SplineSet
469 789 m 0
 482 795 l 1
 531 699 l 1
 519 692 l 0
 512 688 504 688 501 688 c 0
 493 688 490 689 489 689 c 0
 489 689 488 689 486 688 c 0
 352 612 273 470 273 310 c 0
 273 136 366 -28 523 -117 c 0
 536 -124 l 1
 482 -210 l 1
 469 -203 l 0
 276 -105 159 92 159 306 c 0
 159 522 279 708 469 789 c 0
EndSplineSet
EndChar

StartChar: parenright
Encoding: 41 41 77
Width: 613
Flags: W
TeX: 115 0
LayerCount: 2
Fore
SplineSet
95 690 m 0
 84 696 l 1
 115 795 l 1
 131 788 l 0
 329 700 458 508 458 297 c 0
 458 84 327 -112 125 -205 c 0
 109 -213 l 1
 78 -115 l 1
 89 -109 l 0
 244 -29 343 126 343 294 c 0
 343 459 247 612 95 690 c 0
EndSplineSet
EndChar

StartChar: three
Encoding: 51 51 78
Width: 613
Flags: W
TeX: 119 0
LayerCount: 2
Fore
SplineSet
294 742 m 0
 419 742 513 653 513 547 c 0
 513 483 477 424 423 393 c 1
 489 357 529 288 529 210 c 0
 529 92 436 -12 286 -12 c 0
 208 -12 134 18 81 77 c 0
 72 87 l 1
 154 185 l 1
 166 173 l 0
 183 155 178 142 181 138 c 0
 185 133 224 93 286 93 c 0
 364 93 419 152 419 221 c 0
 419 294 356 339 261 339 c 0
 249 339 237 338 225 336 c 0
 208 334 l 1
 208 428 l 1
 223 429 l 0
 291 429 323 440 334 445 c 0
 379 464 404 505 404 542 c 0
 404 593 359 637 290 637 c 0
 249 637 206 619 174 585 c 0
 163 573 l 1
 96 647 l 1
 105 658 l 0
 154 712 223 742 294 742 c 0
EndSplineSet
EndChar

StartChar: D
Encoding: 68 68 79
Width: 613
Flags: W
TeX: 70 0
LayerCount: 2
Fore
SplineSet
58 -1 m 1
 58 739 l 1
 247 739 l 0
 313 739 370 735 427 699 c 0
 529 636 572 510 572 371 c 0
 572 213 512 85 399 29 c 0
 344 2 291 -1 232 -1 c 0
 58 -1 l 1
242 638 m 0
 168 638 l 1
 168 95 l 1
 228 95 l 0
 274 95 316 97 358 124 c 0
 412 158 457 230 457 360 c 0
 457 459 434 554 371 603 c 0
 329 636 288 638 242 638 c 0
EndSplineSet
EndChar

StartChar: E
Encoding: 69 69 80
Width: 613
Flags: W
TeX: 71 0
LayerCount: 2
Fore
SplineSet
65 0 m 1
 65 740 l 1
 549 740 l 1
 549 636 l 1
 174 636 l 1
 174 439 l 1
 483 439 l 1
 483 333 l 1
 174 333 l 1
 174 104 l 1
 546 104 l 1
 546 0 l 1
 65 0 l 1
EndSplineSet
EndChar

StartChar: V
Encoding: 86 86 81
Width: 613
Flags: W
TeX: 88 0
LayerCount: 2
Fore
SplineSet
281 -5 m 1
 19 740 l 1
 138 740 l 1
 316 206 l 1
 484 739 l 1
 599 739 l 1
 341 -5 l 1
 281 -5 l 1
EndSplineSet
EndChar

StartChar: percent
Encoding: 37 37 82
Width: 613
Flags: W
TeX: 115 0
LayerCount: 2
Fore
SplineSet
38 0 m 1
 465 739 l 1
 580 739 l 1
 149 0 l 1
 38 0 l 1
29 590 m 0
 29 684 95 753 176 753 c 0
 258 753 325 682 325 589 c 0
 325 498 259 427 177 427 c 0
 94 427 29 499 29 590 c 0
219 586 m 0
 219 656 185 659 174 659 c 0
 160 659 131 651 131 593 c 0
 131 526 164 521 176 521 c 0
 190 521 219 530 219 586 c 0
450 311 m 0
 532 311 598 241 598 150 c 0
 598 59 532 -12 450 -12 c 0
 368 -12 302 58 302 149 c 0
 302 240 368 311 450 311 c 0
497 147 m 0
 497 210 465 219 450 219 c 0
 434 219 403 209 403 149 c 0
 403 91 433 79 451 79 c 0
 467 79 497 88 497 147 c 0
EndSplineSet
EndChar

StartChar: J
Encoding: 74 74 83
Width: 613
Flags: W
TeX: 76 0
LayerCount: 2
Fore
SplineSet
199 639 m 1
 199 739 l 1
 567 739 l 1
 567 639 l 1
 454 639 l 1
 454 251 l 0
 454 200 454 143 423 88 c 1
 385 22 317 -13 241 -13 c 0
 172 -13 104 18 57 74 c 0
 49 84 l 1
 122 173 l 1
 134 163 l 0
 145 153 144 139 144 139 c 1
 153 130 193 91 243 91 c 0
 273 91 300 105 317 129 c 1
 340 161 341 203 341 244 c 0
 341 639 l 1
 199 639 l 1
EndSplineSet
EndChar

StartChar: K
Encoding: 75 75 84
Width: 613
Flags: W
TeX: 77 0
LayerCount: 2
Fore
SplineSet
45 0 m 1
 45 740 l 1
 173 740 l 1
 175 727 l 2
 177 711 167 701 165 698 c 0
 164 697 l 2
 164 696 164 695 164 694 c 2
 164 423 l 1
 452 747 l 1
 461 745 l 2
 480 740 499 739 519 739 c 2
 584 739 l 1
 290 417 l 1
 599 -1 l 1
 569 -1 l 2
 511 -1 465 -5 465 -5 c 1
 456 -6 l 1
 205 360 l 1
 164 316 l 1
 164 0 l 1
 45 0 l 1
EndSplineSet
EndChar

StartChar: P
Encoding: 80 80 85
Width: 613
Flags: W
TeX: 82 0
LayerCount: 2
Fore
SplineSet
305 631 m 0
 181 631 l 1
 180 415 l 1
 314 415 l 0
 342 415 369 416 394 428 c 0
 431 445 451 480 451 520 c 0
 451 560 429 599 389 617 c 1
 362 630 336 631 305 631 c 0
65 0 m 1
 65 739 l 1
 305 739 l 0
 353 739 402 738 453 713 c 1
 528 676 566 601 566 524 c 0
 566 447 528 373 453 336 c 1
 404 312 357 311 311 311 c 0
 181 311 l 1
 181 0 l 1
 65 0 l 1
EndSplineSet
EndChar

StartChar: question
Encoding: 63 63 86
Width: 613
Flags: W
TeX: 116 0
LayerCount: 2
Fore
SplineSet
320 152 m 0
 367 152 406 114 406 68 c 0
 406 22 367 -15 320 -15 c 0
 273 -15 234 22 234 68 c 0
 234 114 273 152 320 152 c 0
66 648 m 1
 73 659 l 2
 128 743 221 790 315 790 c 0
 458 790 541 683 541 565 c 0
 541 445 455 395 418 362 c 0
 373 322 372 294 372 253 c 0
 372 242 l 1
 263 242 l 1
 263 253 l 0
 263 307 268 355 323 416 c 0
 361 458 416 502 416 571 c 0
 416 633 369 681 307 681 c 0
 254 681 195 645 160 586 c 0
 150 570 l 1
 66 648 l 1
EndSplineSet
EndChar

StartChar: at
Encoding: 64 64 87
Width: 613
Flags: W
TeX: 99 0
LayerCount: 2
Fore
SplineSet
547 46 m 1
 535 38 l 2
 483 5 421 -13 360 -13 c 0
 203 -13 32 101 32 373 c 0
 32 638 194 751 332 751 c 0
 424 751 510 701 550 614 c 1
 577 555 578 497 578 442 c 0
 578 192 l 1
 475 192 l 1
 475 216 l 1
 445 194 410 182 372 182 c 0
 278 182 203 258 203 352 c 0
 203 422 246 491 325 523 c 1
 376 543 425 543 470 543 c 0
 471 543 l 1
 463 608 404 656 329 656 c 0
 238 656 131 574 131 376 c 0
 131 163 261 85 367 85 c 0
 410 85 451 97 486 121 c 0
 500 131 l 1
 547 46 l 1
475 431 m 0
 475 453 l 1
 471 453 l 0
 429 453 383 452 348 428 c 1
 320 408 307 380 307 355 c 0
 307 313 342 279 386 279 c 0
 414 279 443 294 459 324 c 1
 473 352 475 389 475 431 c 0
EndSplineSet
EndChar

StartChar: bar
Encoding: 124 124 88
Width: 613
Flags: W
TeX: 100 0
LayerCount: 2
Fore
SplineSet
252 -210 m 1
 252 774 l 1
 362 774 l 1
 362 -210 l 1
 252 -210 l 1
EndSplineSet
EndChar

StartChar: asciitilde
Encoding: 126 126 89
Width: 613
Flags: W
TeX: 99 0
LayerCount: 2
Fore
SplineSet
132 413 m 0
 124 399 l 1
 39 455 l 1
 46 468 l 0
 83 514 147 551 222 551 c 0
 330 551 366 493 419 493 c 0
 449 493 474 506 508 532 c 0
 517 545 l 1
 595 512 l 1
 587 500 l 0
 555 452 493 384 410 384 c 0
 302 384 274 448 217 448 c 0
 191 448 161 438 132 413 c 0
EndSplineSet
EndChar

StartChar: asciicircum
Encoding: 94 94 90
Width: 613
Flags: W
TeX: 99 0
LayerCount: 2
Fore
SplineSet
186 402 m 1
 99 444 l 1
 293 739 l 1
 337 739 l 1
 510 445 l 1
 418 402 l 1
 309 599 l 1
 186 402 l 1
EndSplineSet
EndChar

StartChar: cent
Encoding: 162 162 91
Width: 613
Flags: W
TeX: 101 0
LayerCount: 2
Fore
SplineSet
318 611 m 1
 335 742 l 1
 442 731 l 1
 443 719 l 0
 444 706 438 697 437 694 c 0
 434 688 434 690 433 684 c 0
 422 603 l 1
 485 587 530 554 559 511 c 0
 565 502 l 1
 497 418 l 1
 485 426 l 0
 472 435 473 448 473 449 c 0
 473 457 l 1
 473 457 472 457 472 458 c 0
 461 471 437 490 408 502 c 1
 358 138 l 1
 406 142 452 162 486 196 c 0
 498 209 l 1
 560 130 l 1
 551 121 l 0
 498 65 422 35 344 34 c 1
 327 -95 l 1
 228 -83 l 1
 245 49 l 1
 128 86 52 191 52 324 c 0
 52 481 159 598 318 611 c 1
167 334 m 0
 167 245 204 182 259 151 c 1
 305 521 l 1
 225 508 167 443 167 334 c 0
EndSplineSet
EndChar

StartChar: euro
Encoding: 8364 8364 92
Width: 613
Flags: W
TeX: 80 0
LayerCount: 2
Fore
SplineSet
572 676 m 0
 579 669 l 1
 538 559 l 1
 522 573 l 0
 504 587 509 599 509 599 c 1
 506 602 466 646 396 646 c 0
 331 646 252 614 219 510 c 0
 219 509 218 508 218 507 c 1
 514 507 l 1
 477 408 l 1
 203 408 l 1
 202 391 201 373 201 353 c 0
 201 350 201 345 201 343 c 1
 453 343 l 1
 414 244 l 1
 212 244 l 1
 221 208 234 180 254 156 c 0
 293 108 347 89 398 89 c 0
 442 89 483 104 515 133 c 0
 529 146 l 1
 579 59 l 1
 569 51 l 0
 521 9 458 -13 393 -13 c 0
 293 -13 142 40 105 244 c 1
 30 244 l 1
 52 343 l 1
 97 343 l 1
 97 345 97 346 97 347 c 0
 97 367 98 388 99 408 c 1
 30 408 l 1
 52 507 l 1
 113 507 l 1
 122 544 135 578 154 609 c 0
 218 714 323 745 401 745 c 0
 467 745 528 721 572 676 c 0
EndSplineSet
EndChar

StartChar: sterling
Encoding: 163 163 93
Width: 613
Flags: W
TeX: 118 0
LayerCount: 2
Fore
SplineSet
516 675 m 0
 527 665 l 1
 456 577 l 1
 445 586 l 0
 429 597 427 611 426 612 c 0
 423 615 394 641 350 641 c 0
 295 641 238 604 238 520 c 0
 238 502 241 483 245 464 c 1
 366 464 l 1
 366 366 l 1
 268 366 l 1
 275 334 280 305 280 271 c 0
 280 223 269 177 249 137 c 1
 252 137 251 137 253 137 c 0
 339 137 389 91 449 91 c 0
 478 91 506 102 527 120 c 0
 541 133 l 1
 588 43 l 1
 578 35 l 0
 550 13 502 -18 445 -18 c 0
 361 -18 312 35 233 35 c 0
 211 35 168 32 94 -7 c 0
 80 -15 l 1
 36 78 l 1
 50 84 l 0
 106 109 115 111 132 136 c 0
 157 173 170 218 170 267 c 0
 170 300 164 335 156 366 c 1
 75 366 l 1
 75 464 l 1
 133 464 l 1
 130 483 128 501 128 521 c 0
 128 655 234 739 352 739 c 0
 412 739 471 717 516 675 c 0
EndSplineSet
EndChar

StartChar: Y
Encoding: 89 89 94
Width: 613
Flags: W
TeX: 91 0
LayerCount: 2
Fore
SplineSet
256 291 m 1
 19 740 l 1
 148 740 l 1
 319 401 l 1
 473 739 l 1
 596 739 l 1
 377 292 l 1
 377 0 l 1
 256 0 l 1
 256 291 l 1
EndSplineSet
EndChar

StartChar: yen
Encoding: 165 165 95
Width: 613
Flags: W
TeX: 124 0
LayerCount: 2
Fore
SplineSet
260 346 m 1
 27 740 l 1
 154 740 l 1
 317 448 l 1
 466 739 l 1
 589 739 l 1
 372 346 l 1
 372 341 l 1
 531 341 l 1
 531 243 l 1
 372 243 l 1
 372 199 l 1
 531 199 l 1
 531 101 l 1
 372 101 l 1
 372 0 l 1
 260 0 l 1
 260 101 l 1
 94 101 l 1
 94 199 l 1
 260 199 l 1
 260 243 l 1
 94 243 l 1
 94 341 l 1
 260 341 l 1
 260 346 l 1
EndSplineSet
EndChar

StartChar: Z
Encoding: 90 90 96
Width: 613
Flags: W
TeX: 92 0
LayerCount: 2
Fore
SplineSet
69 634 m 1
 69 739 l 1
 556 739 l 1
 555 665 l 1
 201 103 l 1
 523 103 l 0
 531 103 536 111 555 111 c 0
 574 111 l 1
 574 -1 l 1
 54 -1 l 1
 54 73 l 1
 415 634 l 1
 69 634 l 1
EndSplineSet
EndChar

StartChar: Q
Encoding: 81 81 97
Width: 613
Flags: W
TeX: 83 0
LayerCount: 2
Fore
SplineSet
446 539 m 1
 412 616 353 641 307 641 c 0
 238 641 141 583 141 382 c 0
 141 163 238 96 312 96 c 0
 365 96 474 130 474 357 c 0
 474 416 470 482 446 539 c 1
539 604 m 1
 580 525 585 435 585 367 c 0
 585 303 580 213 539 134 c 1
 499 56 434 11 367 -5 c 1
 370 -39 381 -67 438 -67 c 0
 463 -67 495 -62 534 -60 c 0
 550 -60 l 1
 547 -172 l 1
 465 -172 l 0
 417 -172 378 -170 342 -152 c 1
 285 -124 264 -70 263 -6 c 1
 149 17 30 123 30 371 c 0
 30 657 191 748 311 748 c 0
 398 748 488 701 539 604 c 1
EndSplineSet
EndChar

StartChar: thorn
Encoding: 254 254 98
Width: 613
Flags: W
TeX: 119 0
LayerCount: 2
Fore
SplineSet
67 -198 m 1
 67 788 l 1
 191 788 l 1
 191 771 l 0
 191 748 183 746 183 734 c 0
 183 488 l 1
 225 531 280 554 339 554 c 0
 455 554 574 465 574 277 c 0
 574 82 452 -14 332 -14 c 0
 276 -14 222 8 184 45 c 1
 184 -198 l 1
 67 -198 l 1
455 260 m 0
 455 434 349 451 308 451 c 0
 258 451 214 426 196 386 c 1
 185 364 183 336 183 294 c 0
 183 221 184 182 197 152 c 1
 215 113 261 92 307 92 c 0
 353 92 455 112 455 260 c 0
EndSplineSet
EndChar

StartChar: plusminus
Encoding: 177 177 100
Width: 613
Flags: W
TeX: 115 0
LayerCount: 2
Fore
SplineSet
49 5 m 1
 49 111 l 1
 568 111 l 1
 568 5 l 1
 49 5 l 1
EndSplineSet
Refer: 28 43 N 1 0 0 1 0 61 2
EndChar

StartChar: R
Encoding: 82 82 101
Width: 613
Flags: W
TeX: 84 0
LayerCount: 2
Fore
SplineSet
61 0 m 1
 61 739 l 1
 295 739 l 0
 343 739 393 739 443 714 c 0
 517 678 556 606 556 530 c 0
 556 436 498 354 412 323 c 1
 586 0 l 1
 458 0 l 1
 295 311 l 1
 176 311 l 1
 176 0 l 1
 61 0 l 1
295 631 m 0
 176 631 l 1
 176 415 l 1
 304 415 l 0
 333 415 358 415 383 427 c 0
 420 444 440 481 440 520 c 0
 440 560 419 598 379 617 c 0
 352 629 326 631 295 631 c 0
EndSplineSet
EndChar

StartChar: X
Encoding: 88 88 102
Width: 613
Flags: W
TeX: 90 0
LayerCount: 2
Fore
SplineSet
307 476 m 1
 451 740 l 1
 568 740 l 1
 373 379 l 1
 591 0 l 1
 463 0 l 1
 308 277 l 1
 159 0 l 1
 33 0 l 1
 243 377 l 1
 37 740 l 1
 161 740 l 1
 307 476 l 1
EndSplineSet
EndChar

StartChar: six
Encoding: 54 54 103
Width: 613
Flags: W
TeX: 118 0
LayerCount: 2
Fore
SplineSet
107 562 m 1
 154 691 256 748 351 748 c 0
 415 748 478 721 524 675 c 0
 534 665 l 1
 458 581 l 1
 447 589 l 0
 430 602 427 617 427 617 c 0
 424 620 395 643 351 643 c 0
 308 643 207 623 190 436 c 1
 226 472 276 493 329 493 c 0
 443 493 547 399 547 243 c 0
 547 88 443 -12 321 -12 c 0
 250 -12 179 22 133 89 c 0
 83 162 75 254 75 338 c 0
 75 407 80 491 107 562 c 1
435 238 m 0
 435 353 371 389 321 389 c 0
 275 389 223 357 191 305 c 1
 190 297 190 291 190 283 c 0
 190 169 253 92 324 92 c 0
 377 92 435 135 435 238 c 0
EndSplineSet
EndChar

StartChar: nine
Encoding: 57 57 104
Width: 613
Flags: W
TeX: 113 0
LayerCount: 2
Fore
SplineSet
512 163 m 1
 465 44 365 -12 268 -12 c 0
 202 -12 141 14 94 60 c 0
 83 70 l 1
 159 154 l 1
 170 147 l 0
 190 134 191 118 191 118 c 1
 195 115 225 94 270 94 c 0
 318 94 374 116 403 178 c 1
 409 192 423 228 429 305 c 1
 392 271 345 253 294 253 c 0
 177 253 76 349 76 494 c 0
 76 640 177 746 303 746 c 0
 386 746 477 697 518 582 c 1
 536 532 545 468 545 378 c 0
 545 260 525 197 512 163 c 1
187 497 m 0
 187 399 246 356 302 356 c 0
 348 356 397 385 427 432 c 1
 428 444 429 452 429 461 c 0
 429 578 366 642 301 642 c 0
 244 642 187 594 187 497 c 0
EndSplineSet
EndChar

StartChar: seven
Encoding: 55 55 105
Width: 613
Flags: W
TeX: 118 0
LayerCount: 2
Fore
SplineSet
88 630 m 1
 88 739 l 1
 538 739 l 1
 538 677 l 1
 536 674 l 0
 486 564 439 454 396 342 c 0
 354 233 315 122 279 10 c 0
 276 0 l 1
 150 0 l 1
 156 19 l 0
 200 146 248 272 298 397 c 0
 330 475 363 554 397 630 c 1
 88 630 l 1
EndSplineSet
EndChar

StartChar: W
Encoding: 87 87 106
Width: 613
Flags: W
TeX: 89 0
LayerCount: 2
Fore
SplineSet
136 -5 m 1
 13 739 l 1
 121 739 l 1
 191 298 l 1
 294 685 l 1
 344 685 l 1
 447 300 l 1
 506 739 l 1
 607 739 l 1
 485 -5 l 1
 427 -5 l 1
 312 438 l 1
 195 -5 l 1
 136 -5 l 1
EndSplineSet
EndChar

StartChar: acute
Encoding: 180 180 107
Width: 613
Flags: W
TeX: 80 0
LayerCount: 2
Fore
SplineSet
231 635 m 1
 351 836 l 1
 453 768 l 1
 315 584 l 1
 231 635 l 1
EndSplineSet
EndChar

StartChar: oslash
Encoding: 248 248 123
Width: 613
Flags: W
TeX: 114 0
LayerCount: 2
Fore
SplineSet
349 444 m 1
 335 449 323 451 309 451 c 0
 236 451 164 386 164 259 c 0
 164 214 174 176 188 147 c 1
 349 444 l 1
487 487 m 1
 539 438 572 365 572 269 c 0
 572 91 450 -14 312 -14 c 0
 276 -14 239 -6 209 7 c 1
 161 -81 l 1
 72 -35 l 1
 127 60 l 1
 75 111 43 182 43 266 c 0
 43 432 167 554 315 554 c 0
 344 554 374 548 401 538 c 1
 445 621 l 1
 536 573 l 1
 487 487 l 1
455 280 m 0
 455 333 443 374 427 405 c 1
 261 102 l 1
 279 94 295 90 313 90 c 0
 382 90 455 150 455 280 c 0
EndSplineSet
EndChar

StartChar: uni02CB
Encoding: 715 715 130
Width: 613
Flags: W
TeX: 80 0
LayerCount: 2
Fore
SplineSet
202 768 m 1
 304 836 l 1
 425 635 l 1
 340 584 l 1
 202 768 l 1
EndSplineSet
EndChar

StartChar: dotlessi
Encoding: 305 305 136
Width: 613
Flags: W
TeX: 80 0
LayerCount: 2
Fore
SplineSet
121 442 m 1
 121 543 l 1
 369 543 l 1
 369 99 l 1
 496 99 l 1
 496 0 l 1
 114 0 l 1
 114 99 l 1
 252 99 l 1
 252 442 l 1
 121 442 l 1
EndSplineSet
EndChar

StartChar: circumflex
Encoding: 710 710 137
Width: 613
Flags: W
TeX: 80 0
LayerCount: 2
Fore
SplineSet
216 567 m 1
 148 629 l 1
 294 813 l 1
 334 813 l 1
 480 627 l 1
 399 567 l 1
 310 686 l 1
 216 567 l 1
EndSplineSet
EndChar

StartChar: tilde
Encoding: 732 732 138
Width: 613
Flags: W
TeX: 80 0
LayerCount: 2
Fore
SplineSet
184 669 m 0
 175 655 l 1
 97 711 l 1
 105 723 l 0
 150 774 198 802 252 802 c 0
 308 802 343 776 358 766 c 0
 378 753 392 744 406 744 c 0
 424 744 435 753 463 770 c 0
 474 785 l 1
 539 745 l 1
 531 735 l 0
 490 684 455 645 402 645 c 0
 320 645 285 704 249 704 c 0
 228 704 214 695 184 669 c 0
EndSplineSet
EndChar

StartChar: dieresis
Encoding: 168 168 139
Width: 613
Flags: W
TeX: 80 0
LayerCount: 2
Fore
SplineSet
347 712 m 0
 347 754 381 789 423 789 c 0
 465 789 499 754 499 712 c 0
 499 670 465 636 423 636 c 0
 381 636 347 670 347 712 c 0
115 712 m 0
 115 754 149 788 191 788 c 0
 233 788 268 754 268 712 c 0
 268 670 233 636 191 636 c 0
 149 636 115 670 115 712 c 0
EndSplineSet
EndChar

StartChar: germandbls
Encoding: 223 223 144
Width: 613
Flags: W
TeX: 105 0
LayerCount: 2
Fore
SplineSet
172 0 m 1
 60 0 l 1
 60 494 l 0
 60 546 61 600 87 656 c 0
 126 744 207 794 294 794 c 0
 421 794 525 691 525 569 c 0
 525 509 496 456 449 422 c 1
 529 385 577 307 577 218 c 0
 577 88 473 -12 343 -12 c 0
 296 -12 251 1 212 27 c 0
 199 35 l 1
 258 129 l 1
 272 119 l 0
 292 103 316 94 342 94 c 0
 408 94 467 149 467 222 c 0
 467 275 436 321 396 345 c 0
 366 363 338 366 300 366 c 0
 249 366 l 1
 249 458 l 1
 298 458 l 0
 316 458 329 458 346 465 c 0
 384 481 413 525 413 572 c 0
 413 642 360 694 299 694 c 0
 265 694 229 678 204 642 c 0
 174 600 172 545 172 495 c 0
 172 0 l 1
EndSplineSet
EndChar

StartChar: paragraph
Encoding: 182 182 145
Width: 613
Flags: W
TeX: 115 0
LayerCount: 2
Fore
SplineSet
369 790 m 0
 553 790 l 1
 553 -81 l 1
 454 -81 l 1
 454 691 l 1
 374 691 l 1
 374 -81 l 1
 272 -81 l 1
 272 367 l 1
 151 381 60 472 60 580 c 0
 60 656 107 728 191 763 c 0
 252 789 314 790 369 790 c 0
EndSplineSet
EndChar

StartChar: section
Encoding: 167 167 146
Width: 613
Flags: W
TeX: 118 0
LayerCount: 2
Fore
SplineSet
513 684 m 0
 519 674 l 1
 434 598 l 1
 424 605 l 0
 408 617 409 637 409 637 c 0
 401 659 371 696 316 696 c 0
 260 696 223 661 223 623 c 0
 223 605 231 576 278 552 c 0
 309 536 354 526 404 503 c 0
 490 463 521 409 521 361 c 0
 521 313 490 273 447 248 c 1
 490 212 510 164 510 118 c 0
 510 20 420 -65 293 -65 c 0
 209 -65 128 -26 75 43 c 0
 67 53 l 1
 145 143 l 1
 155 139 l 0
 175 131 174 110 174 110 c 1
 177 102 214 45 293 45 c 0
 359 45 394 83 394 120 c 0
 394 141 383 167 347 188 c 0
 302 213 235 218 172 254 c 0
 116 286 89 332 89 377 c 0
 89 428 123 471 170 495 c 1
 125 531 106 577 106 620 c 0
 106 716 197 797 315 797 c 0
 399 797 474 753 513 684 c 0
342 421 m 0
 315 434 280 442 244 456 c 1
 221 446 206 425 206 399 c 0
 206 378 216 347 261 325 c 0
 292 310 331 304 373 288 c 1
 391 300 402 319 402 342 c 0
 402 364 392 396 342 421 c 0
EndSplineSet
EndChar

StartChar: copyright
Encoding: 169 169 147
Width: 613
Flags: W
TeX: 101 0
LayerCount: 2
Fore
SplineSet
131 327 m 0
 131 437 217 518 321 518 c 0
 402 518 467 467 484 397 c 0
 487 384 l 1
 403 351 l 1
 396 360 l 0
 383 375 388 390 388 390 c 0
 387 394 374 428 324 428 c 0
 274 428 228 399 228 335 c 0
 228 270 273 222 325 222 c 0
 356 222 385 239 400 267 c 0
 408 282 l 1
 487 230 l 1
 479 217 l 0
 443 163 384 129 320 129 c 0
 214 129 131 220 131 327 c 0
616 311 m 0
 616 133 480 -8 314 -8 c 0
 148 -8 11 133 11 310 c 0
 11 488 148 629 314 629 c 0
 480 629 616 488 616 311 c 0
316 548 m 0
 198 548 96 445 96 310 c 0
 96 176 196 74 315 74 c 0
 433 74 535 176 535 311 c 0
 535 445 434 548 316 548 c 0
EndSplineSet
EndChar

StartChar: registered
Encoding: 174 174 148
Width: 613
Flags: W
TeX: 117 0
LayerCount: 2
Fore
SplineSet
307 440 m 2
 264 440 l 1
 264 367 l 1
 310 367 l 2
 330 367 350 367 363 376 c 2
 364 377 l 1
 364 377 l 2
 375 383 380 392 380 403 c 0
 380 413 375 424 361 432 c 0
 347 440 327 440 307 440 c 2
179 512 m 1
 129 469 96 403 96 326 c 0
 96 192 196 89 315 89 c 0
 370 89 422 112 461 149 c 1
 392 139 l 1
 317 289 l 1
 264 289 l 1
 264 142 l 1
 179 142 l 1
 179 512 l 1
616 310 m 0
 616 132 479 -8 313 -8 c 0
 147 -8 11 132 11 309 c 0
 11 487 147 629 314 629 c 0
 480 629 616 488 616 310 c 0
315 548 m 0
 268 548 224 532 188 504 c 1
 306 504 l 2
 333 504 363 504 394 491 c 0
 440 471 465 430 465 388 c 0
 465 345 439 307 402 289 c 1
 474 148 l 1
 511 190 535 247 535 311 c 0
 535 445 434 548 315 548 c 0
EndSplineSet
EndChar

StartChar: uni00B9
Encoding: 185 185 149
Width: 613
Flags: W
TeX: 120 0
LayerCount: 2
Fore
SplineSet
380 751 m 1
 380 300 l 1
 273 300 l 1
 273 637 l 1
 166 609 l 1
 134 670 l 1
 309 751 l 1
 380 751 l 1
EndSplineSet
EndChar

StartChar: guilsinglleft
Encoding: 8249 8249 150
Width: 613
Flags: W
TeX: 80 0
LayerCount: 2
Fore
SplineSet
167 307 m 1
 363 486 l 1
 430 415 l 1
 287 285 l 1
 438 130 l 1
 369 61 l 1
 167 266 l 1
 167 307 l 1
EndSplineSet
EndChar

StartChar: guilsinglright
Encoding: 8250 8250 152
Width: 613
Flags: W
TeX: 80 0
LayerCount: 2
Fore
SplineSet
432 307 m 1
 432 266 l 1
 230 61 l 1
 161 130 l 1
 312 285 l 1
 169 415 l 1
 236 486 l 1
 432 307 l 1
EndSplineSet
EndChar

StartChar: guillemotright
Encoding: 187 187 153
Width: 613
Flags: W
TeX: 105 0
LayerCount: 2
Fore
SplineSet
340 307 m 1
 340 266 l 1
 138 61 l 1
 69 130 l 1
 220 285 l 1
 77 415 l 1
 144 486 l 1
 340 307 l 1
555 307 m 1
 555 266 l 1
 353 61 l 1
 284 130 l 1
 435 285 l 1
 292 415 l 1
 359 486 l 1
 555 307 l 1
EndSplineSet
EndChar

StartChar: logicalnot
Encoding: 172 172 154
Width: 613
Flags: W
TeX: 111 0
LayerCount: 2
Fore
SplineSet
103 322 m 1
 103 427 l 1
 517 427 l 1
 517 171 l 1
 411 171 l 1
 411 322 l 1
 103 322 l 1
EndSplineSet
EndChar

StartChar: degree
Encoding: 176 176 156
Width: 613
Flags: W
TeX: 102 0
LayerCount: 2
Fore
SplineSet
314 758 m 0
 411 758 489 686 489 598 c 0
 489 510 411 439 314 439 c 0
 217 439 138 511 138 599 c 0
 138 687 217 758 314 758 c 0
388 600 m 0
 388 637 354 665 315 665 c 0
 276 665 242 637 242 600 c 0
 242 563 276 535 315 535 c 0
 354 535 388 563 388 600 c 0
EndSplineSet
EndChar

StartChar: uni00B2
Encoding: 178 178 157
Width: 613
Flags: W
TeX: 120 0
LayerCount: 2
Fore
SplineSet
122 637 m 1
 129 650 l 2
 167 717 240 756 317 756 c 0
 418 756 490 698 490 625 c 0
 490 569 447 531 430 517 c 0
 387 477 333 449 277 395 c 1
 457 395 l 0
 458 395 l 1
 459 396 458 395 459 396 c 0
 460 397 472 411 490 405 c 0
 501 401 l 1
 501 300 l 1
 138 300 l 1
 138 373 l 1
 141 377 l 0
 209 462 299 515 333 540 c 0
 367 565 388 588 388 613 c 0
 388 638 364 664 314 664 c 0
 274 664 239 643 221 620 c 0
 218 616 219 613 211 598 c 0
 203 583 l 1
 122 637 l 1
EndSplineSet
EndChar

StartChar: eth
Encoding: 240 240 158
Width: 613
Flags: W
TeX: 103 0
LayerCount: 2
Fore
SplineSet
455 275 m 0
 455 420 367 451 313 451 c 0
 242 451 164 397 164 275 c 0
 164 153 238 90 313 90 c 0
 371 90 455 129 455 275 c 0
544 680 m 1
 449 653 l 1
 517 572 572 458 572 301 c 0
 572 239 565 164 524 99 c 0
 478 25 398 -14 314 -14 c 0
 168 -14 43 103 43 265 c 0
 43 426 163 554 305 554 c 0
 341 554 377 545 407 528 c 1
 388 563 366 594 341 622 c 1
 185 578 l 1
 153 664 l 1
 263 694 l 1
 233 716 203 734 169 749 c 0
 125 768 l 1
 274 799 l 1
 279 796 l 0
 308 779 345 755 379 725 c 1
 512 762 l 1
 544 680 l 1
EndSplineSet
EndChar

StartChar: Eth
Encoding: 208 208 159
Width: 613
Flags: W
TeX: 71 0
LayerCount: 2
Fore
SplineSet
88 441 m 1
 88 739 l 1
 269 739 l 0
 334 739 390 733 445 694 c 1
 540 627 579 497 579 374 c 0
 579 220 518 77 396 22 c 1
 351 2 308 -1 255 -1 c 0
 88 -1 l 1
 88 342 l 1
 31 342 l 1
 31 441 l 1
 88 441 l 1
319 342 m 1
 196 342 l 1
 196 98 l 1
 251 98 l 0
 293 98 328 100 366 125 c 0
 430 167 468 256 468 364 c 0
 468 441 450 524 408 578 c 0
 362 638 310 639 264 639 c 0
 196 639 l 1
 196 441 l 1
 319 441 l 1
 319 342 l 1
EndSplineSet
EndChar

StartChar: Thorn
Encoding: 222 222 160
Width: 613
Flags: W
TeX: 86 0
LayerCount: 2
Fore
SplineSet
65 0 m 1
 65 739 l 1
 184 739 l 1
 188 729 l 0
 189 726 189 722 189 719 c 0
 189 706 181 699 180 697 c 0
 178 695 179 696 179 692 c 0
 179 604 l 1
 305 604 l 0
 353 604 402 602 452 577 c 0
 528 539 566 463 566 386 c 0
 566 308 528 234 454 197 c 0
 405 173 357 172 311 172 c 0
 179 172 l 1
 179 0 l 1
 65 0 l 1
305 507 m 0
 179 507 l 1
 179 275 l 1
 314 275 l 0
 343 275 368 276 393 289 c 0
 430 308 451 346 451 388 c 0
 451 431 429 473 389 493 c 0
 362 506 336 507 305 507 c 0
EndSplineSet
EndChar

StartChar: ring
Encoding: 730 730 161
Width: 613
Flags: W
TeX: 80 0
LayerCount: 2
Fore
SplineSet
314 822 m 0
 378 822 429 774 429 715 c 0
 429 656 378 607 314 607 c 0
 250 607 200 656 200 715 c 0
 200 774 250 822 314 822 c 0
315 761 m 0
 292 761 272 742 272 716 c 0
 272 690 292 671 315 671 c 0
 338 671 358 690 358 716 c 0
 358 742 338 761 315 761 c 0
EndSplineSet
EndChar

StartChar: circumflex.cap
Encoding: 65536 -1 190
Width: 613
Flags: W
TeX: 80 0
LayerCount: 2
Fore
SplineSet
176 600 m 1
 123 662 l 1
 296 793 l 1
 332 793 l 1
 495 664 l 1
 437 596 l 1
 311 682 l 1
 176 600 l 1
EndSplineSet
EndChar

StartChar: ae
Encoding: 230 230 192
Width: 613
Flags: W
TeX: 99 0
LayerCount: 2
Fore
SplineSet
27 473 m 1
 35 483 l 2
 72 529 127 554 184 554 c 0
 238 554 286 529 316 492 c 1
 347 531 393 554 441 554 c 0
 489 554 542 533 573 482 c 1
 607 430 607 369 607 319 c 0
 607 262 l 1
 360 253 l 1
 360 215 l 0
 360 188 361 169 371 148 c 1
 389 110 428 87 468 87 c 0
 498 87 525 100 543 124 c 0
 554 139 l 1
 617 66 l 1
 609 56 l 0
 572 13 519 -13 462 -13 c 0
 404 -13 350 13 314 56 c 1
 283 12 233 -13 178 -13 c 0
 84 -13 7 60 7 151 c 0
 7 214 45 281 125 315 c 1
 172 335 216 337 245 338 c 1
 257 338 l 1
 257 353 l 0
 257 373 256 390 250 406 c 1
 238 439 209 457 178 457 c 0
 151 457 121 440 102 412 c 0
 90 395 l 1
 27 473 l 1
257 173 m 0
 257 244 l 1
 247 244 l 1
 216 243 189 242 162 228 c 1
 130 211 114 180 114 152 c 0
 114 109 147 75 186 75 c 0
 213 75 240 90 251 120 c 1
 256 135 257 151 257 173 c 0
360 336 m 0
 360 331 l 1
 508 337 l 1
 508 346 l 0
 508 371 508 393 498 414 c 1
 486 442 463 457 440 457 c 0
 417 457 396 442 380 419 c 0
 361 391 360 364 360 336 c 0
EndSplineSet
EndChar

StartChar: oe
Encoding: 339 339 193
Width: 613
Flags: W
TeX: 114 0
LayerCount: 2
Fore
SplineSet
125 396 m 0
 107 361 104 321 104 290 c 0
 104 254 107 201 121 160 c 1
 139 105 175 90 203 90 c 0
 229 90 248 103 248 118 c 0
 248 127 232 184 232 280 c 0
 232 362 243 406 243 418 c 0
 243 437 226 451 201 451 c 0
 175 451 144 434 125 396 c 0
349 410 m 0
 347 403 339 383 338 345 c 1
 506 345 l 1
 506 350 l 2
 506 378 505 404 490 424 c 2
 490 425 l 1
 489 425 l 2
 475 447 449 458 423 458 c 0
 397 458 365 447 349 410 c 0
38 452 m 0
 75 520 140 553 202 553 c 0
 245 553 285 536 313 506 c 1
 346 537 388 553 432 553 c 0
 493 553 561 523 590 446 c 0
 605 405 607 359 607 315 c 2
 607 247 l 1
 337 247 l 1
 338 184 342 159 353 136 c 0
 371 97 407 80 447 80 c 0
 479 80 516 90 543 119 c 2
 555 132 l 1
 618 60 l 1
 608 51 l 2
 565 10 507 -14 445 -14 c 0
 396 -14 350 1 311 30 c 1
 277 2 236 -13 193 -13 c 0
 141 -13 75 12 36 86 c 0
 5 146 2 220 2 280 c 0
 2 332 6 396 38 452 c 0
EndSplineSet
EndChar

StartChar: acute.cap
Encoding: 65538 -1 194
Width: 613
Flags: W
TeX: 80 0
LayerCount: 2
Fore
SplineSet
194 712 m 1
 402 803 l 1
 466 722 l 1
 236 639 l 1
 194 712 l 1
EndSplineSet
EndChar

StartChar: grave.cap
Encoding: 65539 -1 195
Width: 613
Flags: W
TeX: 80 0
LayerCount: 2
Fore
SplineSet
187 722 m 1
 250 803 l 1
 458 712 l 1
 417 639 l 1
 187 722 l 1
EndSplineSet
EndChar

StartChar: ordfeminine
Encoding: 170 170 196
Width: 613
Flags: W
TeX: 114 0
LayerCount: 2
Fore
SplineSet
135 657 m 1
 144 666 l 2
 191 719 256 738 315 738 c 0
 383 738 445 711 473 652 c 1
 487 622 487 591 487 560 c 0
 487 300 l 1
 382 300 l 1
 382 323 l 1
 348 301 309 290 270 290 c 0
 181 290 116 350 116 421 c 0
 116 463 140 509 194 537 c 1
 242 563 297 564 347 564 c 0
 358 564 369 564 379 564 c 0
 381 564 l 1
 381 586 380 600 370 616 c 0
 360 632 341 644 308 644 c 0
 270 644 232 630 209 598 c 0
 197 582 l 1
 135 657 l 1
384 468 m 0
 384 472 l 1
 380 472 l 0
 366 472 350 472 335 472 c 0
 316 472 296 472 281 470 c 1
 235 463 223 440 223 425 c 0
 223 405 244 385 283 385 c 0
 314 385 344 398 362 413 c 1
 383 430 384 445 384 468 c 0
85 165 m 1
 85 260 l 1
 530 260 l 1
 530 165 l 1
 85 165 l 1
EndSplineSet
EndChar

StartChar: ordmasculine
Encoding: 186 186 197
Width: 613
Flags: W
TeX: 114 0
LayerCount: 2
Fore
SplineSet
108 505 m 0
 108 643 200 738 309 738 c 0
 404 738 497 663 497 519 c 0
 497 364 398 289 302 289 c 0
 198 289 108 373 108 505 c 0
303 641 m 0
 260 641 211 603 211 511 c 0
 211 423 262 388 304 388 c 0
 345 388 395 420 395 511 c 0
 395 602 346 641 303 641 c 0
85 165 m 1
 85 260 l 1
 530 260 l 1
 530 165 l 1
 85 165 l 1
EndSplineSet
EndChar

StartChar: uni02C9
Encoding: 713 713 198
Width: 613
Flags: W
TeX: 80 0
LayerCount: 2
Fore
SplineSet
141 640 m 1
 141 737 l 1
 473 737 l 1
 473 640 l 1
 141 640 l 1
EndSplineSet
EndChar

StartChar: cedilla
Encoding: 184 184 201
Width: 613
Flags: W
TeX: 80 0
LayerCount: 2
Fore
SplineSet
300 -114 m 1
 315 0 l 1
 379 0 l 1
 372 -54 l 1
 385 -54 l 1
 400 -55 417 -56 434 -63 c 1
 459 -75 472 -97 472 -121 c 0
 472 -165 426 -210 337 -210 c 0
 291 -210 238 -197 193 -165 c 0
 188 -161 l 1
 225 -101 l 1
 230 -106 l 0
 266 -135 309 -146 344 -146 c 0
 388 -146 392 -134 392 -130 c 0
 392 -126 389 -122 382 -119 c 0
 382 -119 l 1
 382 -119 l 0
 372 -114 355 -114 342 -114 c 0
 300 -114 l 1
EndSplineSet
EndChar

StartChar: uni00B3
Encoding: 179 179 204
Width: 613
Flags: W
TeX: 120 0
LayerCount: 2
Fore
SplineSet
147 678 m 0
 190 729 252 757 316 757 c 0
 411 757 487 702 487 633 c 0
 487 601 469 573 443 555 c 1
 483 534 507 495 507 450 c 0
 507 360 411 298 312 298 c 0
 243 298 177 328 132 380 c 0
 123 390 l 1
 198 474 l 1
 210 462 l 0
 227 444 222 434 226 430 c 0
 231 425 263 395 313 395 c 0
 367 395 403 427 403 457 c 0
 403 470 398 507 314 507 c 0
 302 507 291 506 280 505 c 0
 263 503 l 1
 263 596 l 1
 280 595 l 0
 287 594 295 594 302 594 c 0
 375 594 386 614 386 626 c 0
 386 643 359 664 312 664 c 0
 277 664 240 646 214 614 c 0
 203 600 l 1
 138 667 l 1
 147 678 l 0
EndSplineSet
EndChar

StartChar: divide
Encoding: 247 247 205
Width: 613
Flags: W
TeX: 102 0
LayerCount: 2
Fore
SplineSet
79 318 m 1
 79 428 l 1
 537 428 l 1
 537 318 l 1
 79 318 l 1
313 607 m 0
 351 607 382 577 382 539 c 0
 382 501 351 470 313 470 c 0
 275 470 245 501 245 539 c 0
 245 577 275 607 313 607 c 0
313 257 m 0
 351 257 382 226 382 188 c 0
 382 150 351 120 313 120 c 0
 275 120 245 150 245 188 c 0
 245 226 275 257 313 257 c 0
EndSplineSet
EndChar

StartChar: Oslash
Encoding: 216 216 206
Width: 613
Flags: W
TeX: 81 0
LayerCount: 2
Fore
SplineSet
390 608 m 1
 362 631 334 639 308 639 c 0
 241 639 142 582 142 366 c 0
 142 292 153 234 169 192 c 1
 390 608 l 1
538 606 m 0
 580 526 585 435 585 368 c 0
 585 305 580 214 539 134 c 0
 488 34 398 -11 312 -11 c 0
 270 -11 223 1 179 29 c 1
 121 -80 l 1
 32 -34 l 1
 104 96 l 1
 59 158 30 246 30 370 c 0
 30 656 192 748 311 748 c 0
 356 748 402 735 443 708 c 1
 496 808 l 1
 587 760 l 1
 519 637 l 1
 527 626 532 617 538 606 c 0
471 373 m 0
 471 427 468 485 452 538 c 1
 233 129 l 1
 259 109 286 100 312 100 c 0
 356 100 408 125 440 192 c 0
 468 252 471 325 471 373 c 0
EndSplineSet
EndChar

StartChar: multiply
Encoding: 215 215 207
Width: 613
Flags: W
TeX: 112 0
LayerCount: 2
Fore
SplineSet
463 607 m 1
 542 534 l 1
 388 386 l 1
 539 226 l 1
 461 150 l 1
 312 308 l 1
 164 155 l 1
 89 229 l 1
 239 385 l 1
 89 532 l 1
 167 608 l 1
 314 453 l 1
 463 607 l 1
EndSplineSet
EndChar

StartChar: AE
Encoding: 198 198 208
Width: 613
Flags: W
TeX: 67 0
LayerCount: 2
Fore
SplineSet
-6 0 m 1
 237 740 l 1
 600 740 l 1
 600 636 l 1
 394 636 l 1
 396 439 l 1
 569 439 l 1
 569 333 l 1
 397 333 l 1
 399 104 l 1
 597 104 l 1
 597 0 l 1
 294 0 l 1
 294 185 l 1
 166 185 l 1
 102 0 l 1
 -6 0 l 1
294 285 m 1
 294 608 l 1
 193 285 l 1
 294 285 l 1
EndSplineSet
EndChar

StartChar: OE
Encoding: 338 338 209
Width: 613
Flags: W
TeX: 81 0
LayerCount: 2
Fore
SplineSet
213 750 m 0
 243 750 271 740 295 724 c 1
 295 740 l 1
 600 740 l 1
 600 636 l 1
 399 636 l 1
 399 439 l 1
 569 439 l 1
 569 333 l 1
 399 333 l 1
 399 104 l 1
 597 104 l 1
 597 0 l 1
 294 0 l 1
 294 17 l 1
 270 0 242 -8 212 -8 c 0
 146 -8 68 36 33 147 c 1
 29 162 6 236 6 371 c 0
 6 467 14 551 47 626 c 0
 88 718 159 750 213 750 c 0
135 571 m 1
 127 552 113 501 113 384 c 0
 113 352 113 237 144 164 c 0
 169 106 202 95 222 95 c 0
 254 95 283 123 294 167 c 1
 294 563 l 1
 281 603 252 650 213 650 c 0
 188 650 156 630 135 571 c 1
EndSplineSet
EndChar

StartChar: currency
Encoding: 164 164 210
Width: 613
Flags: W
TeX: 80 0
LayerCount: 2
Fore
SplineSet
412 402 m 0
 412 455 365 498 308 498 c 0
 251 498 204 455 204 402 c 0
 204 349 251 306 308 306 c 0
 365 306 412 349 412 402 c 0
138 502 m 1
 69 568 l 1
 133 632 l 1
 202 563 l 1
 234 583 269 594 308 594 c 0
 346 594 382 583 413 564 c 1
 480 632 l 1
 544 568 l 1
 477 504 l 1
 497 473 508 438 508 401 c 0
 508 364 496 329 477 300 c 1
 544 235 l 1
 480 173 l 1
 413 239 l 1
 382 220 346 210 308 210 c 0
 268 210 232 222 202 240 c 1
 133 173 l 1
 69 235 l 1
 138 301 l 1
 119 331 109 364 109 401 c 0
 109 438 120 473 138 502 c 1
EndSplineSet
EndChar

StartChar: brokenbar
Encoding: 166 166 211
Width: 613
Flags: W
TeX: 80 0
LayerCount: 2
Fore
SplineSet
252 319 m 1
 252 774 l 1
 362 774 l 1
 362 319 l 1
 252 319 l 1
362 248 m 1
 362 -195 l 1
 252 -195 l 1
 252 248 l 1
 362 248 l 1
EndSplineSet
EndChar

StartChar: ogonek
Encoding: 731 731 214
Width: 613
Flags: W
TeX: 80 0
LayerCount: 2
Fore
SplineSet
428 -1 m 0
 430 0 l 1
 527 0 l 1
 515 -11 l 0
 475 -44 446 -73 436 -83 c 0
 428 -92 418 -103 418 -117 c 0
 418 -131 428 -142 446 -142 c 0
 452 -142 461 -140 473 -136 c 0
 491 -130 502 -122 509 -116 c 0
 519 -108 l 1
 519 -178 l 1
 517 -180 l 0
 492 -201 461 -209 431 -209 c 0
 367 -209 332 -176 332 -135 c 0
 332 -96 366 -49 428 -1 c 0
EndSplineSet
EndChar

StartChar: dotaccent
Encoding: 729 729 222
Width: 613
Flags: W
TeX: 80 0
LayerCount: 2
Fore
SplineSet
236 702 m 0
 236 744 270 778 312 778 c 0
 354 778 388 744 388 702 c 0
 388 660 354 626 312 626 c 0
 270 626 236 660 236 702 c 0
EndSplineSet
EndChar

StartChar: breve
Encoding: 728 728 241
Width: 613
Flags: W
LayerCount: 2
Fore
SplineSet
174 778 m 1
 186 760 l 2
 211 728 256 698 307 698 c 0
 350 698 396 720 435 760 c 0
 448 777 l 1
 500 707 l 1
 494 699 l 0
 452 646 385 606 307 606 c 0
 237 606 167 640 118 695 c 0
 110 704 l 1
 174 778 l 1
EndSplineSet
EndChar

StartChar: eng
Encoding: 331 331 242
Width: 613
Flags: W
LayerCount: 2
Fore
SplineSet
194 0 m 1
 76 0 l 1
 76 542 l 1
 194 542 l 1
 194 476 l 1
 236 522 294 555 358 555 c 0
 426 555 488 518 517 455 c 0
 538 410 538 365 538 325 c 0
 538 75 l 0
 538 28 537 -23 515 -74 c 0
 480 -161 403 -209 322 -209 c 0
 277 -209 232 -194 196 -166 c 0
 186 -158 l 1
 239 -56 l 1
 250 -59 l 0
 267 -63 270 -79 270 -80 c 1
 276 -85 297 -98 324 -98 c 0
 352 -98 380 -85 399 -55 c 0
 422 -22 423 22 423 62 c 0
 423 319 l 0
 423 355 422 395 397 423 c 0
 381 442 358 450 335 450 c 0
 286 450 236 409 217 385 c 0
 197 360 194 340 194 307 c 0
 194 0 l 1
EndSplineSet
EndChar

StartChar: dcaron
Encoding: 271 271 245
Width: 613
Flags: W
LayerCount: 2
Fore
SplineSet
226 556 m 0
 279 556 327 533 361 497 c 1
 361 790 l 1
 473 790 l 1
 473 63 l 0
 473 48 474 33 478 19 c 0
 483 0 l 1
 367 0 l 1
 363 11 l 0
 358 27 357 42 357 55 c 0
 357 55 244 -12 215 -12 c 0
 88 -12 -5 113 -5 275 c 0
 -5 450 106 556 226 556 c 0
338 390 m 0
 317 430 267 456 230 456 c 0
 166 456 108 389 108 285 c 0
 108 185 160 94 233 94 c 0
 272 94 310 120 330 151 c 0
 351 183 355 217 355 262 c 0
 355 329 353 361 338 390 c 0
EndSplineSet
Refer: 56 8217 N 0.8 0 0 0.8 314 191 2
EndChar

StartChar: eogonek
Encoding: 281 281 246
Width: 613
Flags: W
LayerCount: 2
Fore
SplineSet
311 459 m 0
 261 459 192 433 172 340 c 1
 437 340 l 1
 437 342 437 342 437 343 c 0
 437 407 384 459 311 459 c 0
52 266 m 0
 52 461 179 555 317 555 c 0
 411 555 521 506 547 360 c 0
 551 340 553 317 553 295 c 0
 553 282 552 270 551 257 c 2
 550 244 l 1
 167 244 l 1
 180 116 270 87 335 87 c 0
 385 87 431 106 464 143 c 2
 474 155 l 1
 543 88 l 1
 534 77 l 1
 489 21 l 2
 448 -30 412 -67 412 -98 c 0
 412 -122 428 -138 452 -138 c 0
 457 -138 477 -138 510 -117 c 2
 519 -111 l 1
 518 -184 l 1
 515 -186 l 2
 492 -199 463 -208 434 -208 c 0
 372 -208 330 -165 330 -113 c 0
 330 -80 347 -44 380 -8 c 1
 363 -11 346 -12 328 -12 c 0
 174 -12 52 87 52 266 c 0
EndSplineSet
EndChar

StartChar: dotlessj
Encoding: 567 567 259
Width: 613
Flags: W
LayerCount: 2
Fore
SplineSet
144 441 m 1
 144 543 l 1
 463 543 l 1
 463 47 l 0
 463 2 462 -43 437 -90 c 0
 397 -168 315 -207 233 -207 c 0
 161 -207 98 -177 56 -125 c 0
 48 -116 l 1
 120 -20 l 1
 133 -30 l 0
 147 -41 146 -56 146 -56 c 0
 149 -60 181 -102 239 -102 c 0
 279 -102 316 -81 334 -43 c 0
 346 -19 346 5 346 32 c 0
 346 441 l 1
 144 441 l 1
EndSplineSet
EndChar

StartChar: kgreenlandic
Encoding: 312 312 260
Width: 613
Flags: W
LayerCount: 2
Fore
SplineSet
74 -1 m 1
 74 542 l 1
 199 542 l 1
 202 529 l 0
 202 527 202 526 202 524 c 0
 202 510 192 501 191 499 c 0
 189 497 190 500 190 496 c 0
 190 313 l 1
 442 546 l 1
 450 544 l 0
 469 539 490 539 510 539 c 0
 579 539 l 1
 333 319 l 1
 611 -1 l 1
 578 -1 l 0
 575 -1 573 -1 570 -1 c 0
 514 -1 469 -5 469 -5 c 0
 461 -6 l 1
 245 264 l 1
 190 213 l 1
 190 -1 l 1
 74 -1 l 1
EndSplineSet
EndChar

StartChar: uparrow
Encoding: 8593 8593 266
Width: 613
Flags: W
LayerCount: 2
Fore
SplineSet
58 477 m 1
 295 760 l 1
 335 760 l 1
 555 473 l 1
 470 416 l 1
 364 561 l 1
 364 -40 l 1
 254 -40 l 1
 254 565 l 1
 133 416 l 1
 58 477 l 1
EndSplineSet
EndChar

StartChar: visiblespace
Encoding: 9251 9251 268
Width: 613
Flags: W
LayerCount: 2
Fore
SplineSet
52 -109 m 1
 52 83 l 1
 138 83 l 1
 138 -25 l 1
 474 -25 l 1
 474 83 l 1
 562 83 l 1
 562 -109 l 1
 52 -109 l 1
EndSplineSet
EndChar

StartChar: r.serif
Encoding: 65540 -1 269
Width: 613
Flags: W
LayerCount: 2
Fore
SplineSet
72 442 m 1
 72 542 l 1
 266 542 l 1
 264 476 l 1
 305 524 361 554 426 554 c 0
 481 554 536 532 577 491 c 0
 585 483 l 1
 531 373 l 1
 516 387 l 0
 505 398 500 408 495 415 c 0
 483 431 458 450 421 450 c 0
 386 450 343 434 302 381 c 0
 261 328 262 299 262 273 c 0
 262 94 l 1
 376 94 l 1
 376 -1 l 1
 70 -1 l 1
 70 94 l 1
 146 94 l 1
 146 442 l 1
 72 442 l 1
EndSplineSet
EndChar

StartChar: hungarumlaut.cap
Encoding: 65541 -1 270
Width: 613
Flags: W
LayerCount: 2
Fore
SplineSet
332 800 m 1
 510 969 l 1
 585 866 l 1
 387 759 l 1
 332 800 l 1
100 800 m 1
 279 969 l 1
 353 866 l 1
 155 759 l 1
 100 800 l 1
EndSplineSet
EndChar

StartChar: uni2074
Encoding: 8308 8308 271
Width: 613
Flags: W
LayerCount: 2
Fore
SplineSet
116 477 m 1
 361 761 l 1
 430 761 l 1
 430 501 l 1
 505 501 l 1
 505 414 l 1
 430 414 l 1
 430 299 l 1
 332 299 l 1
 332 415 l 1
 116 415 l 1
 116 477 l 1
333 501 m 1
 333 616 l 1
 241 501 l 1
 333 501 l 1
EndSplineSet
EndChar

StartChar: fraction
Encoding: 8260 8260 274
Width: 613
Flags: W
LayerCount: 2
Fore
SplineSet
163 -56 m 1
 80 -11 l 1
 465 795 l 1
 548 749 l 1
 163 -56 l 1
EndSplineSet
EndChar

StartChar: lslash
Encoding: 322 322 275
Width: 613
Flags: W
LayerCount: 2
Fore
SplineSet
95 689 m 1
 95 788 l 1
 366 788 l 1
 366 460 l 1
 422 479 l 1
 433 482 439 486 450 494 c 0
 474 511 l 1
 474 388 l 1
 366 353 l 1
 366 99 l 1
 525 99 l 1
 525 0 l 1
 88 0 l 1
 88 99 l 1
 249 99 l 1
 249 313 l 1
 156 283 l 1
 156 388 l 1
 249 419 l 1
 249 689 l 1
 95 689 l 1
EndSplineSet
EndChar

StartChar: Lslash
Encoding: 321 321 276
Width: 613
Flags: W
LayerCount: 2
Fore
SplineSet
82 373 m 1
 82 739 l 1
 207 739 l 1
 209 726 l 0
 209 724 209 723 209 721 c 0
 209 697 199 696 199 686 c 0
 199 411 l 1
 375 466 l 0
 386 469 394 472 404 476 c 0
 426 485 l 1
 426 380 l 1
 199 310 l 1
 199 101 l 1
 555 101 l 1
 555 -1 l 1
 82 -1 l 1
 82 272 l 1
 18 252 l 1
 18 353 l 1
 82 373 l 1
EndSplineSet
EndChar

StartChar: Eng
Encoding: 330 330 277
Width: 613
Flags: W
LayerCount: 2
Fore
SplineSet
173 0 m 1
 55 0 l 1
 55 739 l 1
 173 739 l 1
 173 673 l 1
 219 722 282 753 350 753 c 0
 428 753 500 712 534 640 c 0
 557 591 558 543 558 498 c 0
 558 214 l 0
 558 175 557 133 536 90 c 1
 505 24 438 -12 364 -12 c 0
 325 -12 285 -2 251 19 c 0
 238 26 l 1
 295 126 l 1
 309 119 l 0
 318 114 322 105 323 104 c 1
 328 101 346 92 366 92 c 0
 394 92 419 106 432 133 c 1
 443 156 443 185 443 211 c 0
 443 494 l 0
 443 527 444 562 427 592 c 1
 409 628 375 647 335 647 c 0
 279 647 222 603 197 570 c 1
 177 542 173 518 173 482 c 0
 173 0 l 1
EndSplineSet
EndChar

StartChar: dcroat
Encoding: 273 273 278
Width: 613
Flags: W
LayerCount: 2
Fore
SplineSet
412 369 m 0
 393 435 330 456 287 456 c 0
 233 456 153 423 153 288 c 0
 153 129 239 94 291 94 c 0
 341 94 391 125 410 179 c 0
 418 202 420 229 420 266 c 0
 420 322 418 348 412 369 c 0
590 614 m 1
 538 614 l 1
 539 62 l 0
 539 47 539 32 543 18 c 0
 548 0 l 1
 432 0 l 1
 429 11 l 0
 424 27 423 42 423 55 c 1
 384 13 329 -12 271 -12 c 0
 156 -12 40 79 40 275 c 0
 40 479 172 556 283 556 c 0
 342 556 393 533 427 497 c 1
 427 614 l 1
 337 614 l 1
 337 709 l 1
 427 709 l 1
 427 790 l 1
 548 790 l 1
 549 775 l 0
 550 761 542 751 540 748 c 0
 537 743 538 745 538 740 c 0
 538 709 l 1
 590 709 l 1
 590 614 l 1
EndSplineSet
EndChar

StartChar: bullet
Encoding: 8226 8226 287
Width: 613
Flags: W
LayerCount: 2
Fore
SplineSet
314 466 m 0
 378 466 430 415 430 352 c 0
 430 289 378 238 314 238 c 0
 250 238 198 289 198 352 c 0
 198 415 250 466 314 466 c 0
EndSplineSet
EndChar

StartChar: florin
Encoding: 402 402 288
Width: 613
Flags: W
LayerCount: 2
Fore
SplineSet
591 731 m 0
 598 723 l 1
 550 627 l 1
 541 627 l 0
 531 627 519 634 516 648 c 0
 514 657 515 656 514 659 c 0
 505 678 481 701 449 701 c 0
 425 701 396 688 379 650 c 0
 364 617 362 573 359 535 c 0
 353 458 l 1
 498 458 l 1
 498 364 l 1
 345 364 l 1
 317 36 l 0
 313 -15 307 -67 277 -116 c 0
 240 -178 183 -208 128 -208 c 0
 87 -208 48 -191 20 -161 c 0
 12 -152 l 1
 74 -55 l 1
 87 -61 l 0
 100 -67 104 -80 105 -82 c 0
 109 -89 120 -97 135 -97 c 0
 149 -97 167 -91 182 -63 c 0
 200 -32 204 9 207 43 c 0
 232 366 l 1
 90 366 l 1
 90 459 l 1
 240 459 l 1
 247 549 l 0
 250 594 254 642 278 690 c 0
 313 760 379 799 447 799 c 0
 502 799 555 774 591 731 c 0
EndSplineSet
EndChar

StartChar: dagger
Encoding: 8224 8224 289
Width: 613
Flags: W
LayerCount: 2
Fore
SplineSet
252 557 m 1
 252 774 l 1
 362 774 l 1
 362 557 l 1
 559 557 l 1
 559 456 l 1
 362 456 l 1
 362 -195 l 1
 252 -195 l 1
 252 456 l 1
 53 456 l 1
 53 557 l 1
 252 557 l 1
EndSplineSet
EndChar

StartChar: daggerdbl
Encoding: 8225 8225 290
Width: 613
Flags: W
LayerCount: 2
Fore
SplineSet
252 557 m 1
 252 774 l 1
 362 774 l 1
 362 557 l 1
 559 557 l 1
 559 456 l 1
 362 456 l 1
 362 159 l 1
 559 159 l 1
 559 57 l 1
 362 57 l 1
 362 -195 l 1
 252 -195 l 1
 252 57 l 1
 53 57 l 1
 53 159 l 1
 252 159 l 1
 252 456 l 1
 53 456 l 1
 53 557 l 1
 252 557 l 1
EndSplineSet
EndChar

StartChar: trademark
Encoding: 8482 8482 291
Width: 613
VWidth: 1184
Flags: W
LayerCount: 2
Fore
SplineSet
16 753 m 1
 309 753 l 1
 309 675 l 1
 202 675 l 1
 202 379 l 1
 118 379 l 1
 118 675 l 1
 16 675 l 1
 16 753 l 1
312 753 m 1
 379 753 l 1
 455 599 l 1
 465 618 469 627 485 659 c 0
 507 702 507 702 530 745 c 0
 534 753 l 1
 598 753 l 1
 598 379 l 1
 518 379 l 1
 518 591 l 1
 516 587 513 583 510 578 c 0
 492 545 492 545 475 514 c 0
 471 506 l 1
 433 508 l 1
 393 586 l 1
 393 379 l 1
 312 379 l 1
 312 753 l 1
EndSplineSet
EndChar

StartChar: zero.noslash
Encoding: 65542 -1 292
Width: 613
Flags: W
LayerCount: 2
Fore
SplineSet
307 744 m 0
 445 744 545 592 545 366 c 0
 545 148 449 -13 305 -13 c 0
 175 -13 69 123 69 350 c 0
 69 581 162 744 307 744 c 0
399 565 m 0
 369 631 330 641 306 641 c 0
 285 641 248 633 220 576 c 0
 197 528 179 459 179 361 c 0
 179 291 194 217 213 174 c 0
 244 104 285 93 310 93 c 0
 332 93 367 102 396 153 c 0
 427 208 437 296 437 352 c 0
 437 425 421 516 399 565 c 0
EndSplineSet
EndChar

StartChar: alpha
Encoding: 945 945 294
Width: 613
Flags: W
LayerCount: 2
Fore
SplineSet
397 278 m 0
 397 397 359 454 273 454 c 0
 202 454 138 421 138 276 c 0
 138 144 209 102 272 102 c 0
 291 102 l 0
 334 102 397 103 397 278 c 0
585 33 m 0
 604 9 l 1
 468 9 l 1
 464 17 l 0
 464 17 453 39 444 60 c 1
 401 13 324 -5 273 -5 c 0
 207 -5 28 32 27 273 c 1
 27 283 l 0
 27 544 228 559 273 560 c 1
 359 560 408 522 433 493 c 1
 443 549 l 1
 548 526 l 1
 514 385 l 1
 505 351 499 311 499 272 c 0
 499 233 504 193 515 159 c 0
 538 90 585 33 585 33 c 0
EndSplineSet
EndChar

StartChar: beta
Encoding: 946 946 295
Width: 613
Flags: W
LayerCount: 2
Fore
SplineSet
433 398 m 1
 508 364 554 291 554 210 c 0
 554 94 441 3 330 1 c 1
 327 1 l 0
 254 1 200 39 171 66 c 1
 171 -160 l 1
 61 -160 l 1
 61 464 l 0
 61 511 62 563 86 615 c 1
 123 698 203 742 285 742 c 0
 406 742 504 648 504 534 c 0
 504 480 477 430 433 398 c 1
323 104 m 0
 330 104 l 2
 393 104 442 148 442 215 c 0
 442 263 414 303 375 325 c 1
 346 342 326 344 290 344 c 0
 196 344 l 1
 196 444 l 1
 288 444 l 0
 375 444 389 501 389 536 c 0
 389 600 348 637 289 637 c 0
 255 637 224 629 201 597 c 1
 173 559 172 514 172 467 c 1
 170 167 l 1
 204 150 268 104 323 104 c 0
EndSplineSet
EndChar

StartChar: gamma
Encoding: 947 947 296
Width: 613
Flags: W
LayerCount: 2
Fore
SplineSet
261 -173 m 1
 264 15 l 1
 37 542 l 1
 180 542 l 1
 181 528 l 0
 183 511 176 502 176 501 c 1
 176 501 176 499 177 497 c 1
 321 136 l 1
 410 388 l 1
 426 435 442 482 451 530 c 0
 453 543 l 1
 576 543 l 1
 570 524 l 0
 554 473 534 423 515 375 c 1
 374 10 l 1
 370 1 369 -17 369 -40 c 0
 369 -74 371 -118 371 -158 c 0
 371 -173 l 1
 261 -173 l 1
EndSplineSet
EndChar

StartChar: delta
Encoding: 948 948 297
Width: 613
Flags: W
LayerCount: 2
Fore
SplineSet
447 270 m 0
 447 401 374 454 309 454 c 0
 239 454 171 395 171 279 c 0
 171 161 240 95 313 95 c 0
 379 95 447 150 447 270 c 0
526 625 m 1
 459 671 l 1
 399 671 l 1
 226 669 l 1
 433 500 l 1
 527 436 560 328 560 261 c 0
 560 96 444 -3 312 -3 c 0
 173 -3 54 108 54 260 c 0
 54 397 130 507 247 524 c 1
 203 560 121 627 61 672 c 0
 55 677 l 1
 54 767 l 1
 526 767 l 1
 526 625 l 1
EndSplineSet
EndChar

StartChar: epsilon
Encoding: 949 949 298
Width: 613
Flags: W
LayerCount: 2
Fore
SplineSet
475 174 m 0
 488 184 l 1
 541 105 l 1
 533 96 l 0
 475 36 412 0 322 -0 c 0
 195 0 70 62 70 163 c 0
 70 211 90 261 137 286 c 1
 100 306 73 338 73 381 c 0
 73 468 172 546 294 546 c 0
 376 546 462 518 519 458 c 0
 528 449 l 1
 469 370 l 1
 457 383 l 0
 415 425 356 436 293 436 c 0
 227 436 190 410 190 381 c 0
 190 361 197 336 321 336 c 0
 333 336 346 336 358 337 c 0
 374 338 l 1
 374 222 l 1
 357 224 l 0
 337 226 340 227 321 227 c 0
 181 227 186 181 186 163 c 0
 186 139 250 108 321 107 c 1
 406 107 436 143 475 174 c 0
EndSplineSet
EndChar

StartChar: zeta
Encoding: 950 950 299
Width: 613
Flags: W
LayerCount: 2
Fore
SplineSet
376 -98 m 1
 385 -86 379 -94 384 -82 c 0
 397 -52 412 -12 420 9 c 1
 348 17 74 57 74 255 c 0
 74 257 l 1
 76 482 246 603 343 657 c 1
 278 657 179 658 126 658 c 1
 105 657 125 644 96 644 c 0
 81 644 l 1
 82 769 l 1
 535 769 l 1
 535 660 l 1
 524 657 l 1
 516 655 202 557 199 255 c 1
 199 254 l 0
 199 75 499 139 527 103 c 1
 538 89 542 72 542 57 c 0
 542 -4 488 -71 483 -120 c 1
 457 -117 423 -137 390 -137 c 0
 390 -137 354 -149 354 -121 c 0
 354 -119 l 1
 355 -117 l 0
 360 -98 375 -99 376 -98 c 1
EndSplineSet
EndChar

StartChar: eta
Encoding: 951 951 300
Width: 613
Flags: W
LayerCount: 2
Fore
SplineSet
84 0 m 1
 84 485 l 1
 62 542 l 1
 202 542 l 1
 202 476 l 1
 244 522 302 555 367 555 c 0
 434 555 496 519 525 455 c 1
 546 409 546 363 546 323 c 0
 546 -160 l 1
 431 -160 l 1
 431 318 l 0
 431 355 430 395 405 423 c 1
 388 442 366 451 343 451 c 0
 294 451 244 409 225 385 c 1
 205 360 202 341 202 307 c 0
 202 0 l 1
 84 0 l 1
EndSplineSet
EndChar

StartChar: theta
Encoding: 952 952 301
Width: 613
Flags: W
LayerCount: 2
Fore
SplineSet
59 387 m 0
 59 601 125 764 282 764 c 0
 445 764 523 593 523 391 c 0
 523 233 503 2 285 1 c 0
 283 1 l 0
 83 1 59 215 59 387 c 0
174 427 m 1
 232 427 346 428 408 428 c 1
 404 584 340 657 283 657 c 0
 233 657 178 593 174 427 c 1
285 114 m 0
 384 114 408 215 409 337 c 1
 173 337 l 1
 176 212 200 114 285 114 c 0
EndSplineSet
EndChar

StartChar: iota
Encoding: 953 953 302
Width: 613
Flags: W
LayerCount: 2
Fore
SplineSet
104 392 m 1
 102 545 l 1
 373 545 l 1
 373 156 l 0
 373 110 381 113 422 113 c 0
 437 113 l 1
 437 0 l 1
 422 0 l 0
 408 0 394 -1 380 -1 c 0
 312 -1 256 20 256 149 c 1
 255 159 255 173 255 187 c 0
 255 217 256 250 256 250 c 1
 256 444 l 1
 138 444 l 0
 135 444 132 442 132 441 c 1
 104 392 l 1
EndSplineSet
EndChar

StartChar: kappa
Encoding: 954 954 303
Width: 613
Flags: W
LayerCount: 2
Fore
SplineSet
47 -1 m 1
 47 542 l 1
 175 542 l 1
 175 524 l 0
 175 510 167 503 165 500 c 1
 163 498 164 500 164 496 c 0
 164 313 l 1
 415 546 l 1
 423 544 l 0
 442 539 470 539 490 539 c 0
 560 539 l 1
 312 319 l 1
 584 -1 l 1
 442 -1 l 1
 226 265 l 1
 164 213 l 1
 164 -1 l 1
 47 -1 l 1
EndSplineSet
EndChar

StartChar: lambda
Encoding: 955 955 304
Width: 613
Flags: W
LayerCount: 2
Fore
SplineSet
356.496 658.543 m 0
 358.481 654.426 360.401 650.264 362.261 646.066 c 0
 390.632 584.843 404.886 515.412 420.344 465.761 c 0
 468.843 318.38 565.468 47.9768 586.882 25.8928 c 1
 626.019 9.53674e-07 l 1
 475.729 0 l 1
 471.584 8.2918 l 2
 446.662 58.1362 369.041 295.824 339.331 379.783 c 1
 124.754 0 l 1
 8.84311 0 l 1
 292.26 502.343 l 1
 274.102 589.881 233.838 668.66 179.965 682.511 c 0
 177.321 683.22 174.645 683.766 171.936 684.143 c 0
 171.789 684.163 171.642 684.184 171.495 684.204 c 0
 171.35 684.233 171.204 684.262 171.058 684.291 c 0
 167.637 684.976 165.096 685 160 685 c 0
 136.751 685 127.256 677 115 677 c 2
 100.366 677 l 1
 97.6251 788 l 1
 113 788 l 2
 131.524 788 152.405 789 168 789 c 2
 169 789 l 2
 266.945 789 321.7 730.708 356.496 658.543 c 0
EndSplineSet
EndChar

StartChar: mu
Encoding: 956 956 305
Width: 613
Flags: W
LayerCount: 2
Fore
SplineSet
409 77 m 0
 409 91 l 1
 380 48 331 0 258 0 c 0
 233 0 200 9 173 33 c 1
 173 -172 l 1
 58 -172 l 1
 58 541 l 1
 170 541 l 1
 170 261 l 0
 170 138 211 117 257 117 c 0
 315 117 409 202 409 291 c 0
 409 541 l 1
 521 541 l 1
 521 113 l 2
 521 98 525 100 530 100 c 0
 553 100 l 1
 554 86 l 0
 555 70 555 15 555 15 c 0
 555 0 l 1
 464 0 l 0
 438 0 409 26 409 77 c 0
EndSplineSet
EndChar

StartChar: nu
Encoding: 957 957 306
Width: 613
Flags: W
LayerCount: 2
Fore
SplineSet
262 -4 m 1
 35 553 l 1
 172 553 l 1
 175 541 l 0
 178 527 171 515 171 514 c 1
 173 505 194 446 318 132 c 1
 440 299 468 399 468 456 c 0
 468 504 450 520 444 530 c 0
 431 553 l 1
 568 553 l 1
 572 542 l 0
 572 541 583 509 583 468 c 0
 583 442 582 405 566 362 c 1
 499 180 351 3 351 2 c 0
 346 -4 l 1
 262 -4 l 1
EndSplineSet
EndChar

StartChar: xi
Encoding: 958 958 307
Width: 613
Flags: W
LayerCount: 2
Fore
SplineSet
355 -123 m 0
 374 -80 404 -36 404 -22 c 1
 388 14 91 -14 91 206 c 0
 91 304 156 381 227 404 c 1
 179 438 159 475 159 511 c 0
 159 561 196 605 232 632 c 1
 148 632 l 1
 125 631 148 617 118 617 c 0
 102 617 l 1
 102 742 l 1
 535 742 l 1
 535 630 l 1
 436 630 l 1
 361 622 283 560 283 518 c 0
 283 496 305 470 386 458 c 1
 500 458 l 1
 500 336 l 1
 389 335 l 1
 369 335 l 0
 276 335 207 305 207 216 c 0
 207 210 l 1
 210 91 399 156 500 55 c 1
 513 43 525 25 525 6 c 0
 525 -44 486 -85 476 -131 c 0
 473 -143 l 1
 345 -145 l 1
 355 -123 l 0
EndSplineSet
EndChar

StartChar: omicron
Encoding: 959 959 308
Width: 613
Flags: W
LayerCount: 2
Fore
SplineSet
314 554 m 0
 446 554 571 453 571 268 c 0
 571 91 449 -14 312 -14 c 0
 166 -14 43 104 43 267 c 0
 43 433 166 554 314 554 c 0
455 266 m 0
 455 397 377 451 309 451 c 0
 236 451 164 391 164 274 c 0
 164 156 238 90 313 90 c 0
 382 90 455 146 455 266 c 0
EndSplineSet
EndChar

StartChar: pi
Encoding: 960 960 309
Width: 613
Flags: W
LayerCount: 2
Fore
SplineSet
25 442 m 1
 25 554 l 1
 589 554 l 1
 589 442 l 1
 522 442 l 1
 522 110 l 1
 530 110 l 1
 558 137 l 1
 557 100 l 1
 557 98 556 47 556 15 c 0
 556 0 l 1
 467 0 l 0
 420 0 408 32 408 53 c 0
 408 442 l 1
 209 442 l 1
 209 0 l 1
 90 0 l 1
 90 442 l 1
 25 442 l 1
EndSplineSet
EndChar

StartChar: rho
Encoding: 961 961 310
Width: 613
Flags: W
LayerCount: 2
Fore
SplineSet
63 -198 m 1
 60 339 l 2
 60 463 133 554 296 554 c 0
 447 554 554 450 554 263 c 0
 554 66 412 -8 295 -8 c 0
 237 -8 194 15 171 33 c 1
 171 -198 l 1
 63 -198 l 1
441 260 m 0
 441 434 336 451 295 451 c 0
 245 451 201 427 183 387 c 1
 172 365 170 336 170 294 c 0
 170 221 170 192 184 162 c 1
 203 122 241 98 294 98 c 0
 341 98 441 113 441 260 c 0
EndSplineSet
EndChar

StartChar: sigma
Encoding: 963 963 311
Width: 613
Flags: W
HStem: -14 104<219 363> 449 105<212 372 497 598>
VStem: 25 121<172 376> 436 117<175 384>
LayerCount: 2
Fore
SplineSet
497 449 m 1
 532 403 553 340 553 265 c 0
 553 90 431 -14 294 -14 c 0
 148 -14 25 104 25 267 c 0
 25 430 145 551 290 554 c 1
 607 554 l 1
 598 515 l 1
 598 449 l 1
 497 449 l 1
436 281 m 0
 436 400 385 441 289 450 c 1
 217 450 145 401 145 274 c 0
 145 146 220 90 295 90 c 0
 364 90 436 151 436 281 c 0
EndSplineSet
EndChar

StartChar: tau
Encoding: 964 964 312
Width: 613
Flags: W
LayerCount: 2
Fore
SplineSet
25 414 m 1
 92 554 l 1
 571 554 l 1
 571 443 l 1
 357 443 l 1
 355 154 l 1
 355 120 403 109 452 109 c 0
 477 109 497 112 497 112 c 0
 515 116 l 1
 516 10 l 1
 504 7 l 0
 503 7 475 2 439 2 c 0
 365 2 242 23 241 149 c 1
 240 159 240 172 240 187 c 0
 240 217 241 250 241 250 c 1
 241 445 l 1
 204 445 167 445 138 445 c 0
 101 445 74 442 68 439 c 0
 25 414 l 1
EndSplineSet
EndChar

StartChar: upsilon
Encoding: 965 965 313
Width: 613
Flags: W
LayerCount: 2
Fore
SplineSet
14 459 m 1
 35 542 l 1
 186 542 l 1
 186 240 l 0
 186 183 188 95 299 95 c 0
 365 95 425 158 425 247 c 0
 425 542 l 1
 542 542 l 1
 542 245 l 0
 542 176 518 112 486 73 c 1
 425 0 360 -14 294 -14 c 0
 219 -14 128 24 92 100 c 1
 69 147 69 196 69 241 c 1
 70 453 l 1
 57 454 43 456 31 457 c 0
 14 459 l 1
EndSplineSet
EndChar

StartChar: Xi
Encoding: 926 926 322
Width: 613
Flags: W
LayerCount: 2
Fore
SplineSet
263 108 m 1
 263 108 313 106 346 106 c 2
 514 106 l 1
 514 -1 l 1
 99 -1 l 1
 99 108 l 1
 263 108 l 1
514 739 m 1
 514 632 l 1
 99 632 l 1
 99 739 l 1
 514 739 l 1
135 333 m 1
 135 440 l 1
 480 440 l 1
 480 333 l 1
 135 333 l 1
EndSplineSet
EndChar

StartChar: tonos
Encoding: 900 900 328
Width: 613
Flags: W
LayerCount: 2
Fore
SplineSet
254.596 836.294 m 1
 381.195 825.404 l 1
 324.462 617 l 1
 246.431 617 l 1
 254.596 836.294 l 1
EndSplineSet
EndChar

StartChar: sigma1
Encoding: 962 962 346
Width: 613
Flags: W
LayerCount: 2
Fore
SplineSet
187 82 m 1
 139 112 74 202 74 292 c 0
 75 396 149 509 253 536 c 0
 311 552 392 554 440 554 c 0
 478 554 l 0
 504 554 495 531 495 531 c 0
 495 516 495 480 494 453 c 0
 493 439 l 1
 478 438 l 0
 433 437 385 436 361 436 c 0
 254 436 196 393 196 281 c 0
 196 229 247 167 286 151 c 1
 362 121 512 129 512 17 c 1
 511 -44 459 -106 454 -125 c 0
 451 -136 l 1
 326 -137 l 1
 334 -117 l 0
 353 -63 396 -18 396 -1 c 0
 396 44 305 9 187 82 c 1
EndSplineSet
EndChar

StartChar: chi
Encoding: 967 967 347
Width: 613
Flags: W
LayerCount: 2
Fore
SplineSet
313 289 m 1
 432 543 l 1
 548 543 l 1
 374 187 l 1
 513 -78 l 1
 520 -92 535 -95 544 -95 c 0
 568 -95 l 1
 568 -196 l 1
 542 -196 l 0
 517 -196 448 -193 414 -138 c 0
 413 -137 l 1
 313 71 l 1
 188 -196 l 1
 63 -196 l 1
 250 176 l 1
 128 387 l 1
 76 442 l 0
 46 442 l 1
 46 553 l 1
 89 553 l 0
 120 553 159 545 191 498 c 1
 200 485 245 424 313 289 c 1
EndSplineSet
EndChar

StartChar: psi
Encoding: 968 968 348
Width: 613
Flags: W
LayerCount: 2
Fore
SplineSet
77 526 m 1
 77 542 l 1
 188 542 l 1
 188 219 l 2
 188 169 192 97 252 73 c 1
 252 627 l 1
 364 668 l 1
 364 86 l 1
 401 113 427 164 427 226 c 2
 427 542 l 1
 539 542 l 1
 539 245 l 2
 539 176 512 115 480 77 c 0
 441 30 406 5 364 -6 c 1
 364 -194 l 1
 252 -194 l 1
 252 -10 l 1
 188 3 128 40 99 100 c 0
 76 147 76 197 76 241 c 0
 77 470 77 526 77 526 c 1
EndSplineSet
EndChar

StartChar: phi
Encoding: 966 966 349
Width: 613
Flags: W
LayerCount: 2
Fore
SplineSet
252 547 m 1
 252 604 l 1
 369 621 l 1
 369 547 l 1
 479 522 571 425 571 268 c 0
 571 117 480 18 369 -7 c 1
 369 -197 l 1
 252 -197 l 1
 252 -9 l 1
 130 18 43 126 43 267 c 0
 43 410 132 519 252 547 c 1
159 274 m 0
 159 179 201 111 252 84 c 1
 252 458 l 1
 201 433 159 370 159 274 c 0
459 265 m 0
 459 365 415 426 369 453 c 1
 369 86 l 1
 417 112 459 172 459 265 c 0
EndSplineSet
EndChar

StartChar: omega
Encoding: 969 969 350
Width: 613
Flags: W
LayerCount: 2
Fore
SplineSet
150 164 m 1
 165 121 178 106 194 106 c 0
 235 106 252 172 253 266 c 1
 253 402 l 1
 362 402 l 1
 364 266 l 1
 364 171 379 106 421 106 c 0
 438 106 450 120 465 164 c 1
 466 168 473 207 473 276 c 0
 473 337 467 424 447 535 c 0
 444 553 l 1
 557 553 l 1
 559 540 l 0
 565 508 590 399 590 282 c 0
 590 211 581 137 552 74 c 1
 528 24 469 -2 422 -2 c 0
 420 -2 l 0
 390 -2 344 14 307 46 c 1
 269 13 225 -2 195 -2 c 0
 193 -2 l 0
 146 -2 87 24 63 74 c 1
 34 137 25 211 25 282 c 0
 25 399 50 508 56 540 c 0
 58 553 l 1
 172 553 l 1
 169 535 l 0
 148 422 141 335 141 274 c 0
 141 206 149 168 150 164 c 1
EndSplineSet
EndChar

StartChar: Lambda
Encoding: 923 923 352
Width: 613
Flags: W
LayerCount: 2
Fore
SplineSet
483 10 m 0
 418 181 356 355 294 530 c 1
 237 355 181 183 124 10 c 0
 121 -1 l 1
 6 -1 l 1
 278 753 l 1
 309 753 l 1
 606 0 l 1
 487 0 l 1
 483 10 l 0
EndSplineSet
EndChar

StartChar: Delta
Encoding: 916 916 353
Width: 613
Flags: W
LayerCount: 2
Fore
SplineSet
606 0 m 1
 6 0 l 1
 278 753 l 1
 309 753 l 1
 606 0 l 1
294 530 m 1
 157 112 l 1
 445 112 l 1
 294 530 l 1
EndSplineSet
EndChar

StartChar: Gamma
Encoding: 915 915 355
Width: 613
Flags: W
LayerCount: 2
Fore
SplineSet
549 636 m 1
 174 636 l 1
 174 85 l 1
 175 0 l 1
 65 0 l 1
 65 740 l 1
 549 740 l 1
 549 636 l 1
EndSplineSet
EndChar

StartChar: Theta
Encoding: 920 920 356
Width: 613
Flags: W
LayerCount: 2
Fore
SplineSet
439 407 m 1
 439 325 l 1
 181 325 l 1
 181 406 l 1
 181 436 l 1
 181 436 l 1
 197 436 l 2
 200 436 332 437 409 437 c 1
 409 437 l 1
 424 437 l 1
 439 437 l 1
 439 407 l 1
585 382 m 0
 585 228 555 0 310 0 c 0
 75 0 30 228 30 381 c 0
 30 578 98 750 309 750 c 0
 497 750 585 602 585 382 c 0
472 382 m 0
 472 516 447 641 308 641 c 0
 162 641 145 520 145 381 c 0
 145 201 211 106 314 106 c 0
 408 106 472 183 472 382 c 0
EndSplineSet
EndChar

StartChar: Pi
Encoding: 928 928 357
Width: 613
Flags: W
LayerCount: 2
Fore
SplineSet
439 636 m 1
 174 636 l 1
 174 85 l 1
 175 0 l 1
 65 0 l 1
 65 740 l 1
 549 740 l 1
 549 0 l 1
 439 0 l 1
 439 636 l 1
EndSplineSet
EndChar

StartChar: Phi
Encoding: 934 934 358
Width: 613
Flags: W
LayerCount: 2
Fore
SplineSet
-5 396 m 0
 -5 598 144 737 309 737 c 0
 462 737 620 597 620 399 c 0
 620 206 471 111 362 83 c 1
 362 0 l 1
 255 0 l 1
 255 82 l 1
 137 111 -5 215 -5 396 c 0
105 399 m 0
 105 276 185 212 251 183 c 1
 251 642 l 1
 186 610 105 522 105 399 c 0
511 401 m 0
 511 530 429 605 367 639 c 1
 367 184 l 1
 431 215 511 281 511 401 c 0
EndSplineSet
EndChar

StartChar: Chi
Encoding: 935 935 359
Width: 613
Flags: W
LayerCount: 2
Fore
SplineSet
303 485 m 1
 428 739 l 1
 545 739 l 1
 364 380 l 1
 569 1 l 1
 441 1 l 1
 303 269 l 1
 172 1 l 1
 49 1 l 1
 243 376 l 1
 50 739 l 1
 172 739 l 1
 303 485 l 1
EndSplineSet
EndChar

StartChar: Sigma
Encoding: 931 931 362
Width: 613
Flags: W
LayerCount: 2
Fore
SplineSet
54 44 m 1
 240 363 l 1
 74 665 l 1
 72 739 l 1
 560 739 l 1
 560 634 l 1
 212 634 l 1
 354 377 l 1
 361 377 l 1
 361 363 l 1
 363 361 l 1
 361 359 l 1
 361 348 l 1
 355 348 l 1
 200 83 l 1
 523 83 l 2
 531 83 536 90 555 90 c 2
 574 90 l 1
 574 -22 l 1
 54 -22 l 1
 54 44 l 1
EndSplineSet
EndChar

StartChar: Psi
Encoding: 936 936 363
Width: 613
Flags: W
LayerCount: 2
Fore
SplineSet
254 293 m 1
 254 705 l 1
 367 705 l 1
 367 295 l 1
 429 321 442 402 442 452 c 0
 442 740 l 1
 557 740 l 1
 557 465 l 0
 557 411 553 364 519 312 c 1
 481 253 422 226 367 214 c 1
 367 0 l 1
 254 0 l 1
 254 212 l 1
 192 223 138 249 96 311 c 1
 63 360 58 410 58 461 c 1
 59 740 l 1
 173 740 l 1
 173 452 l 0
 173 405 192 319 254 293 c 1
EndSplineSet
EndChar

StartChar: Omega
Encoding: 937 937 364
Width: 613
Flags: W
LayerCount: 2
Fore
SplineSet
51 108 m 1
 146 108 l 1
 94 172 51 272 51 341 c 0
 51 689 176 740 308 740 c 0
 434 740 562 685 562 343 c 0
 562 263 528 171 479 108 c 1
 563 108 l 1
 563 0 l 1
 346 0 l 1
 346 93 l 1
 351 98 l 0
 377 121 451 256 451 338 c 0
 451 554 414 639 308 639 c 0
 200 639 163 555 163 339 c 0
 163 257 242 121 269 99 c 0
 274 95 l 1
 274 0 l 1
 51 0 l 1
 51 108 l 1
EndSplineSet
EndChar

StartChar: anoteleia
Encoding: 903 903 366
Width: 613
Flags: W
LayerCount: 2
Fore
SplineSet
293 554 m 0
 340 554 378 517 378 471 c 0
 378 425 340 387 293 387 c 0
 246 387 207 425 207 471 c 0
 207 517 246 554 293 554 c 0
EndSplineSet
EndChar

StartChar: afii10018
Encoding: 1041 1041 368
Width: 613
Flags: W
LayerCount: 2
Fore
SplineSet
276 0 m 0
 52 0 l 1
 52 740 l 1
 537 740 l 1
 537 636 l 1
 165 636 l 1
 165 449 l 1
 265 449 l 0
 346 449 402 448 466 406 c 0
 530 364 567 301 567 213 c 0
 567 134 520 58 435 23 c 0
 381 1 326 0 276 0 c 0
165 348 m 1
 165 103 l 1
 291 103 l 0
 323 103 351 104 380 116 c 0
 425 135 450 176 450 221 c 0
 450 266 424 310 375 332 c 0
 342 347 307 348 270 348 c 0
 165 348 l 1
EndSplineSet
EndChar

StartChar: afii10021
Encoding: 1044 1044 371
Width: 613
Flags: W
LayerCount: 2
Fore
SplineSet
42 -171 m 1
 42 100 l 1
 99 100 l 1
 99 101 99 101 99 102 c 0
 106 119 116 146 120 165 c 0
 154 319 167 544 171 656 c 0
 172 687 164 722 164 722 c 0
 159 740 l 1
 549 740 l 1
 549 100 l 1
 609 100 l 1
 609 -172 l 1
 495 -172 l 1
 495 -1 l 1
 159 -1 l 1
 159 -171 l 1
 42 -171 l 1
226 125 m 0
 224 117 222 108 220 100 c 1
 439 100 l 1
 439 636 l 1
 283 636 l 1
 274 508 260 262 226 125 c 0
EndSplineSet
EndChar

StartChar: afii10024
Encoding: 1046 1046 373
Width: 613
Flags: W
HStem: 0 16G<122 143 252 365 471 492> 719 20G<252 369>
VStem: 252 113<514 739>
LayerCount: 2
Fore
SplineSet
17 0 m 0
 -7 0 l 1
 209 375 l 1
 19 740 l 1
 77 740 l 0
 97 740 118 741 137 746 c 0
 148 749 l 1
 252 514 l 1
 252 739 l 1
 365 739 l 1
 369 731 l 0
 371 727 372 723 372 719 c 0
 372 698 365 699 365 695 c 0
 365 522 l 1
 460 749 l 1
 472 746 l 0
 491 741 511 740 531 740 c 0
 588 740 l 1
 408 380 l 1
 620 0 l 1
 596 0 l 0
 538 0 492 -4 492 -4 c 0
 480 -5 l 1
 365 241 l 1
 365 0 l 1
 252 0 l 1
 252 232 l 1
 133 -5 l 1
 122 -4 l 0
 122 -4 75 0 17 0 c 0
EndSplineSet
EndChar

StartChar: afii10025
Encoding: 1047 1047 374
Width: 613
Flags: W
LayerCount: 2
Fore
SplineSet
25 133 m 0
 17 145 l 1
 120 218 l 1
 129 206 l 0
 147 183 137 172 141 167 c 0
 145 161 197 93 283 93 c 0
 396 93 456 154 456 221 c 0
 456 291 385 339 249 339 c 0
 232 339 216 338 199 336 c 0
 182 334 l 1
 182 429 l 1
 197 429 l 0
 292 429 336 441 353 446 c 0
 417 465 434 504 434 542 c 0
 434 591 389 637 289 637 c 0
 233 637 170 596 138 560 c 0
 127 549 l 1
 52 618 l 1
 60 629 l 0
 117 708 207 742 294 742 c 0
 446 742 547 654 547 547 c 0
 547 484 516 425 452 393 c 1
 530 357 567 288 567 210 c 0
 567 90 467 -12 284 -12 c 0
 185 -12 73 58 25 133 c 0
EndSplineSet
EndChar

StartChar: afii10026
Encoding: 1048 1048 375
Width: 613
Flags: W
LayerCount: 2
Fore
SplineSet
145 0 m 1
 54 0 l 1
 54 739 l 1
 171 739 l 1
 176 731 l 0
 178 727 178 723 178 719 c 0
 178 698 171 699 171 695 c 0
 171 246 l 1
 450 739 l 1
 556 739 l 1
 556 -1 l 1
 444 -1 l 1
 445 539 l 1
 145 0 l 1
EndSplineSet
EndChar

StartChar: afii10029
Encoding: 1051 1051 378
Width: 613
Flags: W
LayerCount: 2
Fore
SplineSet
6 42 m 0
 2 48 l 1
 42 153 l 1
 59 133 l 0
 68 123 68 111 68 110 c 1
 72 104 88 89 95 88 c 1
 96 89 97 92 99 97 c 0
 106 115 116 142 120 161 c 0
 154 316 167 542 171 655 c 0
 172 686 164 722 164 722 c 0
 159 740 l 1
 549 740 l 1
 549 0 l 1
 439 0 l 1
 439 636 l 1
 283 636 l 1
 274 507 260 258 226 120 c 0
 219 90 209 56 191 29 c 0
 170 -3 120 -8 95 -8 c 0
 60 -8 29 10 6 42 c 0
EndSplineSet
EndChar

StartChar: afii10037
Encoding: 1059 1059 386
Width: 613
Flags: W
LayerCount: 2
Fore
SplineSet
278 235 m 1
 16 740 l 1
 170 740 l 1
 171 726 l 0
 172 709 166 701 166 700 c 0
 166 700 166 698 167 696 c 1
 334 357 l 1
 416 586 l 0
 432 632 447 680 456 728 c 0
 458 740 l 1
 581 740 l 1
 575 721 l 0
 559 670 540 620 520 570 c 0
 351 140 l 0
 339 110 328 81 302 53 c 0
 263 11 216 -8 175 -8 c 0
 127 -8 81 8 47 41 c 0
 38 49 l 1
 97 152 l 1
 111 141 l 0
 125 130 124 117 124 117 c 1
 126 113 143 92 174 92 c 0
 184 92 197 98 219 121 c 0
 234 136 244 157 253 177 c 1
 278 235 l 1
EndSplineSet
EndChar

StartChar: afii10038
Encoding: 1060 1060 387
Width: 613
Flags: W
HStem: 0 22G<255 362>
VStem: -5 111<300 504> 251 116<0 88 184 639 727 819> 511 109<302 506>
LayerCount: 2
Fore
SplineSet
105 399 m 0
 105 276 185 212 251 183 c 1
 251 642 l 1
 186 610 105 522 105 399 c 0
367 731 m 1
 500 701 620 572 620 399 c 0
 620 206 471 111 362 83 c 1
 362 0 l 1
 255 0 l 1
 255 82 l 1
 137 111 -5 215 -5 396 c 0
 -5 574 111 703 251 731 c 1
 251 819 l 1
 367 819 l 1
 367 731 l 1
367 639 m 1
 367 184 l 1
 431 215 511 281 511 401 c 0
 511 530 429 605 367 639 c 1
EndSplineSet
EndChar

StartChar: afii10040
Encoding: 1062 1062 389
Width: 613
Flags: W
LayerCount: 2
Fore
SplineSet
498 0 m 1
 39 0 l 1
 39 739 l 1
 156 739 l 1
 160 731 l 0
 162 727 163 723 163 719 c 0
 163 699 156 701 156 697 c 0
 156 101 l 1
 415 101 l 1
 415 739 l 1
 529 739 l 1
 533 732 l 0
 535 728 537 723 537 719 c 0
 537 697 528 700 528 698 c 0
 528 92 l 1
 611 92 l 1
 611 -172 l 1
 498 -172 l 1
 498 0 l 1
EndSplineSet
EndChar

StartChar: afii10041
Encoding: 1063 1063 390
Width: 613
Flags: W
LayerCount: 2
Fore
SplineSet
85 349 m 0
 56 402 54 454 54 505 c 2
 54 739 l 1
 173 739 l 1
 177 730 l 0
 179 726 179 722 179 718 c 0
 179 704 171 696 169 694 c 0
 167 691 167 692 167 688 c 0
 167 505 l 0
 167 470 168 439 183 407 c 0
 207 358 257 331 310 331 c 0
 362 331 412 357 437 406 c 0
 453 439 455 471 455 508 c 0
 455 739 l 1
 564 739 l 1
 564 0 l 1
 455 0 l 1
 455 270 l 1
 411 243 361 229 309 229 c 0
 217 229 129 269 85 349 c 0
EndSplineSet
EndChar

StartChar: afii10042
Encoding: 1064 1064 391
Width: 613
Flags: W
LayerCount: 2
Fore
SplineSet
0 15 m 2
 29 15 l 1
 29 739 l 1
 146 739 l 1
 150 731 l 2
 152 727 153 723 153 719 c 0
 153 699 146 701 146 697 c 2
 146 101 l 1
 256 101 l 1
 256 739 l 1
 370 739 l 1
 375 732 l 2
 377 728 378 724 378 720 c 0
 378 698 370 701 370 699 c 2
 370 101 l 1
 475 101 l 1
 475 739 l 1
 589 739 l 1
 594 732 l 2
 596 728 598 724 598 720 c 0
 598 698 589 701 589 699 c 2
 589 0 l 1
 29 0 l 1
 29 2 53 15 0 15 c 2
EndSplineSet
EndChar

StartChar: afii10043
Encoding: 1065 1065 392
Width: 613
Flags: W
LayerCount: 2
Fore
SplineSet
498 0 m 1
 3 0 l 1
 3 739 l 1
 120 739 l 1
 124 731 l 0
 126 727 127 723 127 719 c 0
 127 699 120 701 120 697 c 0
 120 101 l 1
 230 101 l 1
 230 739 l 1
 345 739 l 1
 349 732 l 0
 351 728 353 724 353 720 c 0
 353 698 344 701 344 699 c 0
 344 101 l 1
 450 101 l 1
 450 739 l 1
 564 739 l 1
 568 732 l 0
 570 728 572 724 572 720 c 0
 572 698 563 701 563 699 c 0
 563 101 l 1
 611 101 l 1
 611 -172 l 1
 498 -172 l 1
 498 0 l 1
EndSplineSet
EndChar

StartChar: afii10044
Encoding: 1066 1066 393
Width: 613
Flags: W
LayerCount: 2
Fore
SplineSet
144 634 m 1
 32 634 l 1
 32 739 l 1
 257 739 l 1
 257 449 l 1
 265 449 l 0
 346 449 416 449 481 406 c 0
 545 364 582 301 582 213 c 0
 582 134 535 58 450 23 c 0
 396 1 341 0 291 0 c 0
 144 0 l 1
 144 634 l 1
257 348 m 1
 257 103 l 1
 306 103 l 0
 338 103 366 104 395 116 c 0
 440 135 465 176 465 221 c 0
 465 266 438 310 389 332 c 0
 356 347 322 348 285 348 c 0
 257 348 l 1
EndSplineSet
EndChar

StartChar: afii10045
Encoding: 1067 1067 394
Width: 613
Flags: W
LayerCount: 2
Fore
SplineSet
164 0 m 0
 42 0 l 1
 42 739 l 1
 155 739 l 1
 159 731 l 0
 161 727 162 723 162 719 c 0
 162 699 155 701 155 697 c 0
 155 445 l 1
 227 445 276 445 333 403 c 0
 390 361 422 297 422 211 c 0
 422 133 381 58 305 23 c 0
 256 0 208 0 164 0 c 0
155 348 m 1
 155 103 l 1
 177 103 l 0
 205 103 223 104 246 116 c 0
 282 134 303 175 303 221 c 0
 303 267 281 312 242 333 c 0
 215 348 192 348 159 348 c 0
 155 348 l 1
568 0 m 1
 455 0 l 1
 455 739 l 1
 568 739 l 1
 572 731 l 0
 574 727 575 723 575 719 c 0
 575 699 568 701 568 697 c 0
 568 0 l 1
EndSplineSet
EndChar

StartChar: afii10046
Encoding: 1068 1068 395
Width: 613
Flags: W
LayerCount: 2
Fore
SplineSet
276 0 m 0
 52 0 l 1
 52 739 l 1
 165 739 l 1
 169 731 l 0
 171 727 172 723 172 719 c 0
 172 699 165 701 165 697 c 0
 165 449 l 1
 265 449 l 0
 346 449 402 448 466 406 c 0
 530 364 567 301 567 213 c 0
 567 134 520 58 435 23 c 0
 381 1 326 0 276 0 c 0
165 348 m 1
 165 103 l 1
 291 103 l 0
 323 103 351 104 380 116 c 0
 425 135 450 176 450 221 c 0
 450 266 424 310 375 332 c 0
 342 347 307 348 270 348 c 0
 165 348 l 1
EndSplineSet
EndChar

StartChar: afii10047
Encoding: 1069 1069 396
Width: 613
Flags: W
LayerCount: 2
Fore
SplineSet
44 143 m 0
 38 157 l 1
 139 206 l 1
 146 201 l 0
 159 192 158 178 158 177 c 0
 158 172 157 169 157 168 c 0
 157 166 157 167 159 163 c 0
 186 116 236 85 288 85 c 0
 376 85 461 169 469 333 c 1
 179 333 l 1
 179 439 l 1
 464 439 l 1
 442 575 363 643 281 643 c 0
 229 643 175 612 143 560 c 0
 135 547 l 1
 48 604 l 1
 55 616 l 0
 104 696 192 745 286 745 c 0
 417 745 582 649 582 368 c 0
 582 77 408 -12 285 -12 c 0
 181 -12 86 48 44 143 c 0
EndSplineSet
EndChar

StartChar: afii10048
Encoding: 1070 1070 397
Width: 613
Flags: W
LayerCount: 2
Fore
SplineSet
127 0 m 1
 15 0 l 1
 15 739 l 1
 128 739 l 1
 132 731 l 0
 134 727 135 723 135 719 c 0
 135 699 127 701 127 697 c 0
 127 439 l 1
 182 439 l 1
 199 668 307 748 395 748 c 0
 464 748 532 699 570 604 c 0
 602 525 605 435 605 368 c 0
 605 305 602 215 571 136 c 0
 533 38 464 -11 396 -11 c 0
 302 -11 190 80 180 333 c 1
 127 333 l 1
 127 0 l 1
392 639 m 0
 358 639 292 590 292 381 c 0
 292 157 358 100 395 100 c 0
 417 100 450 119 471 185 c 0
 490 243 492 313 492 358 c 0
 492 417 489 482 474 539 c 0
 453 618 415 639 392 639 c 0
EndSplineSet
EndChar

StartChar: afii10049
Encoding: 1071 1071 398
Width: 613
Flags: W
LayerCount: 2
Fore
SplineSet
156 0 m 1
 28 0 l 1
 202 323 l 1
 115 354 58 436 58 530 c 0
 58 606 97 678 171 714 c 0
 221 739 271 739 319 739 c 0
 553 739 l 1
 553 0 l 1
 438 0 l 1
 438 311 l 1
 320 311 l 1
 156 0 l 1
236 617 m 0
 196 598 174 560 174 520 c 0
 174 481 194 444 231 427 c 0
 256 415 281 415 310 415 c 0
 438 415 l 1
 438 631 l 1
 319 631 l 0
 288 631 263 629 236 617 c 0
EndSplineSet
EndChar

StartChar: afii10066
Encoding: 1073 1073 400
Width: 613
Flags: W
LayerCount: 2
Fore
SplineSet
309 451 m 0
 236 451 164 394 164 277 c 0
 164 167 223 90 313 90 c 0
 382 90 455 145 455 265 c 0
 455 397 377 451 309 451 c 0
102 87 m 0
 52 159 44 250 44 333 c 0
 44 401 50 484 77 554 c 1
 124 688 226 748 321 748 c 0
 350 748 393 763 405 770 c 1
 406 774 408 785 418 793 c 0
 432 804 l 1
 490 701 l 1
 482 693 l 0
 445 658 368 643 321 643 c 0
 285 643 218 630 184 518 c 1
 224 542 268 554 315 554 c 0
 447 554 572 453 572 269 c 0
 572 92 450 -14 312 -14 c 0
 222 -14 148 21 102 87 c 0
EndSplineSet
EndChar

StartChar: afii10067
Encoding: 1074 1074 401
Width: 613
Flags: W
LayerCount: 2
Fore
SplineSet
284 0 m 0
 76 0 l 1
 76 543 l 1
 285 543 l 0
 330 543 371 543 420 527 c 0
 495 504 524 454 524 402 c 0
 524 358 499 317 458 292 c 1
 530 265 553 211 553 156 c 0
 553 97 518 41 433 16 c 0
 380 0 334 0 284 0 c 0
189 243 m 1
 189 103 l 1
 298 103 l 0
 330 103 351 104 381 111 c 0
 426 122 435 142 435 165 c 0
 435 191 422 229 378 237 c 0
 343 244 315 243 278 243 c 0
 189 243 l 1
189 441 m 1
 189 344 l 1
 273 344 l 0
 306 344 332 344 364 350 c 0
 402 357 410 379 410 396 c 0
 410 411 404 426 360 435 c 0
 329 441 306 441 274 441 c 0
 189 441 l 1
EndSplineSet
EndChar

StartChar: afii10068
Encoding: 1075 1075 402
Width: 613
Flags: W
LayerCount: 2
Fore
SplineSet
202 0 m 1
 88 0 l 1
 88 544 l 1
 524 543 l 1
 524 443 l 1
 202 444 l 1
 202 0 l 1
EndSplineSet
EndChar

StartChar: afii10069
Encoding: 1076 1076 403
Width: 613
Flags: W
LayerCount: 2
Fore
SplineSet
42 -171 m 1
 42 100 l 1
 103 100 l 1
 103 101 103 101 103 102 c 0
 110 119 120 145 124 164 c 0
 144 252 157 363 165 462 c 0
 168 499 160 523 160 523 c 1
 153 541 l 1
 548 541 l 1
 548 100 l 1
 609 100 l 1
 609 -172 l 1
 495 -172 l 1
 495 -1 l 1
 159 -1 l 1
 159 -171 l 1
 42 -171 l 1
230 124 m 0
 228 116 226 107 224 100 c 1
 433 100 l 1
 433 440 l 1
 275 440 l 1
 265 328 251 206 230 124 c 0
EndSplineSet
EndChar

StartChar: afii10072
Encoding: 1078 1078 405
Width: 613
Flags: W
HStem: 0 17G<126 148 248 360 465 487> 530 12G<138 160 248 365 445 467>
LayerCount: 2
Fore
SplineSet
22 0 m 0
 -5 0 l 1
 190 294 l 1
 16 543 l 1
 78 543 l 0
 98 543 119 543 138 548 c 0
 148 551 l 1
 248 378 l 1
 248 543 l 1
 361 543 l 1
 365 534 l 0
 367 530 368 526 368 522 c 0
 368 501 360 503 360 499 c 0
 360 380 l 1
 456 551 l 1
 467 548 l 0
 486 543 506 543 526 543 c 0
 587 543 l 1
 420 293 l 1
 618 0 l 1
 591 0 l 0
 533 0 487 -4 487 -4 c 0
 477 -5 l 1
 360 194 l 1
 360 0 l 1
 248 0 l 1
 248 198 l 1
 136 -5 l 1
 126 -4 l 0
 126 -4 80 0 22 0 c 0
EndSplineSet
EndChar

StartChar: afii10073
Encoding: 1079 1079 406
Width: 613
Flags: W
LayerCount: 2
Fore
SplineSet
82 96 m 0
 73 105 l 1
 127 184 l 1
 140 174 l 0
 179 143 209 107 294 107 c 1
 365 108 428 139 428 163 c 0
 428 181 434 227 294 227 c 0
 275 227 277 226 257 224 c 0
 240 222 l 1
 240 338 l 1
 257 337 l 0
 269 336 282 336 294 336 c 0
 418 336 424 361 424 381 c 0
 424 410 388 436 322 436 c 0
 259 436 200 425 158 383 c 0
 145 370 l 1
 87 449 l 1
 96 458 l 0
 153 518 239 546 321 546 c 0
 443 546 541 468 541 381 c 0
 541 337 514 305 478 286 c 1
 526 261 544 211 544 163 c 0
 544 62 420 0 293 -0 c 0
 203 0 140 36 82 96 c 0
EndSplineSet
EndChar

StartChar: afii10074
Encoding: 1080 1080 407
Width: 613
Flags: W
LayerCount: 2
Fore
SplineSet
159 0 m 1
 70 0 l 1
 70 542 l 1
 186 542 l 1
 186 183 l 1
 436 542 l 1
 542 542 l 1
 542 0 l 1
 430 0 l 1
 431 392 l 1
 159 0 l 1
EndSplineSet
EndChar

StartChar: afii10077
Encoding: 1083 1083 410
Width: 613
Flags: W
LayerCount: 2
Fore
SplineSet
6 41 m 0
 2 47 l 1
 42 150 l 1
 59 131 l 0
 68 121 68 110 68 109 c 1
 72 103 88 88 95 87 c 1
 96 88 97 91 99 96 c 0
 106 113 116 140 120 159 c 0
 140 248 153 360 161 461 c 0
 164 498 156 522 156 522 c 1
 149 541 l 1
 544 541 l 1
 544 -1 l 1
 429 -1 l 1
 429 440 l 1
 271 440 l 1
 261 325 247 202 226 118 c 0
 219 89 209 55 191 28 c 0
 170 -3 120 -8 95 -8 c 0
 60 -8 29 10 6 41 c 0
EndSplineSet
EndChar

StartChar: afii10078
Encoding: 1084 1084 411
Width: 613
Flags: W
LayerCount: 2
Fore
SplineSet
152 -1 m 1
 43 -1 l 1
 43 542 l 1
 132 542 l 1
 307 298 l 1
 486 543 l 1
 571 543 l 1
 571 -1 l 1
 462 -1 l 1
 462 370 l 1
 325 174 l 1
 277 174 l 1
 152 365 l 1
 152 -1 l 1
EndSplineSet
EndChar

StartChar: afii10079
Encoding: 1085 1085 412
Width: 613
Flags: W
LayerCount: 2
Fore
SplineSet
186 0 m 1
 69 0 l 1
 69 541 l 1
 186 541 l 1
 186 331 l 1
 430 331 l 1
 430 541 l 1
 544 541 l 1
 544 -1 l 1
 429 -1 l 1
 429 229 l 1
 186 229 l 1
 186 0 l 1
EndSplineSet
EndChar

StartChar: afii10081
Encoding: 1087 1087 414
Width: 613
Flags: W
LayerCount: 2
Fore
SplineSet
186 0 m 1
 69 0 l 1
 69 541 l 1
 544 541 l 1
 544 -1 l 1
 429 -1 l 1
 429 440 l 1
 186 440 l 1
 186 0 l 1
EndSplineSet
EndChar

StartChar: afii10084
Encoding: 1090 1090 417
Width: 613
Flags: W
LayerCount: 2
Fore
SplineSet
242 437 m 1
 54 437 l 1
 54 543 l 1
 543 543 l 1
 543 437 l 1
 356 437 l 1
 356 -1 l 1
 242 -1 l 1
 242 437 l 1
EndSplineSet
EndChar

StartChar: afii10086
Encoding: 1092 1092 419
Width: 613
Flags: W
HStem: -197 22G<252 369>
VStem: 43 116<167 380> 252 117<-197 -3 86 453 541 688> 459 113<161 374>
LayerCount: 2
Fore
SplineSet
252 547 m 1
 252 688 l 1
 369 705 l 1
 369 547 l 1
 479 522 571 425 571 268 c 0
 571 117 480 18 369 -7 c 1
 369 -197 l 1
 252 -197 l 1
 252 -9 l 1
 130 18 43 126 43 267 c 0
 43 410 132 519 252 547 c 1
159 274 m 0
 159 179 201 111 252 84 c 1
 252 458 l 1
 201 433 159 370 159 274 c 0
459 265 m 0
 459 365 415 426 369 453 c 1
 369 86 l 1
 417 112 459 172 459 265 c 0
EndSplineSet
EndChar

StartChar: afii10088
Encoding: 1094 1094 421
Width: 613
Flags: W
LayerCount: 2
Fore
SplineSet
493 0 m 1
 67 0 l 1
 67 543 l 1
 184 543 l 1
 184 101 l 1
 425 101 l 1
 425 543 l 1
 539 543 l 1
 539 101 l 1
 606 101 l 1
 606 -172 l 1
 493 -172 l 1
 493 0 l 1
EndSplineSet
EndChar

StartChar: afii10089
Encoding: 1095 1095 422
Width: 613
Flags: W
LayerCount: 2
Fore
SplineSet
91 266 m 1
 68 315 69 364 69 409 c 2
 70 542 l 1
 186 542 l 1
 186 411 l 0
 186 376 187 339 204 307 c 1
 223 271 257 252 294 252 c 0
 339 252 383 281 405 320 c 0
 422 349 425 376 425 415 c 0
 425 542 l 1
 542 542 l 1
 542 0 l 1
 425 0 l 1
 426 217 l 1
 386 175 331 151 274 151 c 0
 198 151 125 192 91 266 c 1
EndSplineSet
EndChar

StartChar: afii10090
Encoding: 1096 1096 423
Width: 613
Flags: W
LayerCount: 2
Fore
SplineSet
0 15 m 2
 29 15 l 1
 29 543 l 1
 146 543 l 1
 146 101 l 1
 256 101 l 1
 256 543 l 1
 370 543 l 1
 370 101 l 1
 475 101 l 1
 475 543 l 1
 589 543 l 1
 589 0 l 1
 29 0 l 1
 29 2 53 15 0 15 c 2
EndSplineSet
EndChar

StartChar: afii10091
Encoding: 1097 1097 424
Width: 613
Flags: W
LayerCount: 2
Fore
SplineSet
498 0 m 1
 3 0 l 1
 3 543 l 1
 120 543 l 1
 120 101 l 1
 230 101 l 1
 230 543 l 1
 344 543 l 1
 344 101 l 1
 450 101 l 1
 450 543 l 1
 563 543 l 1
 563 101 l 1
 611 101 l 1
 611 -172 l 1
 498 -172 l 1
 498 0 l 1
EndSplineSet
EndChar

StartChar: afii10092
Encoding: 1098 1098 425
Width: 613
Flags: W
LayerCount: 2
Fore
SplineSet
144 437 m 1
 32 437 l 1
 32 543 l 1
 257 543 l 1
 257 340 l 1
 371 340 431 333 471 305 c 0
 523 268 558 222 558 157 c 0
 558 95 496 36 432 16 c 0
 400 6 313 0 267 0 c 0
 144 0 l 1
 144 437 l 1
257 243 m 1
 257 103 l 1
 282 103 l 0
 314 103 352 104 378 111 c 0
 421 122 437 144 437 165 c 0
 437 189 415 229 374 237 c 0
 343 243 298 243 261 243 c 0
 257 243 l 1
EndSplineSet
EndChar

StartChar: afii10093
Encoding: 1099 1099 426
Width: 613
Flags: W
LayerCount: 2
Fore
SplineSet
166 0 m 0
 43 0 l 1
 43 543 l 1
 156 543 l 1
 160 534 l 0
 162 530 163 527 163 523 c 0
 163 503 156 505 156 501 c 0
 156 340 l 1
 270 340 307 332 346 305 c 0
 400 268 423 220 423 157 c 0
 423 97 373 36 307 16 c 0
 276 6 212 0 166 0 c 0
156 243 m 1
 156 103 l 1
 180 103 l 0
 212 103 225 104 253 111 c 0
 294 122 302 141 302 165 c 0
 302 191 289 229 249 237 c 0
 216 244 197 243 160 243 c 0
 156 243 l 1
568 0 m 1
 455 0 l 1
 455 543 l 1
 568 543 l 1
 572 534 l 0
 574 530 575 527 575 523 c 0
 575 503 568 505 568 501 c 0
 568 0 l 1
EndSplineSet
EndChar

StartChar: afii10094
Encoding: 1100 1100 427
Width: 613
Flags: W
LayerCount: 2
Fore
SplineSet
262 0 m 0
 92 0 l 1
 92 543 l 1
 205 543 l 1
 209 534 l 0
 211 530 212 527 212 523 c 0
 212 503 205 505 205 501 c 0
 205 344 l 1
 250 344 l 0
 364 344 409 337 450 309 c 0
 506 271 530 223 530 159 c 0
 530 98 478 36 410 16 c 0
 377 6 308 0 262 0 c 0
205 243 m 1
 205 103 l 1
 276 103 l 0
 308 103 329 104 359 111 c 0
 404 122 413 142 413 165 c 0
 413 191 399 229 355 237 c 0
 320 244 292 243 255 243 c 0
 205 243 l 1
EndSplineSet
EndChar

StartChar: afii10095
Encoding: 1101 1101 428
Width: 613
Flags: W
LayerCount: 2
Fore
SplineSet
64 94 m 0
 57 103 l 1
 135 194 l 1
 146 185 l 0
 165 171 158 153 158 153 c 1
 163 145 204 90 285 90 c 0
 372 90 441 148 448 244 c 1
 202 244 l 5
 202 340 l 5
 436 340 l 1
 411 405 351 444 278 444 c 0
 228 444 180 422 146 384 c 0
 134 371 l 1
 64 452 l 1
 74 462 l 0
 129 521 205 553 285 553 c 0
 447 553 567 431 567 269 c 0
 567 107 448 -13 280 -13 c 0
 188 -13 110 27 64 94 c 0
EndSplineSet
EndChar

StartChar: afii10096
Encoding: 1102 1102 429
Width: 613
Flags: W
LayerCount: 2
Fore
SplineSet
47 -15 m 29
 47 558 l 1
 160 558 l 1
 164 550 l 0
 166 546 167 541 167 537 c 0
 167 516 160 518 160 514 c 0
 160 340 l 1
 216 340 l 1
 235 472 306 569 396 569 c 0
 492 569 572 458 572 269 c 0
 572 87 494 -30 395 -30 c 0
 294 -30 218 90 211 244 c 1
 160 244 l 1
 160 -15 l 1
 47 -15 l 29
454 265 m 0
 454 405 411 451 392 451 c 0
 371 451 331 399 331 274 c 0
 331 148 372 90 394 90 c 0
 413 90 454 137 454 265 c 0
EndSplineSet
EndChar

StartChar: afii10097
Encoding: 1103 1103 430
Width: 613
Flags: W
LayerCount: 2
Fore
SplineSet
187 0 m 1
 57 0 l 1
 213 214 l 1
 194 220 182 227 168 237 c 0
 115 275 92 323 92 386 c 0
 92 446 141 506 206 526 c 0
 236 535 284 543 321 543 c 0
 530 543 l 1
 530 0 l 1
 418 0 l 1
 418 198 l 1
 335 198 l 1
 187 0 l 1
255 432 m 0
 214 422 210 403 210 378 c 0
 210 350 219 314 259 306 c 0
 294 299 297 299 326 299 c 0
 418 299 l 1
 418 439 l 1
 309 439 l 0
 284 439 285 440 255 432 c 0
EndSplineSet
EndChar

StartChar: afii10051
Encoding: 1026 1026 433
Width: 613
Flags: W
LayerCount: 2
Fore
SplineSet
112 635 m 1
 -1 635 l 1
 -1 740 l 1
 404 740 l 1
 404 635 l 1
 227 635 l 1
 227 455 l 1
 270 496 332 519 384 519 c 0
 446 519 539 499 570 431 c 0
 591 385 591 327 591 288 c 0
 591 66 l 0
 591 14 590 -45 559 -101 c 1
 521 -171 438 -207 363 -207 c 0
 294 -207 226 -175 179 -119 c 0
 171 -110 l 1
 244 -20 l 1
 256 -30 l 0
 267 -40 266 -55 266 -55 c 1
 275 -64 315 -102 365 -102 c 0
 396 -102 438 -86 453 -62 c 1
 476 -30 477 13 477 55 c 0
 477 285 l 0
 477 320 475 358 453 385 c 0
 442 398 391 411 354 411 c 0
 321 411 261 386 247 367 c 0
 237 353 230 320 227 301 c 1
 227 -1 l 1
 112 -1 l 1
 112 635 l 1
EndSplineSet
EndChar

StartChar: afii10053
Encoding: 1028 1028 435
Width: 613
Flags: W
LayerCount: 2
Fore
SplineSet
339 -12 m 0
 208 -12 43 84 43 365 c 0
 43 656 217 745 340 745 c 0
 444 745 538 685 580 590 c 0
 586 576 l 1
 486 527 l 1
 479 532 l 0
 466 541 467 555 467 556 c 0
 467 561 467 564 467 565 c 0
 467 567 467 566 465 570 c 0
 438 617 389 648 337 648 c 0
 256 648 177 577 159 439 c 1
 445 439 l 1
 445 333 l 1
 156 333 l 1
 168 171 255 90 344 90 c 0
 396 90 449 121 481 173 c 0
 490 186 l 1
 577 130 l 1
 569 117 l 0
 520 37 433 -12 339 -12 c 0
EndSplineSet
EndChar

StartChar: afii10058
Encoding: 1033 1033 440
Width: 613
Flags: W
LayerCount: 2
Fore
SplineSet
6 42 m 0
 2 48 l 1
 42 153 l 1
 59 133 l 0
 68 122 68 111 68 110 c 0
 69 108 71 104 73 100 c 1
 76 120 77 146 78 159 c 0
 84 237 90 536 92 655 c 0
 93 686 84 722 84 722 c 0
 80 740 l 1
 393 740 l 1
 398 732 l 0
 400 728 400 724 400 720 c 0
 400 700 393 702 393 698 c 0
 393 446 l 1
 450 446 492 445 538 403 c 0
 584 360 610 297 610 212 c 0
 610 135 577 60 514 24 c 0
 474 1 434 1 398 1 c 0
 280 1 l 1
 280 636 l 1
 204 636 l 1
 200 495 194 206 185 122 c 0
 175 23 136 -8 95 -8 c 0
 60 -8 29 10 6 42 c 0
393 365 m 1
 393 104 l 1
 403 104 l 0
 422 104 436 105 451 116 c 0
 476 134 493 179 493 229 c 0
 493 280 475 328 448 350 c 0
 430 364 414 365 393 365 c 1
EndSplineSet
EndChar

StartChar: afii10059
Encoding: 1034 1034 441
Width: 613
Flags: W
LayerCount: 2
Fore
SplineSet
133 0 m 1
 16 0 l 1
 16 739 l 1
 133 739 l 1
 138 731 l 0
 140 727 141 723 141 719 c 0
 141 699 133 701 133 697 c 0
 133 438 l 1
 267 438 l 1
 267 740 l 1
 380 740 l 1
 385 732 l 0
 387 728 388 724 388 720 c 0
 388 700 380 702 380 698 c 0
 380 446 l 1
 441 446 484 445 532 403 c 0
 581 360 608 298 608 212 c 0
 608 135 574 60 508 24 c 0
 466 1 424 1 386 1 c 0
 267 1 l 1
 267 337 l 1
 133 337 l 1
 133 0 l 1
380 365 m 1
 380 104 l 1
 393 104 l 0
 414 104 429 105 446 117 c 0
 473 136 491 179 491 229 c 0
 491 279 473 327 443 349 c 0
 423 363 403 365 380 365 c 1
EndSplineSet
EndChar

StartChar: afii10060
Encoding: 1035 1035 442
Width: 613
Flags: W
LayerCount: 2
Fore
SplineSet
128 635 m 1
 15 635 l 1
 15 740 l 1
 420 740 l 1
 420 635 l 1
 243 635 l 1
 243 455 l 1
 286 496 347 519 399 519 c 0
 462 519 542 497 573 431 c 0
 594 385 594 329 594 290 c 0
 594 -1 l 1
 479 -1 l 1
 479 285 l 0
 479 320 478 358 456 385 c 0
 444 400 406 411 370 411 c 0
 337 411 276 386 262 367 c 0
 252 353 246 320 243 301 c 1
 243 -1 l 1
 128 -1 l 1
 128 635 l 1
EndSplineSet
EndChar

StartChar: afii10145
Encoding: 1039 1039 445
Width: 613
Flags: W
LayerCount: 2
Fore
SplineSet
256 0 m 1
 49 0 l 1
 49 739 l 1
 166 739 l 1
 171 731 l 0
 173 727 173 723 173 719 c 0
 173 699 166 701 166 697 c 0
 166 101 l 1
 455 101 l 1
 455 739 l 1
 569 739 l 1
 573 732 l 0
 575 728 577 724 577 720 c 0
 577 698 568 701 568 699 c 0
 568 0 l 1
 370 0 l 1
 370 -172 l 1
 256 -172 l 1
 256 0 l 1
EndSplineSet
EndChar

StartChar: afii10099
Encoding: 1106 1106 446
Width: 613
Flags: W
LayerCount: 2
Fore
SplineSet
105 614 m 1
 31 614 l 1
 31 709 l 1
 105 709 l 1
 105 788 l 1
 230 788 l 1
 233 778 l 0
 234 775 235 773 235 770 c 0
 235 755 224 747 223 746 c 0
 223 746 223 746 223 745 c 0
 223 709 l 1
 356 709 l 1
 356 614 l 1
 223 614 l 1
 223 476 l 1
 265 522 324 555 388 555 c 0
 456 555 517 518 546 455 c 0
 567 410 567 364 567 324 c 0
 566 47 l 0
 566 2 565 -43 540 -90 c 0
 500 -168 419 -207 337 -207 c 0
 265 -207 201 -177 159 -125 c 0
 152 -116 l 1
 224 -20 l 1
 236 -30 l 0
 250 -41 250 -56 250 -56 c 0
 253 -60 284 -102 342 -102 c 0
 382 -102 419 -81 437 -43 c 0
 449 -19 452 5 452 32 c 0
 452 319 l 0
 452 355 451 395 426 423 c 0
 410 442 387 450 364 450 c 0
 315 450 266 409 247 385 c 0
 227 360 223 340 223 307 c 0
 223 0 l 1
 105 0 l 1
 105 614 l 1
EndSplineSet
EndChar

StartChar: afii10101
Encoding: 1108 1108 448
Width: 613
Flags: W
LayerCount: 2
Fore
SplineSet
344 -13 m 0
 182 -13 61 109 61 271 c 0
 61 433 181 553 349 553 c 0
 441 553 519 513 565 446 c 0
 571 436 l 1
 494 346 l 1
 482 354 l 0
 463 368 470 387 470 387 c 1
 465 395 425 450 344 450 c 0
 270 450 209 409 188 340 c 1
 427 340 l 1
 427 244 l 1
 183 244 l 1
 197 153 265 95 351 95 c 0
 401 95 449 118 483 156 c 0
 495 169 l 1
 564 88 l 1
 555 78 l 0
 500 19 424 -13 344 -13 c 0
EndSplineSet
EndChar

StartChar: afii10106
Encoding: 1113 1113 453
Width: 613
Flags: W
LayerCount: 2
Fore
SplineSet
393 258 m 1
 393 102 l 1
 417 102 440 103 461 110 c 0
 492 121 500 143 500 171 c 0
 500 202 488 242 459 250 c 0
 433 257 421 258 393 258 c 1
6 41 m 2
 2 47 l 1
 42 150 l 1
 59 131 l 2
 68 121 68 109 68 108 c 0
 69 106 71 102 73 98 c 1
 76 117 77 144 78 157 c 0
 82 205 85 336 89 457 c 0
 90 488 81 523 81 523 c 1
 77 541 l 1
 393 541 l 1
 398 533 l 2
 400 529 401 525 401 521 c 0
 401 501 393 504 393 500 c 2
 393 339 l 1
 483 339 513 330 546 303 c 0
 591 265 611 219 611 156 c 0
 611 97 570 36 513 15 c 0
 486 5 437 -1 399 -1 c 2
 278 -1 l 1
 279 437 l 1
 199 437 l 1
 195 307 191 173 185 120 c 0
 175 23 136 -8 95 -8 c 0
 60 -8 29 10 6 41 c 2
EndSplineSet
EndChar

StartChar: afii10107
Encoding: 1114 1114 454
Width: 613
Flags: W
LayerCount: 2
Fore
SplineSet
132 0 m 1
 16 0 l 1
 16 541 l 1
 132 541 l 1
 132 331 l 1
 273 331 l 1
 273 541 l 1
 288 541 l 0
 316 541 343 541 371 541 c 0
 387 541 l 1
 391 533 l 0
 393 529 394 525 394 521 c 0
 394 501 386 504 386 500 c 0
 386 339 l 1
 476 339 513 331 546 303 c 0
 591 265 611 219 611 156 c 0
 611 97 570 36 513 15 c 0
 486 5 430 -1 392 -1 c 0
 272 -1 l 1
 272 229 l 1
 132 229 l 1
 132 0 l 1
386 258 m 1
 386 102 l 1
 401 102 l 0
 425 102 439 102 461 110 c 0
 492 121 500 143 500 171 c 0
 500 202 488 242 459 250 c 0
 433 257 414 258 386 258 c 1
EndSplineSet
EndChar

StartChar: afii10108
Encoding: 1115 1115 455
Width: 613
Flags: W
LayerCount: 2
Fore
SplineSet
105 614 m 1
 31 614 l 1
 31 709 l 1
 105 709 l 1
 105 788 l 1
 230 788 l 1
 233 778 l 0
 234 775 235 773 235 770 c 0
 235 755 224 747 223 746 c 0
 223 746 223 746 223 745 c 0
 223 709 l 1
 356 709 l 1
 356 614 l 1
 223 614 l 1
 223 476 l 1
 265 522 324 555 388 555 c 0
 456 555 517 519 546 456 c 0
 567 411 567 366 567 326 c 0
 567 0 l 1
 452 0 l 1
 452 320 l 0
 452 356 451 395 426 423 c 0
 410 441 387 450 364 450 c 0
 315 450 266 409 247 385 c 0
 227 360 223 340 223 307 c 0
 223 0 l 1
 105 0 l 1
 105 614 l 1
EndSplineSet
EndChar

StartChar: afii10193
Encoding: 1119 1119 458
Width: 613
Flags: W
LayerCount: 2
Fore
SplineSet
256 0 m 1
 60 0 l 1
 60 543 l 1
 176 543 l 1
 176 101 l 1
 445 101 l 1
 445 543 l 1
 558 543 l 1
 558 0 l 1
 370 0 l 1
 370 -172 l 1
 256 -172 l 1
 256 0 l 1
EndSplineSet
EndChar

StartChar: afii10050
Encoding: 1168 1168 459
Width: 613
Flags: W
LayerCount: 2
Fore
SplineSet
175 0 m 1
 65 0 l 1
 65 740 l 1
 434 740 l 1
 434 939 l 1
 549 939 l 1
 549 636 l 1
 174 636 l 1
 174 85 l 1
 174 58 175 43 175 15 c 0
 175 0 l 1
EndSplineSet
EndChar

StartChar: afii10098
Encoding: 1169 1169 460
Width: 613
Flags: W
LayerCount: 2
Fore
SplineSet
202 0 m 1
 88 0 l 1
 88 544 l 1
 409 543 l 1
 409 691 l 1
 524 691 l 1
 524 448 l 1
 202 449 l 1
 202 0 l 1
EndSplineSet
EndChar

StartChar: afii61352
Encoding: 8470 8470 461
Width: 613
Flags: W
LayerCount: 2
Fore
SplineSet
376 333 m 0
 376 468 420 568 484 568 c 0
 540 568 585 489 585 347 c 0
 585 194 537 114 480 114 c 0
 419 114 376 204 376 333 c 0
481 481 m 0
 476 481 453 444 453 338 c 0
 453 235 476 203 481 203 c 0
 485 203 509 232 509 338 c 0
 509 444 486 481 481 481 c 0
364 0 m 1
 364 75 l 1
 603 75 l 1
 603 0 l 1
 364 0 l 1
121 0 m 1
 20 0 l 1
 20 739 l 1
 119 739 l 1
 231 322 l 1
 231 741 l 1
 338 741 l 1
 339 733 l 0
 340 722 336 714 335 711 c 0
 332 705 331 705 331 699 c 0
 331 0 l 1
 248 0 l 1
 121 435 l 1
 121 0 l 1
EndSplineSet
EndChar

StartChar: Hbar
Encoding: 294 294 462
Width: 613
Flags: W
LayerCount: 2
Fore
SplineSet
59 644 m 1
 59 739 l 1
 176 739 l 1
 181 731 l 0
 183 727 184 723 184 719 c 0
 184 698 176 699 176 695 c 0
 176 640 l 1
 435 640 l 1
 435 739 l 1
 549 739 l 1
 554 732 l 0
 556 728 557 724 557 720 c 0
 557 698 549 701 549 699 c 0
 549 644 l 1
 599 644 l 1
 599 553 l 1
 549 553 l 1
 549 -1 l 1
 434 -1 l 1
 434 337 l 1
 176 337 l 1
 176 0 l 1
 59 0 l 1
 59 554 l 1
 15 554 l 1
 15 644 l 1
 59 644 l 1
435 438 m 1
 435 561 l 1
 176 561 l 1
 176 438 l 1
 435 438 l 1
EndSplineSet
EndChar

StartChar: Tbar
Encoding: 358 358 485
Width: 613
Flags: W
LayerCount: 2
Fore
SplineSet
32 635 m 1
 32 740 l 1
 574 740 l 1
 574 635 l 1
 356 635 l 1
 356 445 l 1
 524 445 l 1
 524 348 l 1
 356 348 l 1
 356 -1 l 1
 242 -1 l 1
 242 348 l 1
 86 348 l 1
 86 445 l 1
 242 445 l 1
 242 635 l 1
 32 635 l 1
EndSplineSet
EndChar

StartChar: tbar
Encoding: 359 359 491
Width: 613
Flags: W
LayerCount: 2
Fore
SplineSet
209 542 m 1
 219 685 l 1
 335 704 l 1
 340 694 l 0
 343 688 343 683 343 681 c 0
 343 665 336 657 335 653 c 1
 331 630 325 571 323 543 c 1
 499 543 l 1
 499 441 l 1
 319 441 l 1
 315 408 313 375 312 343 c 1
 473 343 l 1
 473 246 l 1
 310 246 l 1
 310 186 313 172 313 165 c 1
 322 114 356 99 389 99 c 0
 418 99 458 113 502 146 c 0
 518 157 l 1
 556 60 l 1
 547 53 l 0
 499 18 434 -10 365 -10 c 0
 306 -10 257 12 228 50 c 1
 193 97 194 152 194 197 c 0
 194 213 194 230 194 246 c 1
 84 246 l 1
 84 343 l 1
 197 343 l 1
 199 377 201 408 204 441 c 1
 78 441 l 1
 79 542 l 1
 209 542 l 1
EndSplineSet
EndChar

StartChar: Uogonek
Encoding: 370 370 499
Width: 613
Flags: W
LayerCount: 2
Fore
SplineSet
54 259 m 2
 54 739 l 1
 173 739 l 1
 177 730 l 2
 179 726 179 723 179 719 c 0
 179 706 171 696 169 694 c 0
 167 691 167 692 167 688 c 2
 167 261 l 2
 167 226 168 194 183 163 c 0
 207 114 257 88 310 88 c 0
 362 88 412 113 437 162 c 0
 453 195 455 228 455 264 c 2
 455 739 l 1
 564 739 l 1
 564 263 l 2
 564 211 563 158 533 105 c 0
 526 92 518 82 509 71 c 1
 509 71 l 0
 506 68 504 65 501 62 c 0
 500 61 498 59 497 58 c 2
 429 -11 l 1
 389 -44 360 -73 350 -83 c 0
 342 -92 332 -103 332 -117 c 0
 332 -131 342 -142 360 -142 c 0
 366 -142 375 -140 387 -136 c 0
 405 -130 416 -122 423 -116 c 2
 433 -108 l 1
 433 -178 l 1
 431 -180 l 2
 406 -201 375 -209 345 -209 c 0
 281 -209 246 -176 246 -135 c 0
 246 -99 275 -57 328 -13 c 1
 322 -13 315 -13 309 -13 c 0
 217 -13 129 26 85 105 c 0
 56 157 54 209 54 259 c 2
EndSplineSet
EndChar

StartChar: IJ
Encoding: 306 306 515
Width: 613
Flags: W
LayerCount: 2
Fore
SplineSet
310 -1 m 1
 15 -1 l 1
 15 99 l 1
 95 99 l 1
 95 639 l 1
 24 639 l 1
 24 739 l 1
 614 739 l 1
 614 639 l 1
 542 639 l 1
 542 71 l 0
 542 20 542 -37 511 -92 c 1
 473 -161 405 -199 329 -199 c 0
 260 -199 192 -167 145 -111 c 0
 137 -102 l 1
 210 -12 l 1
 222 -22 l 0
 233 -32 232 -46 232 -46 c 1
 241 -55 281 -94 331 -94 c 0
 361 -94 388 -80 405 -54 c 1
 428 -22 429 20 429 62 c 0
 429 639 l 1
 209 639 l 1
 209 98 l 1
 310 98 l 1
 310 -1 l 1
EndSplineSet
EndChar

StartChar: ij
Encoding: 307 307 516
Width: 613
Flags: W
LayerCount: 2
Fore
SplineSet
364 0 m 1
 15 0 l 1
 15 99 l 1
 144 99 l 1
 144 442 l 1
 23 442 l 1
 23 543 l 1
 549 543 l 1
 549 47 l 0
 549 2 548 -43 523 -90 c 0
 483 -168 401 -207 319 -207 c 0
 247 -207 184 -177 142 -125 c 0
 134 -116 l 1
 206 -20 l 1
 219 -30 l 0
 233 -41 232 -56 232 -56 c 0
 235 -60 267 -102 325 -102 c 0
 365 -102 402 -81 420 -43 c 0
 432 -19 432 5 432 32 c 0
 432 441 l 1
 261 441 l 1
 261 99 l 1
 364 99 l 1
 364 0 l 1
205 626 m 0
 163 626 128 660 128 702 c 0
 128 744 163 778 205 778 c 0
 247 778 282 744 282 702 c 0
 282 660 247 626 205 626 c 0
492 626 m 0
 450 626 415 660 415 702 c 0
 415 744 450 778 492 778 c 0
 534 778 568 744 568 702 c 0
 568 660 534 626 492 626 c 0
EndSplineSet
EndChar

StartChar: napostrophe
Encoding: 329 329 519
Width: 613
Flags: W
LayerCount: 2
Fore
SplineSet
287 0 m 1
 169 0 l 1
 169 542 l 1
 287 542 l 1
 287 478 l 1
 323 522 367 555 430 555 c 0
 498 555 559 519 588 456 c 0
 609 411 609 366 609 326 c 0
 609 0 l 1
 495 0 l 1
 495 320 l 0
 495 356 494 395 469 423 c 0
 453 441 430 450 407 450 c 0
 359 450 333 412 311 385 c 0
 291 360 287 340 287 307 c 0
 287 0 l 1
EndSplineSet
Refer: 56 8217 N 1 0 0 1 -195 0 2
EndChar

StartChar: longs
Encoding: 383 383 526
Width: 613
Flags: W
LayerCount: 2
Fore
SplineSet
300 0 m 1
 187 0 l 1
 187 548 l 0
 187 596 189 645 219 694 c 1
 260 761 338 796 418 796 c 0
 491 796 554 767 596 716 c 0
 602 709 l 1
 554 612 l 1
 545 612 l 0
 534 612 521 622 520 637 c 1
 520 641 l 1
 519 642 l 1
 519 643 l 0
 499 674 461 698 414 698 c 0
 374 698 336 681 317 646 c 1
 301 618 300 583 300 547 c 0
 300 543 300 541 300 537 c 0
 300 0 l 1
EndSplineSet
EndChar

StartChar: endash
Encoding: 8211 8211 541
Width: 613
Flags: W
LayerCount: 2
Fore
SplineSet
111 334 m 1
 111 443 l 1
 504 443 l 1
 504 334 l 1
 111 334 l 1
EndSplineSet
EndChar

StartChar: emdash
Encoding: 8212 8212 542
Width: 613
Flags: W
LayerCount: 2
Fore
SplineSet
39 334 m 1
 39 443 l 1
 584 443 l 1
 584 334 l 1
 39 334 l 1
EndSplineSet
EndChar

StartChar: afii00208
Encoding: 8213 8213 543
Width: 613
Flags: W
LayerCount: 2
Fore
SplineSet
-15 334 m 1
 -15 443 l 1
 630 443 l 1
 630 334 l 1
 -15 334 l 1
EndSplineSet
EndChar

StartChar: quotereversed
Encoding: 8219 8219 545
Width: 613
Flags: W
LayerCount: 2
Fore
SplineSet
321 440 m 0
 237 517 190 590 190 653 c 0
 190 715 236 757 288 757 c 0
 336 757 372 721 372 682 c 0
 372 646 342 630 332 624 c 0
 321 618 311 612 311 598 c 0
 311 586 320 569 326 561 c 0
 337 545 356 520 383 498 c 0
 396 486 l 1
 331 429 l 1
 321 440 l 0
EndSplineSet
EndChar

StartChar: uni201F
Encoding: 8223 8223 546
Width: 613
Flags: W
LayerCount: 2
Fore
SplineSet
198 440 m 0
 114 517 68 590 68 653 c 0
 68 715 113 757 165 757 c 0
 213 757 249 721 249 682 c 0
 249 646 219 630 209 624 c 0
 198 618 188 612 188 598 c 0
 188 586 197 569 203 561 c 0
 214 545 233 520 260 498 c 0
 273 486 l 1
 208 429 l 1
 198 440 l 0
444 440 m 0
 360 517 313 590 313 653 c 0
 313 715 359 757 411 757 c 0
 459 757 495 721 495 682 c 0
 495 646 465 630 455 624 c 0
 444 618 434 612 434 598 c 0
 434 586 443 569 449 561 c 0
 460 545 479 520 506 498 c 0
 519 486 l 1
 454 429 l 1
 444 440 l 0
EndSplineSet
EndChar

StartChar: perthousand
Encoding: 8240 8240 547
Width: 613
Flags: W
LayerCount: 2
Fore
SplineSet
135 589 m 0
 135 671 116 675 116 675 c 1
 115 675 97 667 97 598 c 0
 97 520 115 513 116 513 c 0
 118 513 135 522 135 589 c 0
16 594 m 0
 16 684 60 753 117 753 c 0
 175 753 218 680 218 588 c 0
 218 584 218 580 218 576 c 2
 263 739 l 1
 359 739 l 1
 219 250 l 1
 237 284 265 306 296 306 c 0
 354 306 398 235 398 146 c 0
 398 59 355 -12 297 -12 c 0
 238 -12 195 60 195 148 c 0
 195 157 195 165 196 174 c 1
 146 -0 l 1
 54 -0 l 1
 190 483 l 1
 172 453 146 435 117 435 c 0
 58 435 16 506 16 594 c 0
523 143 m 0
 523 225 504 228 504 228 c 1
 503 228 485 220 485 151 c 0
 485 73 504 67 505 67 c 0
 507 67 523 76 523 143 c 0
404 147 m 0
 404 237 448 306 505 306 c 0
 563 306 607 235 607 146 c 0
 607 59 564 -12 506 -12 c 0
 447 -12 404 59 404 147 c 0
314 143 m 0
 314 225 295 228 295 228 c 1
 294 228 276 220 276 151 c 0
 276 73 295 67 296 67 c 0
 298 67 314 76 314 143 c 0
EndSplineSet
EndChar

StartChar: minute
Encoding: 8242 8242 548
Width: 613
Flags: W
LayerCount: 2
Fore
SplineSet
216 523 m 1
 301 758 l 1
 443 758 l 1
 321 523 l 1
 216 523 l 1
EndSplineSet
EndChar

StartChar: uni207F
Encoding: 8319 8319 552
Width: 613
Flags: W
LayerCount: 2
Fore
SplineSet
256 512 m 0
 256 299 l 1
 152 299 l 1
 152 624 l 1
 256 624 l 1
 256 604 l 1
 281 621 307 632 338 632 c 0
 385 632 428 604 448 560 c 1
 463 546 462 532 462 522 c 0
 462 299 l 1
 361 299 l 1
 361 521 l 0
 361 537 360 547 351 554 c 0
 350 555 l 1
 349 556 l 0
 342 543 333 536 324 536 c 0
 301 536 276 545 265 550 c 1
 257 538 256 531 256 512 c 0
EndSplineSet
EndChar

StartChar: franc
Encoding: 8355 8355 553
Width: 613
Flags: W
LayerCount: 2
Fore
SplineSet
223 228 m 1
 223 0 l 1
 109 0 l 1
 109 228 l 1
 17 228 l 1
 17 331 l 1
 109 331 l 1
 109 384 l 1
 17 384 l 1
 17 486 l 1
 109 486 l 1
 109 740 l 1
 565 740 l 1
 565 637 l 1
 223 637 l 1
 223 486 l 1
 500 486 l 1
 500 384 l 1
 223 384 l 1
 223 331 l 1
 500 331 l 1
 500 228 l 1
 223 228 l 1
EndSplineSet
EndChar

StartChar: lira
Encoding: 8356 8356 554
Width: 613
Flags: W
LayerCount: 2
Fore
SplineSet
516 675 m 0
 527 665 l 1
 456 577 l 1
 445 586 l 0
 429 597 427 611 426 612 c 0
 423 615 394 641 350 641 c 0
 295 641 238 604 238 520 c 0
 238 502 241 483 245 464 c 1
 366 464 l 1
 366 366 l 1
 268 366 l 1
 271 354 273 342 275 331 c 1
 366 331 l 1
 366 232 l 1
 279 232 l 1
 275 196 264 164 249 135 c 1
 252 135 251 135 253 135 c 0
 339 135 389 91 449 91 c 0
 478 91 506 102 527 120 c 0
 541 133 l 1
 588 43 l 1
 578 35 l 0
 550 13 502 -18 445 -18 c 0
 361 -18 312 35 233 35 c 0
 211 35 168 32 94 -7 c 0
 80 -15 l 1
 36 76 l 1
 50 82 l 0
 106 107 115 109 132 133 c 0
 152 162 165 196 169 232 c 1
 75 232 l 1
 75 331 l 1
 163 331 l 1
 161 343 158 356 156 366 c 1
 75 366 l 1
 75 464 l 1
 133 464 l 1
 130 483 128 501 128 521 c 0
 128 655 234 739 352 739 c 0
 412 739 471 717 516 675 c 0
EndSplineSet
EndChar

StartChar: peseta
Encoding: 8359 8359 555
Width: 613
VWidth: 0
Flags: W
LayerCount: 2
Fore
SplineSet
451 267 m 0
 438 277 395 311 387 393 c 1
 386 353 386 315 386 275 c 0
 386 196 387 176 387 171 c 0
 391 104 409 91 416 91 c 0
 436 91 461 90 489 90 c 0
 496 90 516 110 516 161 c 0
 516 179 513 204 502 221 c 0
 492 236 472 250 451 267 c 0
146 631 m 2
 112 631 l 1
 111 415 l 1
 150 415 l 2
 162 415 170 415 179 424 c 0
 194 439 205 478 205 520 c 0
 205 563 193 604 177 620 c 0
 166 631 159 631 146 631 c 2
489 -12 m 0
 451 -12 435 -12 398 -12 c 0
 358 -12 325 16 308 54 c 0
 288 101 288 154 288 200 c 0
 288 273 289 348 292 420 c 1
 281 386 267 359 245 339 c 0
 216 313 186 311 160 311 c 2
 112 311 l 1
 112 0 l 1
 15 0 l 1
 15 739 l 1
 156 739 l 2
 183 739 215 738 245 712 c 0
 273 689 289 652 299 612 c 1
 303 688 l 1
 395 708 l 1
 398 694 l 2
 399 690 399 688 399 686 c 0
 399 675 396 668 395 661 c 0
 394 641 392 583 391 558 c 1
 452 558 l 1
 467 567 480 570 496 570 c 0
 542 570 578 533 602 476 c 2
 604 471 l 1
 574 373 l 1
 558 382 l 2
 549 387 547 396 547 405 c 0
 547 410 547 410 547 411 c 0
 538 436 501 475 491 475 c 0
 489 475 471 461 471 418 c 0
 471 402 475 379 486 362 c 0
 497 345 537 332 568 295 c 0
 601 256 607 205 607 167 c 0
 607 87 572 -12 489 -12 c 0
389 444 m 1
 389 446 389 449 389 451 c 1
 389 449 389 446 389 444 c 1
EndSplineSet
EndChar

StartChar: uni2070
Encoding: 8304 8304 556
Width: 613
Flags: W
LayerCount: 2
Fore
SplineSet
309 296 m 0
 203 296 99 392 99 548 c 0
 99 683 202 770 308 770 c 0
 412 770 515 688 515 544 c 0
 515 379 406 296 309 296 c 0
203 556 m 0
 203 541 204 527 206 514 c 1
 371 654 l 1
 350 676 327 683 307 683 c 0
 265 683 203 643 203 556 c 0
312 385 m 0
 349 385 412 421 412 538 c 0
 412 555 410 572 408 586 c 1
 244 423 l 1
 266 396 290 385 312 385 c 0
EndSplineSet
EndChar

StartChar: uni2075
Encoding: 8309 8309 557
Width: 613
Flags: W
LayerCount: 2
Fore
SplineSet
200 510 m 1
 130 532 l 1
 153 761 l 1
 489 761 l 1
 489 673 l 1
 248 673 l 1
 242 628 l 1
 267 634 289 636 313 636 c 0
 417 636 511 577 511 468 c 0
 511 354 413 296 306 296 c 0
 232 296 161 323 117 373 c 0
 100 393 l 1
 191 446 l 1
 202 440 l 0
 215 433 219 419 219 414 c 1
 231 404 262 384 305 384 c 0
 359 384 401 414 401 469 c 0
 401 526 357 555 303 555 c 0
 268 555 232 542 209 519 c 0
 200 510 l 1
EndSplineSet
EndChar

StartChar: uni2076
Encoding: 8310 8310 558
Width: 613
Flags: W
LayerCount: 2
Fore
SplineSet
115 531 m 0
 115 570 120 620 142 662 c 0
 182 740 266 772 342 772 c 0
 393 772 444 757 482 727 c 0
 503 711 l 1
 427 645 l 1
 414 652 l 0
 403 658 396 668 395 671 c 1
 387 675 369 684 342 684 c 0
 310 684 248 677 228 614 c 1
 256 630 289 638 324 638 c 0
 415 638 505 578 505 470 c 0
 505 363 416 297 318 297 c 0
 261 297 203 318 164 364 c 0
 122 414 115 477 115 531 c 0
320 385 m 0
 360 385 399 409 399 466 c 0
 399 530 357 551 318 551 c 0
 284 551 247 531 225 504 c 1
 225 501 225 499 225 495 c 0
 225 429 268 385 320 385 c 0
EndSplineSet
EndChar

StartChar: uni2077
Encoding: 8311 8311 559
Width: 613
Flags: W
LayerCount: 2
Fore
SplineSet
360 670 m 1
 125 670 l 1
 125 761 l 1
 498 761 l 1
 498 713 l 1
 495 709 l 0
 456 649 419 589 385 528 c 1
 352 459 321 388 293 318 c 0
 288 304 l 1
 168 304 l 1
 180 334 l 1
 215 408 252 481 292 553 c 0
 314 592 337 632 360 670 c 1
EndSplineSet
EndChar

StartChar: uni2078
Encoding: 8312 8312 560
Width: 613
Flags: W
LayerCount: 2
Fore
SplineSet
198 556 m 1
 161 579 136 613 136 652 c 0
 136 724 220 773 315 773 c 0
 406 773 488 727 488 656 c 0
 488 616 460 581 422 558 c 1
 472 531 507 490 507 442 c 0
 507 355 414 297 307 297 c 0
 202 297 108 354 108 439 c 0
 108 488 148 530 198 556 c 1
310 386 m 0
 366 386 398 417 398 443 c 0
 398 469 363 505 296 523 c 1
 246 505 218 472 218 446 c 0
 218 418 253 386 310 386 c 0
322 571 m 1
 362 590 381 616 381 635 c 0
 381 655 356 681 310 681 c 0
 265 681 242 657 242 639 c 0
 242 610 297 580 322 571 c 1
EndSplineSet
EndChar

StartChar: uni2079
Encoding: 8313 8313 561
Width: 613
Flags: W
LayerCount: 2
Fore
SplineSet
504 557 m 0
 504 480 488 437 477 414 c 0
 437 333 354 297 277 297 c 0
 224 297 174 314 135 343 c 0
 113 359 l 1
 190 424 l 1
 203 417 l 0
 214 411 220 402 222 398 c 1
 230 394 250 386 278 386 c 0
 315 386 354 400 374 436 c 1
 377 443 386 461 391 491 c 1
 363 476 331 468 297 468 c 0
 204 468 116 525 116 617 c 0
 116 709 204 772 304 772 c 0
 371 772 447 744 482 675 c 1
 497 645 504 608 504 557 c 0
302 684 m 0
 259 684 222 662 222 619 c 0
 222 576 260 555 303 555 c 0
 336 555 371 569 393 589 c 1
 394 595 394 596 394 600 c 0
 394 654 350 684 302 684 c 0
EndSplineSet
EndChar

StartChar: afii61248
Encoding: 8453 8453 562
Width: 613
Flags: W
LayerCount: 2
Fore
SplineSet
181 766 m 0
 232 766 276 743 303 704 c 2
 314 688 l 1
 256 620 l 1
 236 634 l 0
 225 642 223 654 223 659 c 1
 217 666 202 678 178 678 c 0
 143 678 114 654 114 604 c 0
 114 551 146 522 182 522 c 0
 202 522 220 531 234 546 c 0
 254 568 l 1
 312 500 l 1
 297 483 l 0
 266 450 223 432 178 432 c 0
 86 432 19 505 19 599 c 0
 19 693 87 766 181 766 c 0
314 146 m 0
 314 235 384 303 468 303 c 0
 544 303 614 245 614 147 c 0
 614 53 545 -7 466 -7 c 0
 383 -7 314 58 314 146 c 0
467 81 m 0
 490 81 520 97 520 146 c 0
 520 200 488 215 465 215 c 0
 440 215 410 197 410 150 c 0
 410 102 441 81 467 81 c 0
EndSplineSet
Refer: 274 8260 N 1 0 0 1 0 0 2
EndChar

StartChar: afii61289
Encoding: 8467 8467 563
Width: 613
Flags: W
LayerCount: 2
Fore
SplineSet
320 170 m 1
 347 124 375 105 401 105 c 0
 425 105 446 110 477 112 c 0
 493 113 l 1
 491 0 l 1
 457 0 l 0
 444 0 412 1 401 1 c 0
 335 1 275 38 229 103 c 1
 194 87 159 79 119 79 c 0
 103 79 l 1
 104 180 l 1
 119 180 l 0
 140 180 160 186 179 195 c 1
 146 276 123 378 123 504 c 0
 123 590 149 796 305 796 c 0
 416 796 463 686 463 508 c 0
 463 395 410 257 320 170 c 1
346 491 m 0
 346 647 330 692 299 692 c 0
 283 692 240 637 244 501 c 0
 247 409 258 328 274 264 c 1
 319 334 346 423 346 491 c 0
EndSplineSet
EndChar

StartChar: estimated
Encoding: 8494 8494 565
Width: 613
Flags: W
LayerCount: 2
Fore
SplineSet
317 748 m 0
 405 748 533 685 558 490 c 0
 562 463 564 436 564 405 c 0
 564 387 564 369 563 351 c 1
 185 351 l 1
 185 148 l 1
 231 87 293 68 335 68 c 0
 389 68 466 98 502 154 c 1
 549 100 l 1
 503 26 406 -12 328 -12 c 0
 182 -12 41 116 41 359 c 0
 41 624 187 748 317 748 c 0
185 422 m 1
 420 422 l 1
 420 614 l 1
 389 650 349 672 311 672 c 0
 277 672 225 653 185 597 c 1
 185 422 l 1
EndSplineSet
EndChar

StartChar: arrowleft
Encoding: 8592 8592 570
Width: 613
Flags: W
LayerCount: 2
Fore
SplineSet
271 185 m 1
 209 109 l 1
 15 348 l 1
 15 383 l 1
 213 597 l 1
 270 517 l 1
 167 417 l 1
 599 417 l 1
 599 307 l 1
 164 307 l 1
 271 185 l 1
EndSplineSet
EndChar

StartChar: arrowright
Encoding: 8594 8594 571
Width: 613
Flags: W
LayerCount: 2
Fore
SplineSet
599 348 m 1
 406 109 l 1
 343 185 l 1
 450 307 l 1
 15 307 l 1
 15 417 l 1
 447 417 l 1
 344 517 l 1
 402 597 l 1
 599 383 l 1
 599 348 l 1
EndSplineSet
EndChar

StartChar: arrowboth
Encoding: 8596 8596 572
Width: 613
Flags: W
LayerCount: 2
Fore
SplineSet
599 348 m 1
 406 109 l 1
 343 185 l 1
 450 307 l 1
 164 307 l 1
 271 185 l 1
 209 109 l 1
 15 348 l 1
 15 383 l 1
 213 597 l 1
 270 517 l 1
 167 417 l 1
 447 417 l 1
 344 517 l 1
 402 597 l 1
 599 383 l 1
 599 348 l 1
EndSplineSet
EndChar

StartChar: arrowupdn
Encoding: 8597 8597 573
Width: 613
Flags: W
LayerCount: 2
Fore
SplineSet
555 243 m 1
 319 -40 l 1
 278 -40 l 1
 58 247 l 1
 143 304 l 1
 250 168 l 1
 250 565 l 1
 129 416 l 1
 54 477 l 1
 291 760 l 1
 331 760 l 1
 551 473 l 1
 466 416 l 1
 359 561 l 1
 359 164 l 1
 480 304 l 1
 555 243 l 1
EndSplineSet
EndChar

StartChar: partialdiff
Encoding: 8706 8706 574
Width: 613
Flags: W
LayerCount: 2
Fore
SplineSet
455 283 m 0
 455 434 367 466 313 466 c 0
 242 466 164 411 164 283 c 0
 164 156 238 90 313 90 c 0
 371 90 455 131 455 283 c 0
169 750 m 0
 126 769 l 1
 274 799 l 1
 279 796 l 0
 466 694 572 524 572 304 c 0
 572 241 565 165 524 100 c 0
 478 26 398 -14 314 -14 c 0
 168 -14 43 106 43 272 c 0
 43 437 163 570 305 570 c 0
 342 570 377 559 407 543 c 1
 353 637 269 707 169 750 c 0
EndSplineSet
EndChar

StartChar: radical
Encoding: 8730 8730 580
Width: 613
Flags: W
LayerCount: 2
Fore
SplineSet
189 483 m 1
 290 174 l 1
 527 795 l 1
 625 747 l 1
 343 0 l 1
 234 0 l 1
 123 339 l 1
 15 144 l 1
 15 355 l 1
 88 483 l 1
 189 483 l 1
EndSplineSet
EndChar

StartChar: infinity
Encoding: 8734 8734 581
Width: 613
Flags: W
LayerCount: 2
Fore
SplineSet
434 237 m 0
 376 237 329 267 300 304 c 1
 272 268 229 237 185 237 c 0
 107 237 42 327 42 408 c 0
 42 486 104 574 181 574 c 0
 240 574 286 541 314 504 c 1
 342 542 384 574 429 574 c 0
 507 574 572 484 572 403 c 0
 572 325 511 237 434 237 c 0
350 398 m 1
 370 363 397 334 424 334 c 0
 443 334 481 372 481 407 c 0
 481 441 445 478 428 478 c 0
 399 478 362 422 350 398 c 1
264 413 m 1
 244 448 217 477 190 477 c 0
 171 477 134 439 134 404 c 0
 134 370 170 333 187 333 c 0
 216 333 252 389 264 413 c 1
EndSplineSet
EndChar

StartChar: orthogonal
Encoding: 8735 8735 582
Width: 613
Flags: W
LayerCount: 2
Fore
SplineSet
203 587 m 1
 203 290 l 1
 515 290 l 1
 515 186 l 1
 99 186 l 1
 99 587 l 1
 203 587 l 1
EndSplineSet
EndChar

StartChar: intersection
Encoding: 8745 8745 583
Width: 613
Flags: W
LayerCount: 2
Fore
SplineSet
164 72 m 1
 54 72 l 1
 54 266 l 0
 54 320 56 375 86 430 c 0
 131 513 220 554 310 554 c 0
 402 554 490 513 534 431 c 0
 563 376 564 322 564 270 c 0
 564 72 l 1
 452 72 l 1
 452 271 l 0
 452 308 450 341 435 374 c 0
 411 425 361 453 308 453 c 0
 256 453 206 426 181 375 c 0
 165 341 164 306 164 268 c 0
 164 72 l 1
EndSplineSet
EndChar

StartChar: integral
Encoding: 8747 8747 584
Width: 613
Flags: W
LayerCount: 2
Fore
SplineSet
369 552 m 0
 369 45 l 2
 369 1 372 -46 347 -94 c 0
 308 -168 247 -207 164 -207 c 0
 92 -207 46 -175 6 -125 c 0
 -1 -116 l 1
 71 -20 l 1
 84 -30 l 0
 98 -41 97 -56 97 -56 c 0
 103 -67 113 -102 169 -102 c 0
 207 -102 224 -86 244 -45 c 0
 256 -21 256 4 256 32 c 0
 256 556 l 0
 256 603 258 650 288 697 c 1
 328 760 385 796 466 796 c 0
 540 796 583 765 623 716 c 0
 630 709 l 1
 582 612 l 1
 572 612 l 0
 561 612 549 622 548 637 c 1
 548 640 547 641 547 641 c 1
 547 642 l 1
 546 643 l 0
 524 677 507 698 462 698 c 0
 423 698 408 684 386 647 c 1
 370 620 369 587 369 552 c 0
EndSplineSet
EndChar

StartChar: equivalence
Encoding: 8801 8801 587
Width: 613
Flags: W
LayerCount: 2
Fore
SplineSet
48 83 m 5
 48 186 l 5
 566 186 l 5
 566 83 l 5
 48 83 l 5
48 502 m 1
 48 605 l 1
 566 605 l 1
 566 502 l 1
 48 502 l 1
48 300 m 1
 48 403 l 1
 566 403 l 1
 566 300 l 1
 48 300 l 1
EndSplineSet
EndChar

StartChar: SF100000
Encoding: 9472 9472 590
Width: 613
Flags: W
LayerCount: 2
Fore
SplineSet
0 368 m 0
 614 368 l 0
 614 289 l 0
 0 289 l 0
 0 368 l 0
EndSplineSet
EndChar

StartChar: SF110000
Encoding: 9474 9474 591
Width: 613
Flags: W
LayerCount: 2
Fore
SplineSet
347 840 m 0
 347 -184 l 0
 268 -184 l 0
 268 840 l 0
 347 840 l 0
EndSplineSet
EndChar

StartChar: SF010000
Encoding: 9484 9484 592
Width: 613
Flags: W
LayerCount: 2
Fore
SplineSet
268 368 m 5
 614 368 l 5
 614 289 l 5
 347 289 l 5
 347 -184 l 1
 268 -184 l 1
 268 368 l 5
EndSplineSet
EndChar

StartChar: SF030000
Encoding: 9488 9488 593
Width: 613
Flags: W
LayerCount: 2
Fore
SplineSet
347 368 m 5
 347 -184 l 1
 268 -184 l 1
 268 289 l 5
 0 289 l 5
 0 368 l 5
 347 368 l 5
EndSplineSet
EndChar

StartChar: SF020000
Encoding: 9492 9492 594
Width: 613
Flags: W
LayerCount: 2
Fore
SplineSet
268 289 m 5
 268 840 l 1
 347 840 l 1
 347 368 l 5
 614 368 l 5
 614 289 l 5
 268 289 l 5
EndSplineSet
EndChar

StartChar: SF040000
Encoding: 9496 9496 595
Width: 613
Flags: W
LayerCount: 2
Fore
SplineSet
347 289 m 5
 0 289 l 5
 0 368 l 5
 268 368 l 5
 268 840 l 1
 347 840 l 1
 347 289 l 5
EndSplineSet
EndChar

StartChar: SF080000
Encoding: 9500 9500 596
Width: 613
Flags: W
LayerCount: 2
Fore
SplineSet
268 840 m 1
 347 840 l 1
 347 368 l 5
 614 368 l 5
 614 289 l 5
 347 289 l 5
 347 -184 l 1
 268 -184 l 1
 268 840 l 1
EndSplineSet
EndChar

StartChar: SF090000
Encoding: 9508 9508 597
Width: 613
Flags: W
LayerCount: 2
Fore
SplineSet
347 -184 m 1
 268 -184 l 1
 268 289 l 5
 0 289 l 5
 0 368 l 5
 268 368 l 5
 268 840 l 1
 347 840 l 1
 347 -184 l 1
EndSplineSet
EndChar

StartChar: SF060000
Encoding: 9516 9516 598
Width: 613
Flags: W
LayerCount: 2
Fore
SplineSet
614 368 m 5
 614 289 l 5
 347 289 l 5
 347 -184 l 1
 268 -184 l 1
 268 289 l 5
 0 289 l 5
 0 368 l 5
 614 368 l 5
EndSplineSet
EndChar

StartChar: SF070000
Encoding: 9524 9524 599
Width: 613
Flags: W
LayerCount: 2
Fore
SplineSet
0 289 m 5
 0 368 l 5
 268 368 l 5
 268 840 l 1
 347 840 l 1
 347 368 l 5
 614 368 l 5
 614 289 l 5
 0 289 l 5
EndSplineSet
EndChar

StartChar: SF050000
Encoding: 9532 9532 600
Width: 613
Flags: W
LayerCount: 2
Fore
SplineSet
347 289 m 5
 347 -184 l 1
 268 -184 l 1
 268 289 l 5
 0 289 l 5
 0 368 l 5
 268 368 l 5
 268 840 l 1
 347 840 l 1
 347 368 l 5
 614 368 l 5
 614 289 l 5
 347 289 l 5
EndSplineSet
EndChar

StartChar: SF510000
Encoding: 9554 9554 603
Width: 613
Flags: W
LayerCount: 2
Fore
SplineSet
268 471 m 5
 614 471 l 5
 614 392 l 5
 347 392 l 5
 347 266 l 5
 614 266 l 5
 614 187 l 5
 347 187 l 5
 347 -184 l 1
 268 -184 l 1
 268 471 l 5
 268 471 l 5
EndSplineSet
EndChar

StartChar: SF520000
Encoding: 9555 9555 604
Width: 613
Flags: W
LayerCount: 2
Fore
SplineSet
165 368 m 5
 614 368 l 5
 614 289 l 5
 449 289 l 5
 449 -184 l 1
 370 -184 l 1
 370 289 l 5
 244 289 l 5
 244 -184 l 1
 165 -184 l 1
 165 368 l 5
EndSplineSet
EndChar

StartChar: SF390000
Encoding: 9556 9556 605
Width: 613
Flags: W
LayerCount: 2
Fore
SplineSet
244 -184 m 1
 165 -184 l 1
 165 471 l 5
 614 471 l 5
 614 392 l 5
 244 392 l 5
 244 -184 l 1
370 266 m 5
 614 266 l 5
 614 187 l 5
 449 187 l 5
 449 -184 l 1
 370 -184 l 1
 370 266 l 5
EndSplineSet
EndChar

StartChar: SF220000
Encoding: 9557 9557 606
Width: 613
Flags: W
LayerCount: 2
Fore
SplineSet
347 471 m 5
 347 471 l 5
 347 -184 l 1
 268 -184 l 1
 268 187 l 5
 0 187 l 5
 0 266 l 5
 268 266 l 5
 268 392 l 5
 0 392 l 5
 0 471 l 5
 347 471 l 5
EndSplineSet
EndChar

StartChar: SF210000
Encoding: 9558 9558 607
Width: 613
Flags: W
LayerCount: 2
Fore
SplineSet
449 368 m 1
 449 -184 l 1
 370 -184 l 1
 370 289 l 1
 244 289 l 1
 244 -184 l 1
 165 -184 l 1
 165 289 l 1
 0 289 l 1
 0 368 l 1
 449 368 l 1
EndSplineSet
EndChar

StartChar: SF250000
Encoding: 9559 9559 608
Width: 613
Flags: W
LayerCount: 2
Fore
SplineSet
370 -184 m 1
 370 392 l 1
 0 392 l 1
 0 471 l 1
 449 471 l 1
 449 -184 l 1
 370 -184 l 1
244 266 m 1
 244 -184 l 1
 165 -184 l 1
 165 187 l 1
 0 187 l 1
 0 266 l 1
 244 266 l 1
EndSplineSet
EndChar

StartChar: SF500000
Encoding: 9560 9560 609
Width: 613
Flags: W
LayerCount: 2
Fore
SplineSet
268 184 m 5
 268 184 l 5
 268 840 l 1
 347 840 l 1
 347 468 l 5
 614 468 l 5
 614 390 l 5
 347 390 l 5
 347 264 l 5
 614 264 l 5
 614 185 l 5
 268 184 l 5
EndSplineSet
EndChar

StartChar: SF490000
Encoding: 9561 9561 610
Width: 613
Flags: W
LayerCount: 2
Fore
SplineSet
165 287 m 5
 165 840 l 1
 244 840 l 1
 244 366 l 5
 370 366 l 5
 370 840 l 1
 449 840 l 1
 449 366 l 5
 614 366 l 5
 614 287 l 5
 165 287 l 5
EndSplineSet
EndChar

StartChar: SF380000
Encoding: 9562 9562 611
Width: 613
Flags: W
LayerCount: 2
Fore
SplineSet
244 840 m 1
 244 264 l 5
 614 264 l 5
 614 185 l 5
 165 185 l 5
 165 840 l 1
 244 840 l 1
370 390 m 5
 370 840 l 1
 449 840 l 1
 449 468 l 5
 614 468 l 5
 614 390 l 5
 370 390 l 5
EndSplineSet
EndChar

StartChar: SF280000
Encoding: 9563 9563 612
Width: 613
Flags: W
LayerCount: 2
Fore
SplineSet
347 184 m 5
 0 185 l 5
 0 264 l 5
 268 264 l 5
 268 390 l 5
 0 390 l 5
 0 468 l 5
 268 468 l 5
 268 840 l 1
 347 840 l 1
 347 184 l 5
 347 184 l 5
EndSplineSet
EndChar

StartChar: SF270000
Encoding: 9564 9564 613
Width: 613
Flags: W
LayerCount: 2
Fore
SplineSet
449 287 m 1
 0 287 l 1
 0 366 l 1
 165 366 l 1
 165 840 l 1
 244 840 l 1
 244 366 l 1
 370 366 l 1
 370 840 l 1
 449 840 l 1
 449 287 l 1
EndSplineSet
EndChar

StartChar: SF260000
Encoding: 9565 9565 614
Width: 613
Flags: W
LayerCount: 2
Fore
SplineSet
370 840 m 1
 449 840 l 1
 449 185 l 1
 0 185 l 1
 0 264 l 1
 370 264 l 1
 370 840 l 1
244 390 m 1
 0 390 l 1
 0 468 l 1
 165 468 l 1
 165 840 l 1
 244 840 l 1
 244 390 l 1
EndSplineSet
EndChar

StartChar: SF360000
Encoding: 9566 9566 615
Width: 613
Flags: W
LayerCount: 2
Fore
SplineSet
268 840 m 1
 347 840 l 1
 347 471 l 1
 614 471 l 1
 614 392 l 1
 347 392 l 1
 347 266 l 1
 614 266 l 1
 614 187 l 1
 347 187 l 1
 347 -184 l 1
 268 -184 l 1
 268 840 l 1
EndSplineSet
EndChar

StartChar: SF370000
Encoding: 9567 9567 616
Width: 613
Flags: W
LayerCount: 2
Fore
SplineSet
244 -184 m 1
 165 -184 l 1
 165 840 l 1
 244 840 l 1
 244 -184 l 1
370 840 m 1
 449 840 l 1
 449 368 l 1
 614 368 l 1
 614 289 l 1
 449 289 l 1
 449 -184 l 1
 370 -184 l 1
 370 840 l 1
EndSplineSet
EndChar

StartChar: SF420000
Encoding: 9568 9568 617
Width: 613
Flags: W
LayerCount: 2
Fore
SplineSet
244 -184 m 1
 165 -184 l 1
 165 840 l 1
 244 840 l 1
 244 -184 l 1
370 840 m 1
 449 840 l 1
 449 471 l 1
 614 471 l 1
 614 392 l 1
 370 392 l 1
 370 840 l 1
370 266 m 1
 614 266 l 1
 614 187 l 1
 449 187 l 1
 449 -184 l 1
 370 -184 l 1
 370 266 l 1
EndSplineSet
EndChar

StartChar: SF190000
Encoding: 9569 9569 618
Width: 613
Flags: W
LayerCount: 2
Fore
SplineSet
347 840 m 1
 347 -184 l 1
 268 -184 l 1
 268 187 l 1
 0 187 l 1
 0 266 l 1
 268 266 l 1
 268 392 l 1
 0 392 l 1
 0 471 l 1
 268 471 l 1
 268 840 l 1
 347 840 l 1
EndSplineSet
EndChar

StartChar: SF200000
Encoding: 9570 9570 619
Width: 613
Flags: W
LayerCount: 2
Fore
SplineSet
370 -184 m 1
 370 840 l 1
 449 840 l 1
 449 -184 l 1
 370 -184 l 1
244 840 m 1
 244 -184 l 1
 165 -184 l 1
 165 289 l 1
 0 289 l 1
 0 368 l 1
 165 368 l 1
 165 840 l 1
 244 840 l 1
EndSplineSet
EndChar

StartChar: SF230000
Encoding: 9571 9571 620
Width: 613
Flags: W
LayerCount: 2
Fore
SplineSet
370 -184 m 1
 370 840 l 1
 449 840 l 1
 449 -184 l 1
 370 -184 l 1
244 840 m 1
 244 392 l 1
 0 392 l 1
 0 471 l 1
 165 471 l 1
 165 840 l 1
 244 840 l 1
244 266 m 1
 244 -184 l 1
 165 -184 l 1
 165 187 l 1
 0 187 l 1
 0 266 l 1
 244 266 l 1
EndSplineSet
EndChar

StartChar: SF470000
Encoding: 9572 9572 621
Width: 613
Flags: W
LayerCount: 2
Fore
SplineSet
0 471 m 1
 614 471 l 1
 614 392 l 1
 0 392 l 1
 0 471 l 1
0 266 m 1
 614 266 l 1
 614 187 l 1
 347 187 l 1
 347 -184 l 1
 268 -184 l 1
 268 187 l 1
 0 187 l 1
 0 266 l 1
EndSplineSet
EndChar

StartChar: SF480000
Encoding: 9573 9573 622
Width: 613
Flags: W
LayerCount: 2
Fore
SplineSet
0 368 m 1
 614 368 l 1
 614 289 l 1
 449 289 l 1
 449 -184 l 1
 370 -184 l 1
 370 289 l 1
 244 289 l 1
 244 -184 l 1
 165 -184 l 1
 165 289 l 1
 0 289 l 1
 0 368 l 1
EndSplineSet
EndChar

StartChar: SF410000
Encoding: 9574 9574 623
Width: 613
Flags: W
LayerCount: 2
Fore
SplineSet
0 471 m 1
 614 471 l 1
 614 392 l 1
 0 392 l 1
 0 471 l 1
165 187 m 1
 0 187 l 1
 0 266 l 1
 244 266 l 1
 244 -184 l 1
 165 -184 l 1
 165 187 l 1
449 187 m 1
 449 -184 l 1
 370 -184 l 1
 370 266 l 1
 614 266 l 1
 614 187 l 1
 449 187 l 1
EndSplineSet
EndChar

StartChar: SF450000
Encoding: 9575 9575 624
Width: 613
Flags: W
LayerCount: 2
Fore
SplineSet
0 185 m 1
 0 264 l 1
 614 264 l 1
 614 185 l 1
 0 185 l 1
0 390 m 1
 0 468 l 1
 268 468 l 1
 268 840 l 1
 347 840 l 1
 347 468 l 1
 614 468 l 1
 614 390 l 1
 0 390 l 1
EndSplineSet
EndChar

StartChar: SF460000
Encoding: 9576 9576 625
Width: 613
Flags: W
LayerCount: 2
Fore
SplineSet
0 287 m 1
 0 366 l 1
 165 366 l 1
 165 840 l 1
 244 840 l 1
 244 366 l 1
 370 366 l 1
 370 840 l 1
 449 840 l 1
 449 366 l 1
 614 366 l 1
 614 287 l 1
 0 287 l 1
EndSplineSet
EndChar

StartChar: SF400000
Encoding: 9577 9577 626
Width: 613
Flags: W
LayerCount: 2
Fore
SplineSet
0 185 m 1
 0 264 l 1
 614 264 l 1
 614 185 l 1
 0 185 l 1
165 468 m 1
 165 840 l 1
 244 840 l 1
 244 390 l 1
 0 390 l 1
 0 468 l 1
 165 468 l 1
449 468 m 1
 614 468 l 1
 614 390 l 1
 370 390 l 1
 370 840 l 1
 449 840 l 1
 449 468 l 1
EndSplineSet
EndChar

StartChar: SF540000
Encoding: 9578 9578 627
Width: 613
Flags: W
LayerCount: 2
Fore
SplineSet
268 266 m 1
 268 392 l 1
 0 392 l 1
 0 471 l 1
 268 471 l 1
 268 840 l 1
 347 840 l 1
 347 471 l 1
 614 471 l 1
 614 392 l 1
 347 392 l 1
 347 266 l 1
 614 266 l 1
 614 187 l 1
 347 187 l 1
 347 -184 l 1
 268 -184 l 1
 268 187 l 1
 0 187 l 1
 0 266 l 1
 268 266 l 1
EndSplineSet
EndChar

StartChar: SF530000
Encoding: 9579 9579 628
Width: 613
Flags: W
LayerCount: 2
Fore
SplineSet
165 368 m 1
 165 840 l 1
 244 840 l 1
 244 368 l 1
 370 368 l 1
 370 840 l 1
 449 840 l 1
 449 368 l 1
 614 368 l 1
 614 289 l 1
 449 289 l 1
 449 -184 l 1
 370 -184 l 1
 370 289 l 1
 244 289 l 1
 244 -184 l 1
 165 -184 l 1
 165 289 l 1
 0 289 l 1
 0 368 l 1
 165 368 l 1
EndSplineSet
EndChar

StartChar: SF440000
Encoding: 9580 9580 629
Width: 613
Flags: W
LayerCount: 2
Fore
SplineSet
370 392 m 1
 370 840 l 1
 449 840 l 1
 449 471 l 1
 614 471 l 1
 614 392 l 1
 370 392 l 1
370 266 m 1
 614 266 l 1
 614 187 l 1
 449 187 l 1
 449 -184 l 1
 370 -184 l 1
 370 266 l 1
244 266 m 1
 244 -184 l 1
 165 -184 l 1
 165 187 l 1
 0 187 l 1
 0 266 l 1
 244 266 l 1
244 392 m 1
 0 392 l 1
 0 471 l 1
 165 471 l 1
 165 840 l 1
 244 840 l 1
 244 392 l 1
EndSplineSet
EndChar

StartChar: dnblock
Encoding: 9604 9604 630
Width: 613
Flags: W
LayerCount: 2
Fore
SplineSet
0 328 m 29
 614 328 l 29
 614 -184 l 29
 0 -184 l 29
 0 328 l 29
EndSplineSet
EndChar

StartChar: block
Encoding: 9608 9608 631
Width: 613
Flags: W
LayerCount: 2
Fore
SplineSet
0 840 m 25
 614 840 l 25
 614 -184 l 25
 0 -184 l 25
 0 840 l 25
EndSplineSet
EndChar

StartChar: lfblock
Encoding: 9612 9612 632
Width: 613
Flags: W
LayerCount: 2
Fore
SplineSet
0 840 m 25
 307 840 l 25
 307 -184 l 29
 0 -184 l 25
 0 840 l 25
EndSplineSet
EndChar

StartChar: shade
Encoding: 9618 9618 633
Width: 613
Flags: W
LayerCount: 2
Fore
SplineSet
0 840 m 1
 61 840 l 1
 61 788 l 1
 0 788 l 1
 0 840 l 1
123 840 m 1
 184 840 l 1
 184 788 l 1
 123 788 l 1
 123 737 l 1
 61 737 l 1
 61 788 l 1
 123 788 l 1
 123 840 l 1
246 840 m 1
 307 840 l 1
 307 788 l 1
 246 788 l 1
 246 737 l 1
 184 737 l 1
 184 788 l 1
 246 788 l 1
 246 840 l 1
369 840 m 1
 430 840 l 1
 430 788 l 1
 369 788 l 1
 369 737 l 1
 307 737 l 1
 307 788 l 1
 369 788 l 1
 369 840 l 1
492 840 m 1
 553 840 l 1
 553 788 l 1
 492 788 l 1
 492 737 l 1
 430 737 l 1
 430 788 l 1
 492 788 l 1
 492 840 l 1
553 788 m 1
 614 788 l 1
 614 737 l 1
 553 737 l 1
 553 788 l 1
61 737 m 1
 61 686 l 1
 0 686 l 1
 0 737 l 1
 61 737 l 1
61 686 m 1
 123 686 l 1
 123 635 l 1
 61 635 l 1
 61 686 l 1
123 686 m 1
 123 737 l 1
 184 737 l 1
 184 686 l 1
 123 686 l 1
184 686 m 1
 246 686 l 1
 246 635 l 1
 184 635 l 1
 184 686 l 1
246 686 m 1
 246 737 l 1
 307 737 l 1
 307 686 l 1
 246 686 l 1
307 686 m 1
 369 686 l 1
 369 635 l 1
 307 635 l 1
 307 686 l 1
369 686 m 1
 369 737 l 1
 430 737 l 1
 430 686 l 1
 369 686 l 1
430 686 m 1
 492 686 l 1
 492 635 l 1
 430 635 l 1
 430 686 l 1
492 686 m 1
 492 737 l 1
 553 737 l 1
 553 686 l 1
 492 686 l 1
553 686 m 1
 614 686 l 1
 614 635 l 1
 553 635 l 1
 553 686 l 1
61 635 m 1
 61 584 l 1
 0 584 l 1
 0 635 l 1
 61 635 l 1
61 584 m 1
 123 584 l 1
 123 532 l 1
 61 532 l 1
 61 584 l 1
123 584 m 1
 123 635 l 1
 184 635 l 1
 184 584 l 1
 123 584 l 1
184 584 m 1
 246 584 l 1
 246 532 l 1
 184 532 l 1
 184 584 l 1
246 584 m 1
 246 635 l 1
 307 635 l 1
 307 584 l 1
 246 584 l 1
307 584 m 1
 369 584 l 1
 369 532 l 1
 307 532 l 1
 307 584 l 1
369 584 m 1
 369 635 l 1
 430 635 l 1
 430 584 l 1
 369 584 l 1
430 584 m 1
 492 584 l 1
 492 532 l 1
 430 532 l 1
 430 584 l 1
492 584 m 1
 492 635 l 1
 553 635 l 1
 553 584 l 1
 492 584 l 1
553 584 m 1
 614 584 l 1
 614 532 l 1
 553 532 l 1
 553 584 l 1
61 532 m 1
 61 481 l 1
 0 481 l 1
 0 532 l 1
 61 532 l 1
61 481 m 1
 123 481 l 1
 123 430 l 1
 61 430 l 1
 61 481 l 1
123 481 m 1
 123 532 l 1
 184 532 l 1
 184 481 l 1
 123 481 l 1
184 481 m 1
 246 481 l 1
 246 430 l 1
 184 430 l 1
 184 481 l 1
246 481 m 1
 246 532 l 1
 307 532 l 1
 307 481 l 1
 246 481 l 1
307 481 m 1
 369 481 l 1
 369 430 l 1
 307 430 l 1
 307 481 l 1
369 481 m 1
 369 532 l 1
 430 532 l 1
 430 481 l 1
 369 481 l 1
430 481 m 1
 492 481 l 1
 492 430 l 1
 430 430 l 1
 430 481 l 1
492 481 m 1
 492 532 l 1
 553 532 l 1
 553 481 l 1
 492 481 l 1
553 481 m 1
 614 481 l 1
 614 430 l 1
 553 430 l 1
 553 481 l 1
61 430 m 1
 61 379 l 1
 0 379 l 1
 0 430 l 1
 61 430 l 1
61 379 m 1
 123 379 l 1
 123 328 l 1
 61 328 l 1
 61 379 l 1
123 379 m 1
 123 430 l 1
 184 430 l 1
 184 379 l 1
 123 379 l 1
184 379 m 1
 246 379 l 1
 246 328 l 1
 184 328 l 1
 184 379 l 1
246 379 m 1
 246 430 l 1
 307 430 l 1
 307 379 l 1
 246 379 l 1
307 379 m 1
 369 379 l 1
 369 328 l 1
 307 328 l 1
 307 379 l 1
369 379 m 1
 369 430 l 1
 430 430 l 1
 430 379 l 1
 369 379 l 1
430 379 m 1
 492 379 l 1
 492 328 l 1
 430 328 l 1
 430 379 l 1
492 379 m 1
 492 430 l 1
 553 430 l 1
 553 379 l 1
 492 379 l 1
553 379 m 1
 614 379 l 1
 614 328 l 1
 553 328 l 1
 553 379 l 1
61 328 m 1
 61 276 l 1
 0 276 l 1
 0 328 l 1
 61 328 l 1
61 276 m 1
 123 276 l 1
 123 225 l 1
 61 225 l 1
 61 276 l 1
123 276 m 1
 123 328 l 1
 184 328 l 1
 184 276 l 1
 123 276 l 1
184 276 m 1
 246 276 l 1
 246 225 l 1
 184 225 l 1
 184 276 l 1
246 276 m 1
 246 328 l 1
 307 328 l 1
 307 276 l 1
 246 276 l 1
307 276 m 1
 369 276 l 1
 369 225 l 1
 307 225 l 1
 307 276 l 1
369 276 m 1
 369 328 l 1
 430 328 l 1
 430 276 l 1
 369 276 l 1
430 276 m 1
 492 276 l 1
 492 225 l 1
 430 225 l 1
 430 276 l 1
492 276 m 1
 492 328 l 1
 553 328 l 1
 553 276 l 1
 492 276 l 1
553 276 m 1
 614 276 l 1
 614 225 l 1
 553 225 l 1
 553 276 l 1
61 225 m 1
 61 174 l 1
 0 174 l 1
 0 225 l 1
 61 225 l 1
61 174 m 1
 123 174 l 1
 123 123 l 1
 61 123 l 1
 61 174 l 1
123 174 m 1
 123 225 l 1
 184 225 l 1
 184 174 l 1
 123 174 l 1
184 174 m 1
 246 174 l 1
 246 123 l 1
 184 123 l 1
 184 174 l 1
246 174 m 1
 246 225 l 1
 307 225 l 1
 307 174 l 1
 246 174 l 1
307 174 m 1
 369 174 l 1
 369 123 l 1
 307 123 l 1
 307 174 l 1
369 174 m 1
 369 225 l 1
 430 225 l 1
 430 174 l 1
 369 174 l 1
430 174 m 1
 492 174 l 1
 492 123 l 1
 430 123 l 1
 430 174 l 1
492 174 m 1
 492 225 l 1
 553 225 l 1
 553 174 l 1
 492 174 l 1
553 174 m 1
 614 174 l 1
 614 123 l 1
 553 123 l 1
 553 174 l 1
61 123 m 1
 61 72 l 1
 0 72 l 1
 0 123 l 1
 61 123 l 1
61 72 m 1
 123 72 l 1
 123 20 l 1
 61 20 l 1
 61 72 l 1
123 72 m 1
 123 123 l 1
 184 123 l 1
 184 72 l 1
 123 72 l 1
184 72 m 1
 246 72 l 1
 246 20 l 1
 184 20 l 1
 184 72 l 1
246 72 m 1
 246 123 l 1
 307 123 l 1
 307 72 l 1
 246 72 l 1
307 72 m 1
 369 72 l 1
 369 20 l 1
 307 20 l 1
 307 72 l 1
369 72 m 1
 369 123 l 1
 430 123 l 1
 430 72 l 1
 369 72 l 1
430 72 m 1
 492 72 l 1
 492 20 l 1
 430 20 l 1
 430 72 l 1
492 72 m 1
 492 123 l 1
 553 123 l 1
 553 72 l 1
 492 72 l 1
553 72 m 1
 614 72 l 1
 614 20 l 1
 553 20 l 1
 553 72 l 1
61 20 m 1
 61 -31 l 1
 0 -31 l 1
 0 20 l 1
 61 20 l 1
61 -31 m 1
 123 -31 l 1
 123 -82 l 1
 61 -82 l 1
 61 -31 l 1
123 -31 m 1
 123 20 l 1
 184 20 l 1
 184 -31 l 1
 123 -31 l 1
184 -31 m 1
 246 -31 l 1
 246 -82 l 1
 184 -82 l 1
 184 -31 l 1
246 -31 m 1
 246 20 l 1
 307 20 l 1
 307 -31 l 1
 246 -31 l 1
307 -31 m 1
 369 -31 l 1
 369 -82 l 1
 307 -82 l 1
 307 -31 l 1
369 -31 m 1
 369 20 l 1
 430 20 l 1
 430 -31 l 1
 369 -31 l 1
430 -31 m 1
 492 -31 l 1
 492 -82 l 1
 430 -82 l 1
 430 -31 l 1
492 -31 m 1
 492 20 l 1
 553 20 l 1
 553 -31 l 1
 492 -31 l 1
553 -31 m 1
 614 -31 l 1
 614 -82 l 1
 553 -82 l 1
 553 -31 l 1
61 -82 m 1
 61 -133 l 1
 0 -133 l 1
 0 -82 l 1
 61 -82 l 1
61 -133 m 1
 123 -133 l 1
 123 -184 l 1
 61 -184 l 1
 61 -133 l 1
123 -133 m 1
 123 -82 l 1
 184 -82 l 1
 184 -133 l 1
 123 -133 l 1
184 -133 m 1
 246 -133 l 1
 246 -184 l 1
 184 -184 l 1
 184 -133 l 1
246 -133 m 1
 246 -82 l 1
 307 -82 l 1
 307 -133 l 1
 246 -133 l 1
307 -133 m 1
 369 -133 l 1
 369 -184 l 1
 307 -184 l 1
 307 -133 l 1
369 -133 m 1
 369 -82 l 1
 430 -82 l 1
 430 -133 l 1
 369 -133 l 1
430 -133 m 1
 492 -133 l 1
 492 -184 l 1
 430 -184 l 1
 430 -133 l 1
492 -133 m 1
 492 -82 l 1
 553 -82 l 1
 553 -133 l 1
 492 -133 l 1
553 -133 m 1
 614 -133 l 1
 614 -184 l 1
 553 -184 l 1
 553 -133 l 1
EndSplineSet
EndChar

StartChar: dkshade
Encoding: 9619 9619 634
Width: 613
Flags: W
LayerCount: 2
Fore
SplineSet
0 840 m 1
 61 840 l 1
 61 788 l 1
 123 788 l 1
 123 840 l 1
 184 840 l 1
 184 788 l 1
 246 788 l 1
 246 840 l 1
 307 840 l 1
 307 788 l 1
 369 788 l 1
 369 840 l 1
 430 840 l 1
 430 788 l 1
 492 788 l 1
 492 840 l 1
 553 840 l 1
 553 788 l 1
 614 788 l 1
 614 635 l 1
 553 635 l 1
 553 584 l 1
 614 584 l 1
 614 430 l 1
 553 430 l 1
 553 379 l 1
 614 379 l 1
 614 225 l 1
 553 225 l 1
 553 174 l 1
 614 174 l 1
 614 20 l 1
 553 20 l 1
 553 -31 l 1
 614 -31 l 1
 614 -184 l 1
 409 -184 205 -184 0 -184 c 1
 0 -133 l 1
 61 -133 l 1
 61 -82 l 1
 0 -82 l 1
 0 72 l 1
 61 72 l 1
 61 123 l 1
 0 123 l 1
 0 276 l 1
 61 276 l 1
 61 328 l 1
 0 328 l 1
 0 481 l 1
 61 481 l 1
 61 532 l 1
 0 532 l 1
 0 686 l 1
 61 686 l 1
 61 737 l 1
 0 737 l 1
 0 771 0 806 0 840 c 1
123 737 m 1
 123 686 l 1
 184 686 l 1
 184 737 l 1
 123 737 l 1
246 737 m 1
 246 686 l 1
 307 686 l 1
 307 737 l 1
 246 737 l 1
369 737 m 1
 369 686 l 1
 430 686 l 1
 430 737 l 1
 369 737 l 1
492 737 m 1
 492 686 l 1
 553 686 l 1
 553 737 l 1
 492 737 l 1
61 635 m 1
 61 584 l 1
 123 584 l 1
 123 635 l 1
 61 635 l 1
184 635 m 1
 184 584 l 1
 246 584 l 1
 246 635 l 1
 184 635 l 1
307 635 m 1
 307 584 l 1
 369 584 l 1
 369 635 l 1
 307 635 l 1
430 635 m 1
 430 584 l 1
 492 584 l 1
 492 635 l 1
 430 635 l 1
123 532 m 1
 123 481 l 1
 184 481 l 1
 184 532 l 1
 123 532 l 1
246 532 m 1
 246 481 l 1
 307 481 l 1
 307 532 l 1
 246 532 l 1
369 532 m 1
 369 481 l 1
 430 481 l 1
 430 532 l 1
 369 532 l 1
492 532 m 1
 492 481 l 1
 553 481 l 1
 553 532 l 1
 492 532 l 1
61 430 m 1
 61 379 l 1
 123 379 l 1
 123 430 l 1
 61 430 l 1
184 430 m 1
 184 379 l 1
 246 379 l 1
 246 430 l 1
 184 430 l 1
307 430 m 1
 307 379 l 1
 369 379 l 1
 369 430 l 1
 307 430 l 1
430 430 m 1
 430 379 l 1
 492 379 l 1
 492 430 l 1
 430 430 l 1
123 328 m 1
 123 276 l 1
 184 276 l 1
 184 328 l 1
 123 328 l 1
246 328 m 1
 246 276 l 1
 307 276 l 1
 307 328 l 1
 246 328 l 1
369 328 m 1
 369 276 l 1
 430 276 l 1
 430 328 l 1
 369 328 l 1
492 328 m 1
 492 276 l 1
 553 276 l 1
 553 328 l 1
 492 328 l 1
61 225 m 1
 61 174 l 1
 123 174 l 1
 123 225 l 1
 61 225 l 1
184 225 m 1
 184 174 l 1
 246 174 l 1
 246 225 l 1
 184 225 l 1
307 225 m 1
 307 174 l 1
 369 174 l 1
 369 225 l 1
 307 225 l 1
430 225 m 1
 430 174 l 1
 492 174 l 1
 492 225 l 1
 430 225 l 1
123 123 m 1
 123 72 l 1
 184 72 l 1
 184 123 l 1
 123 123 l 1
246 123 m 1
 246 72 l 1
 307 72 l 1
 307 123 l 1
 246 123 l 1
369 123 m 1
 369 72 l 1
 430 72 l 1
 430 123 l 1
 369 123 l 1
492 123 m 1
 492 72 l 1
 553 72 l 1
 553 123 l 1
 492 123 l 1
61 20 m 1
 61 -31 l 1
 123 -31 l 1
 123 20 l 1
 61 20 l 1
184 20 m 1
 184 -31 l 1
 246 -31 l 1
 246 20 l 1
 184 20 l 1
307 20 m 1
 307 -31 l 1
 369 -31 l 1
 369 20 l 1
 307 20 l 1
430 20 m 1
 430 -31 l 1
 492 -31 l 1
 492 20 l 1
 430 20 l 1
123 -82 m 1
 123 -133 l 1
 184 -133 l 1
 184 -82 l 1
 123 -82 l 1
246 -82 m 1
 246 -133 l 1
 307 -133 l 1
 307 -82 l 1
 246 -82 l 1
369 -82 m 1
 369 -133 l 1
 430 -133 l 1
 430 -82 l 1
 369 -82 l 1
492 -82 m 1
 492 -133 l 1
 553 -133 l 1
 553 -82 l 1
 492 -82 l 1
EndSplineSet
EndChar

StartChar: filledbox
Encoding: 9632 9632 635
Width: 613
Flags: W
LayerCount: 2
Fore
SplineSet
82 553 m 25
 532 553 l 29
 532 102 l 29
 82 102 l 25
 82 553 l 25
EndSplineSet
EndChar

StartChar: H22073
Encoding: 9633 9633 636
Width: 613
Flags: W
LayerCount: 2
Fore
SplineSet
82 553 m 25
 532 553 l 25
 532 102 l 25
 82 102 l 25
 82 553 l 25
154 481 m 25
 154 174 l 25
 461 174 l 25
 461 481 l 25
 154 481 l 25
EndSplineSet
EndChar

StartChar: H18543
Encoding: 9642 9642 637
Width: 613
Flags: W
LayerCount: 2
Fore
SplineSet
143 492 m 25
 471 492 l 25
 471 164 l 25
 143 164 l 25
 143 492 l 25
EndSplineSet
EndChar

StartChar: H18551
Encoding: 9643 9643 638
Width: 613
Flags: W
LayerCount: 2
Fore
SplineSet
143 492 m 25
 471 492 l 25
 471 164 l 25
 143 164 l 25
 143 492 l 25
215 420 m 25
 215 236 l 29
 399 236 l 29
 399 420 l 25
 215 420 l 25
EndSplineSet
EndChar

StartChar: triagup
Encoding: 9650 9650 639
Width: 613
Flags: W
LayerCount: 2
Fore
SplineSet
307 553 m 1
 532 102 l 1
 82 102 l 1
 307 553 l 1
EndSplineSet
EndChar

StartChar: triagdn
Encoding: 9660 9660 640
Width: 613
Flags: W
LayerCount: 2
Fore
SplineSet
82 553 m 1
 532 553 l 1
 307 102 l 1
 82 553 l 1
EndSplineSet
EndChar

StartChar: lozenge
Encoding: 9674 9674 641
Width: 613
Flags: W
LayerCount: 2
Fore
SplineSet
307 655 m 25
 532 328 l 25
 307 0 l 25
 82 328 l 25
 307 655 l 25
307 563 m 25
 154 328 l 25
 307 92 l 25
 461 328 l 25
 307 563 l 25
EndSplineSet
EndChar

StartChar: circle
Encoding: 9675 9675 642
Width: 613
Flags: W
LayerCount: 2
Fore
SplineSet
123 328 m 0
 123 226 205 143 307 143 c 0
 409 143 492 226 492 328 c 0
 492 430 409 512 307 512 c 0
 205 512 123 430 123 328 c 0
41 328 m 0
 41 475 160 594 307 594 c 0
 454 594 573 475 573 328 c 0
 573 181 454 61 307 61 c 0
 160 61 41 181 41 328 c 0
EndSplineSet
EndChar

StartChar: H18533
Encoding: 9679 9679 643
Width: 613
Flags: W
LayerCount: 2
Fore
SplineSet
41 328 m 0
 41 475 160 594 307 594 c 0
 454 594 573 475 573 328 c 0
 573 181 454 61 307 61 c 0
 160 61 41 181 41 328 c 0
EndSplineSet
EndChar

StartChar: openbullet
Encoding: 9702 9702 644
Width: 613
Flags: W
LayerCount: 2
Fore
SplineSet
314 430 m 0
 269 430 233 395 233 352 c 0
 233 309 269 273 314 273 c 0
 359 273 394 309 394 352 c 0
 394 395 359 430 314 430 c 0
314 502 m 0
 397 502 466 435 466 352 c 0
 466 269 397 202 314 202 c 0
 231 202 162 269 162 352 c 0
 162 435 231 502 314 502 c 0
EndSplineSet
EndChar

StartChar: female
Encoding: 9792 9792 645
Width: 613
Flags: W
LayerCount: 2
Fore
SplineSet
258 309 m 1
 154 331 79 420 79 526 c 0
 79 648 181 748 307 748 c 0
 433 748 536 648 536 526 c 0
 536 422 462 335 364 311 c 1
 364 241 l 1
 566 241 l 1
 566 137 l 1
 364 137 l 1
 364 0 l 1
 258 0 l 1
 258 137 l 1
 48 137 l 1
 48 241 l 1
 258 241 l 1
 258 309 l 1
307 651 m 0
 234 651 175 592 175 519 c 0
 175 446 234 387 307 387 c 0
 380 387 439 446 439 519 c 0
 439 592 380 651 307 651 c 0
EndSplineSet
EndChar

StartChar: male
Encoding: 9794 9794 646
Width: 613
Flags: W
LayerCount: 2
Fore
SplineSet
133 414 m 1
 58 473 l 1
 295 760 l 1
 335 760 l 1
 555 470 l 1
 470 415 l 1
 364 554 l 1
 364 419 l 1
 463 395 536 308 536 206 c 0
 536 85 433 -13 307 -13 c 0
 181 -13 79 85 79 206 c 0
 79 310 155 397 254 420 c 1
 254 558 l 1
 133 414 l 1
307 347 m 0
 234 347 175 288 175 215 c 0
 175 142 234 83 307 83 c 0
 380 83 439 142 439 215 c 0
 439 288 380 347 307 347 c 0
EndSplineSet
EndChar

StartChar: spade
Encoding: 9824 9824 647
Width: 613
Flags: W
LayerCount: 2
Fore
SplineSet
26 391 m 0
 26 565 289 753 289 753 c 1
 298 753 l 1
 298 753 560 565 560 391 c 0
 560 323 559 313 531 263 c 0
 511 227 470 207 428 207 c 0
 427 207 427 207 426 207 c 0
 408 207 368 229 335 260 c 1
 335 68 l 1
 488 68 l 1
 488 -1 l 1
 106 -1 l 1
 106 69 l 1
 252 69 l 1
 252 262 l 1
 219 231 178 207 160 207 c 0
 159 207 159 207 158 207 c 0
 116 207 73 227 53 263 c 0
 25 313 26 323 26 391 c 0
EndSplineSet
EndChar

StartChar: club
Encoding: 9827 9827 648
Width: 613
Flags: W
LayerCount: 2
Fore
SplineSet
561 358 m 0
 561 263 499 208 430 208 c 0
 394 208 360 224 335 250 c 1
 335 68 l 1
 488 68 l 1
 488 -1 l 1
 106 -1 l 1
 106 69 l 1
 252 69 l 1
 252 246 l 1
 228 221 196 208 162 208 c 0
 89 208 25 269 25 357 c 0
 25 446 89 510 163 510 c 0
 170 510 178 509 185 508 c 1
 169 532 161 561 161 595 c 0
 161 684 224 748 298 748 c 0
 364 748 428 695 428 596 c 0
 428 560 419 531 405 507 c 1
 414 509 423 510 432 510 c 0
 498 510 561 457 561 358 c 0
EndSplineSet
EndChar

StartChar: heart
Encoding: 9829 9829 649
Width: 613
Flags: W
LayerCount: 2
Fore
SplineSet
560 472 m 8
 560 261 297 0 297 0 c 0
 288 0 l 0
 288 0 26 261 26 472 c 16
 26 540 26 594 47 645 c 0
 65 689 95 753 158 753 c 0
 159 753 159 753 160 753 c 0
 246 753 272 690 293 622 c 1
 315 688 340 753 426 753 c 0
 427 753 427 753 428 753 c 0
 500 753 529 690 543 645 c 0
 558 596 560 540 560 472 c 8
EndSplineSet
EndChar

StartChar: diamond
Encoding: 9830 9830 650
Width: 613
Flags: W
LayerCount: 2
Fore
SplineSet
534 376 m 5
 298 -1 l 1
 289 -1 l 1
 65 376 l 5
 289 753 l 1
 298 753 l 1
 534 376 l 5
EndSplineSet
EndChar

StartChar: musicalnote
Encoding: 9834 9834 651
Width: 613
Flags: W
LayerCount: 2
Fore
SplineSet
327 104 m 0
 299 28 219 -16 147 -16 c 0
 85 -16 41 17 41 67 c 0
 41 78 43 90 48 103 c 0
 74 174 159 225 236 225 c 0
 241 225 247 225 252 224 c 1
 252 670 l 1
 252 739 l 1
 289 740 l 1
 298 740 l 1
 298 740 552 562 552 395 c 0
 552 309 500 250 426 220 c 1
 426 294 l 1
 451 318 466 352 466 395 c 0
 466 472 384 553 335 594 c 1
 335 146 l 2
 335 133 333 120 327 104 c 0
EndSplineSet
EndChar

StartChar: afii10146
Encoding: 1122 1122 656
Width: 613
Flags: W
LayerCount: 2
Fore
SplineSet
257 348 m 1
 257 103 l 1
 306 103 l 0
 338 103 366 104 395 116 c 0
 440 135 465 176 465 221 c 0
 465 266 438 310 389 332 c 0
 356 347 322 348 285 348 c 0
 257 348 l 1
464 534 m 1
 257 534 l 1
 257 449 l 1
 265 449 l 0
 346 449 416 449 481 406 c 0
 545 364 582 301 582 213 c 0
 582 134 535 58 450 23 c 0
 396 1 341 0 291 0 c 0
 144 0 l 1
 144 532 l 1
 32 532 l 1
 32 622 l 1
 144 622 l 1
 144 739 l 1
 264 739 l 1
 267 729 l 0
 268 726 269 724 269 721 c 0
 269 707 258 700 257 699 c 0
 257 699 257 699 257 698 c 0
 257 623 l 1
 464 623 l 1
 464 534 l 1
EndSplineSet
EndChar

StartChar: afii10194
Encoding: 1123 1123 657
Width: 613
Flags: W
LayerCount: 2
Fore
SplineSet
144 0 m 1
 144 437 l 1
 32 437 l 1
 32 543 l 1
 144 543 l 1
 144 702 l 1
 267 702 l 1
 270 691 l 2
 275 672 260 662 260 662 c 1
 259 661 l 1
 257 660 l 2
 257 660 l 1
 257 660 l 2
 257 543 l 1
 422 543 l 1
 422 437 l 1
 257 437 l 1
 257 336 l 1
 371 336 431 329 471 301 c 0
 523 265 558 219 558 155 c 0
 558 94 496 36 432 16 c 0
 400 6 313 0 267 0 c 2
 144 0 l 1
257 243 m 1
 257 103 l 1
 282 103 l 2
 314 103 352 104 378 111 c 0
 421 122 437 144 437 165 c 0
 437 189 415 229 374 237 c 0
 343 243 298 243 261 243 c 2
 257 243 l 1
EndSplineSet
EndChar

StartChar: afii10195
Encoding: 1139 1139 659
Width: 613
Flags: W
LayerCount: 2
Fore
SplineSet
315 554 m 0
 447 554 572 453 572 269 c 0
 572 92 450 -14 312 -14 c 0
 166 -14 43 103 43 267 c 0
 43 433 167 554 315 554 c 0
455 265 m 0
 455 397 377 451 309 451 c 0
 236 451 164 391 164 274 c 0
 164 156 237 90 313 90 c 0
 382 90 455 145 455 265 c 0
414 340 m 5
 414 244 l 5
 208 244 l 1
 208 340 l 1
 414 340 l 5
EndSplineSet
EndChar

StartChar: acute.cap.pl
Encoding: 65544 -1 662
Width: 613
Flags: W
HStem: 639 164
VStem: 271 140
LayerCount: 2
Fore
SplineSet
271 652 m 1
 308 802 l 1
 411 802 l 1
 355 639 l 1
 271 652 l 1
EndSplineSet
EndChar

StartChar: acute.pl
Encoding: 65545 -1 663
Width: 613
Flags: W
HStem: 614 225
VStem: 267 154
LayerCount: 2
Fore
SplineSet
267 631 m 1
 301 840 l 1
 421 814 l 1
 364 614 l 1
 267 631 l 1
EndSplineSet
EndChar

StartChar: uni2574
Encoding: 9588 9588 678
Width: 613
VWidth: 1046
Flags: MW
LayerCount: 2
Fore
SplineSet
346 289 m 1
 0 289 l 1
 0 367 l 1
 346 367 l 1
 346 289 l 1
EndSplineSet
EndChar

StartChar: uni2575
Encoding: 9589 9589 679
Width: 613
VWidth: 1046
Flags: MW
LayerCount: 2
Fore
SplineSet
346 289 m 1
 267 289 l 1
 267 838 l 1
 346 838 l 1
 346 289 l 1
EndSplineSet
EndChar

StartChar: uni2576
Encoding: 9590 9590 680
Width: 613
VWidth: 1046
Flags: MW
LayerCount: 2
Fore
SplineSet
267 289 m 1
 267 367 l 1
 613 367 l 1
 613 289 l 1
 267 289 l 1
EndSplineSet
EndChar

StartChar: uni2577
Encoding: 9591 9591 681
Width: 613
VWidth: 1046
Flags: MW
LayerCount: 2
Fore
SplineSet
346 367 m 1
 346 -184 l 1
 267 -184 l 1
 267 367 l 1
 346 367 l 1
EndSplineSet
EndChar

StartChar: uni2501
Encoding: 9473 9473 682
Width: 613
VWidth: 1046
Flags: MW
LayerCount: 2
Fore
SplineSet
0 408 m 1
 613 408 l 1
 613 248 l 1
 0 248 l 1
 0 408 l 1
EndSplineSet
EndChar

StartChar: uni2503
Encoding: 9475 9475 683
Width: 613
VWidth: 1046
Flags: MW
LayerCount: 2
Fore
SplineSet
387 838 m 1
 387 -184 l 1
 226 -184 l 1
 226 838 l 1
 387 838 l 1
EndSplineSet
EndChar

StartChar: uni250D
Encoding: 9485 9485 684
Width: 613
VWidth: 1046
Flags: MW
LayerCount: 2
Fore
SplineSet
267 -184 m 1
 267 408 l 1
 613 408 l 1
 613 248 l 1
 346 248 l 1
 346 -184 l 1
 267 -184 l 1
EndSplineSet
EndChar

StartChar: uni250E
Encoding: 9486 9486 685
Width: 613
VWidth: 1046
Flags: MW
LayerCount: 2
Fore
SplineSet
226 367 m 1
 613 367 l 1
 613 289 l 1
 387 289 l 1
 387 -184 l 1
 226 -184 l 1
 226 367 l 1
EndSplineSet
EndChar

StartChar: uni250F
Encoding: 9487 9487 686
Width: 613
VWidth: 1046
Flags: MW
LayerCount: 2
Fore
SplineSet
226 -184 m 1
 226 408 l 1
 613 408 l 1
 613 248 l 1
 387 248 l 1
 387 -184 l 1
 226 -184 l 1
EndSplineSet
EndChar

StartChar: uni2511
Encoding: 9489 9489 687
Width: 613
VWidth: 1046
Flags: MW
LayerCount: 2
Fore
SplineSet
267 248 m 1
 0 248 l 1
 0 408 l 1
 346 408 l 1
 346 -184 l 1
 267 -184 l 1
 267 248 l 1
EndSplineSet
EndChar

StartChar: uni2512
Encoding: 9490 9490 688
Width: 613
VWidth: 1046
Flags: MW
LayerCount: 2
Fore
SplineSet
387 367 m 1
 387 -184 l 1
 226 -184 l 1
 226 289 l 1
 0 289 l 1
 0 367 l 1
 387 367 l 1
EndSplineSet
EndChar

StartChar: uni2513
Encoding: 9491 9491 689
Width: 613
VWidth: 1046
Flags: MW
LayerCount: 2
Fore
SplineSet
226 248 m 1
 0 248 l 1
 0 408 l 1
 387 408 l 1
 387 -184 l 1
 226 -184 l 1
 226 248 l 1
EndSplineSet
EndChar

StartChar: uni2515
Encoding: 9493 9493 690
Width: 613
VWidth: 1046
Flags: MW
LayerCount: 2
Fore
SplineSet
346 408 m 1
 613 408 l 1
 613 248 l 1
 267 248 l 1
 267 838 l 1
 346 838 l 1
 346 408 l 1
EndSplineSet
EndChar

StartChar: uni2516
Encoding: 9494 9494 691
Width: 613
VWidth: 1046
Flags: MW
LayerCount: 2
Fore
SplineSet
613 289 m 1
 226 289 l 1
 226 838 l 1
 387 838 l 1
 387 367 l 1
 613 367 l 1
 613 289 l 1
EndSplineSet
EndChar

StartChar: uni2517
Encoding: 9495 9495 692
Width: 613
VWidth: 1046
Flags: MW
LayerCount: 2
Fore
SplineSet
613 248 m 1
 226 248 l 1
 226 838 l 1
 387 838 l 1
 387 408 l 1
 613 408 l 1
 613 248 l 1
EndSplineSet
EndChar

StartChar: uni2519
Encoding: 9497 9497 693
Width: 613
VWidth: 1046
Flags: MW
LayerCount: 2
Fore
SplineSet
346 248 m 1
 0 248 l 1
 0 408 l 1
 267 408 l 1
 267 838 l 1
 346 838 l 1
 346 248 l 1
EndSplineSet
EndChar

StartChar: uni251A
Encoding: 9498 9498 694
Width: 613
VWidth: 1046
Flags: MW
LayerCount: 2
Fore
SplineSet
226 367 m 1
 226 838 l 1
 387 838 l 1
 387 289 l 1
 0 289 l 1
 0 367 l 1
 226 367 l 1
EndSplineSet
EndChar

StartChar: uni251B
Encoding: 9499 9499 695
Width: 613
VWidth: 1046
Flags: MW
LayerCount: 2
Fore
SplineSet
387 248 m 1
 0 248 l 1
 0 408 l 1
 226 408 l 1
 226 838 l 1
 387 838 l 1
 387 248 l 1
EndSplineSet
EndChar

StartChar: uni2578
Encoding: 9592 9592 696
Width: 613
VWidth: 1046
Flags: MW
LayerCount: 2
Fore
SplineSet
346 248 m 1
 0 248 l 1
 0 408 l 1
 346 408 l 1
 346 248 l 1
EndSplineSet
EndChar

StartChar: uni2579
Encoding: 9593 9593 697
Width: 613
VWidth: 1046
Flags: MW
LayerCount: 2
Fore
SplineSet
387 289 m 1
 226 289 l 1
 226 838 l 1
 387 838 l 1
 387 289 l 1
EndSplineSet
EndChar

StartChar: uni257A
Encoding: 9594 9594 698
Width: 613
VWidth: 1046
Flags: MW
LayerCount: 2
Fore
SplineSet
267 248 m 1
 267 408 l 1
 613 408 l 1
 613 248 l 1
 267 248 l 1
EndSplineSet
EndChar

StartChar: uni257B
Encoding: 9595 9595 699
Width: 613
VWidth: 1046
Flags: MW
LayerCount: 2
Fore
SplineSet
387 367 m 1
 387 -184 l 1
 226 -184 l 1
 226 367 l 1
 387 367 l 1
EndSplineSet
EndChar

StartChar: uni251D
Encoding: 9501 9501 700
Width: 613
VWidth: 1046
Flags: MW
LayerCount: 2
Fore
SplineSet
346 408 m 1
 613 408 l 1
 613 248 l 1
 346 248 l 1
 346 -184 l 1
 267 -184 l 1
 267 838 l 1
 346 838 l 1
 346 408 l 1
EndSplineSet
EndChar

StartChar: uni251E
Encoding: 9502 9502 701
Width: 613
VWidth: 1046
Flags: MW
LayerCount: 2
Fore
SplineSet
613 289 m 1
 524 289 435 289 346 289 c 1
 346 -184 l 1
 267 -184 l 1
 267 289 l 1
 226 289 l 1
 226 838 l 1
 387 838 l 1
 387 367 l 1
 613 367 l 1
 613 289 l 1
EndSplineSet
EndChar

StartChar: uni251F
Encoding: 9503 9503 702
Width: 613
VWidth: 1046
Flags: MW
LayerCount: 2
Fore
SplineSet
267 367 m 1
 267 838 l 1
 346 838 l 1
 346 367 l 1
 435 367 524 367 613 367 c 1
 613 289 l 1
 387 289 l 1
 387 -184 l 1
 226 -184 l 1
 226 367 l 1
 267 367 l 1
EndSplineSet
EndChar

StartChar: uni2520
Encoding: 9504 9504 703
Width: 613
VWidth: 1046
Flags: MW
LayerCount: 2
Fore
SplineSet
226 -184 m 1
 226 838 l 1
 387 838 l 1
 387 367 l 1
 613 367 l 1
 613 289 l 1
 387 289 l 1
 387 -184 l 1
 226 -184 l 1
EndSplineSet
EndChar

StartChar: uni2521
Encoding: 9505 9505 704
Width: 613
VWidth: 1046
Flags: MW
LayerCount: 2
Fore
SplineSet
346 248 m 1
 346 -184 l 1
 267 -184 l 1
 267 248 l 1
 226 248 l 1
 226 838 l 1
 387 838 l 1
 387 408 l 1
 613 408 l 1
 613 248 l 1
 346 248 l 1
EndSplineSet
EndChar

StartChar: uni2522
Encoding: 9506 9506 705
Width: 613
VWidth: 1046
Flags: MW
LayerCount: 2
Fore
SplineSet
226 -184 m 1
 226 408 l 1
 267 408 l 1
 267 838 l 1
 346 838 l 1
 346 408 l 1
 613 408 l 1
 613 248 l 1
 387 248 l 1
 387 -184 l 1
 226 -184 l 1
EndSplineSet
EndChar

StartChar: uni2523
Encoding: 9507 9507 706
Width: 613
VWidth: 1046
Flags: MW
LayerCount: 2
Fore
SplineSet
387 408 m 1
 613 408 l 1
 613 248 l 1
 387 248 l 1
 387 -184 l 1
 226 -184 l 1
 226 838 l 1
 387 838 l 1
 387 408 l 1
EndSplineSet
EndChar

StartChar: uni2525
Encoding: 9509 9509 707
Width: 613
VWidth: 1046
Flags: MW
LayerCount: 2
Fore
SplineSet
346 838 m 1
 346 -184 l 1
 267 -184 l 1
 267 248 l 1
 0 248 l 1
 0 408 l 1
 267 408 l 1
 267 838 l 1
 346 838 l 1
EndSplineSet
EndChar

StartChar: uni2526
Encoding: 9510 9510 708
Width: 613
VWidth: 1046
Flags: MW
LayerCount: 2
Fore
SplineSet
226 367 m 1
 226 838 l 1
 387 838 l 1
 387 289 l 1
 346 289 l 1
 346 -184 l 1
 267 -184 l 1
 267 289 l 1
 178 289 89 289 0 289 c 1
 0 367 l 1
 226 367 l 1
EndSplineSet
EndChar

StartChar: uni2527
Encoding: 9511 9511 709
Width: 613
VWidth: 1046
Flags: MW
LayerCount: 2
Fore
SplineSet
387 367 m 1
 387 -184 l 1
 226 -184 l 1
 226 289 l 1
 0 289 l 1
 0 367 l 1
 89 367 178 367 267 367 c 1
 267 838 l 1
 346 838 l 1
 346 367 l 1
 387 367 l 1
EndSplineSet
EndChar

StartChar: uni2528
Encoding: 9512 9512 710
Width: 613
VWidth: 1046
Flags: MW
LayerCount: 2
Fore
SplineSet
226 289 m 1
 0 289 l 1
 0 367 l 1
 226 367 l 1
 226 838 l 1
 387 838 l 1
 387 -184 l 1
 226 -184 l 1
 226 289 l 1
EndSplineSet
EndChar

StartChar: uni2529
Encoding: 9513 9513 711
Width: 613
VWidth: 1046
Flags: MW
LayerCount: 2
Fore
SplineSet
346 248 m 1
 346 -184 l 1
 267 -184 l 1
 267 248 l 1
 0 248 l 1
 0 408 l 1
 226 408 l 1
 226 838 l 1
 387 838 l 1
 387 248 l 1
 346 248 l 1
EndSplineSet
EndChar

StartChar: uni252A
Encoding: 9514 9514 712
Width: 613
VWidth: 1046
Flags: MW
LayerCount: 2
Fore
SplineSet
226 248 m 1
 0 248 l 1
 0 408 l 1
 267 408 l 1
 267 838 l 1
 346 838 l 1
 346 408 l 1
 387 408 l 1
 387 -184 l 1
 226 -184 l 1
 226 248 l 1
EndSplineSet
EndChar

StartChar: uni252B
Encoding: 9515 9515 713
Width: 613
VWidth: 1046
Flags: MW
LayerCount: 2
Fore
SplineSet
226 408 m 1
 226 838 l 1
 387 838 l 1
 387 -184 l 1
 226 -184 l 1
 226 248 l 1
 0 248 l 1
 0 408 l 1
 226 408 l 1
EndSplineSet
EndChar

StartChar: uni252D
Encoding: 9517 9517 714
Width: 613
VWidth: 1046
Flags: MW
LayerCount: 2
Fore
SplineSet
267 248 m 1
 0 248 l 1
 0 408 l 1
 346 408 l 1
 346 367 l 1
 613 367 l 1
 613 289 l 1
 346 289 l 1
 346 131 346 -26 346 -184 c 1
 267 -184 l 1
 267 248 l 1
EndSplineSet
EndChar

StartChar: uni252E
Encoding: 9518 9518 715
Width: 613
VWidth: 1046
Flags: MW
LayerCount: 2
Fore
SplineSet
267 -184 m 1
 267 -26 267 131 267 289 c 1
 0 289 l 1
 0 367 l 1
 267 367 l 1
 267 408 l 1
 613 408 l 1
 613 248 l 1
 346 248 l 1
 346 -184 l 1
 267 -184 l 1
EndSplineSet
EndChar

StartChar: uni252F
Encoding: 9519 9519 716
Width: 613
VWidth: 1046
Flags: MW
LayerCount: 2
Fore
SplineSet
0 408 m 1
 613 408 l 1
 613 248 l 1
 346 248 l 1
 346 -184 l 1
 267 -184 l 1
 267 248 l 1
 0 248 l 1
 0 408 l 1
EndSplineSet
EndChar

StartChar: uni2530
Encoding: 9520 9520 717
Width: 613
VWidth: 1046
Flags: MW
LayerCount: 2
Fore
SplineSet
0 367 m 1
 613 367 l 1
 613 289 l 1
 387 289 l 1
 387 -184 l 1
 226 -184 l 1
 226 289 l 1
 0 289 l 1
 0 367 l 1
EndSplineSet
EndChar

StartChar: uni2531
Encoding: 9521 9521 718
Width: 613
VWidth: 1046
Flags: MW
LayerCount: 2
Fore
SplineSet
226 248 m 1
 0 248 l 1
 0 408 l 1
 387 408 l 1
 387 367 l 1
 613 367 l 1
 613 289 l 1
 387 289 l 1
 387 -184 l 1
 226 -184 l 1
 226 248 l 1
EndSplineSet
EndChar

StartChar: uni2532
Encoding: 9522 9522 719
Width: 613
VWidth: 1046
Flags: MW
LayerCount: 2
Fore
SplineSet
226 289 m 1
 0 289 l 1
 0 367 l 1
 226 367 l 1
 226 408 l 1
 613 408 l 1
 613 248 l 1
 387 248 l 1
 387 -184 l 1
 226 -184 l 1
 226 289 l 1
EndSplineSet
EndChar

StartChar: uni2533
Encoding: 9523 9523 720
Width: 613
VWidth: 1046
Flags: MW
LayerCount: 2
Fore
SplineSet
0 408 m 1
 613 408 l 1
 613 248 l 1
 387 248 l 1
 387 -184 l 1
 226 -184 l 1
 226 248 l 1
 0 248 l 1
 0 408 l 1
EndSplineSet
EndChar

StartChar: uni2535
Encoding: 9525 9525 721
Width: 613
VWidth: 1046
Flags: MW
LayerCount: 2
Fore
SplineSet
346 248 m 1
 0 248 l 1
 0 408 l 1
 267 408 l 1
 267 838 l 1
 346 838 l 1
 346 681 346 524 346 367 c 1
 613 367 l 1
 613 289 l 1
 346 289 l 1
 346 248 l 1
EndSplineSet
EndChar

StartChar: uni2536
Encoding: 9526 9526 722
Width: 613
VWidth: 1046
Flags: MW
LayerCount: 2
Fore
SplineSet
346 408 m 1
 613 408 l 1
 613 248 l 1
 267 248 l 1
 267 289 l 1
 0 289 l 1
 0 367 l 1
 267 367 l 1
 267 524 267 681 267 838 c 1
 346 838 l 1
 346 408 l 1
EndSplineSet
EndChar

StartChar: uni2537
Encoding: 9527 9527 723
Width: 613
VWidth: 1046
Flags: MW
LayerCount: 2
Fore
SplineSet
613 248 m 1
 0 248 l 1
 0 408 l 1
 267 408 l 1
 267 838 l 1
 346 838 l 1
 346 408 l 1
 613 408 l 1
 613 248 l 1
EndSplineSet
EndChar

StartChar: uni2538
Encoding: 9528 9528 724
Width: 613
VWidth: 1046
Flags: MW
LayerCount: 2
Fore
SplineSet
226 367 m 1
 226 838 l 1
 387 838 l 1
 387 367 l 1
 613 367 l 1
 613 289 l 1
 0 289 l 1
 0 367 l 1
 226 367 l 1
EndSplineSet
EndChar

StartChar: uni2539
Encoding: 9529 9529 725
Width: 613
VWidth: 1046
Flags: MW
LayerCount: 2
Fore
SplineSet
387 248 m 1
 0 248 l 1
 0 408 l 1
 226 408 l 1
 226 838 l 1
 387 838 l 1
 387 367 l 1
 613 367 l 1
 613 289 l 1
 387 289 l 1
 387 248 l 1
EndSplineSet
EndChar

StartChar: uni253A
Encoding: 9530 9530 726
Width: 613
VWidth: 1046
Flags: MW
LayerCount: 2
Fore
SplineSet
613 248 m 1
 226 248 l 1
 226 289 l 1
 0 289 l 1
 0 367 l 1
 226 367 l 1
 226 838 l 1
 387 838 l 1
 387 408 l 1
 613 408 l 1
 613 248 l 1
EndSplineSet
EndChar

StartChar: uni253B
Encoding: 9531 9531 727
Width: 613
VWidth: 1046
Flags: MW
LayerCount: 2
Fore
SplineSet
226 408 m 1
 226 838 l 1
 387 838 l 1
 387 408 l 1
 613 408 l 1
 613 248 l 1
 0 248 l 1
 0 408 l 1
 226 408 l 1
EndSplineSet
EndChar

StartChar: uni253D
Encoding: 9533 9533 728
Width: 613
VWidth: 1046
Flags: MW
LayerCount: 2
Fore
SplineSet
346 838 m 1
 346 681 346 524 346 367 c 1
 613 367 l 1
 613 289 l 1
 346 289 l 1
 346 131 346 -26 346 -184 c 1
 267 -184 l 1
 267 248 l 1
 0 248 l 1
 0 408 l 1
 267 408 l 1
 267 838 l 1
 346 838 l 1
EndSplineSet
EndChar

StartChar: uni253E
Encoding: 9534 9534 729
Width: 613
VWidth: 1046
Flags: MW
LayerCount: 2
Fore
SplineSet
346 408 m 1
 613 408 l 1
 613 248 l 1
 346 248 l 1
 346 -184 l 1
 267 -184 l 1
 267 -26 267 131 267 289 c 1
 0 289 l 1
 0 367 l 1
 267 367 l 1
 267 524 267 681 267 838 c 1
 346 838 l 1
 346 408 l 1
EndSplineSet
EndChar

StartChar: uni253F
Encoding: 9535 9535 730
Width: 613
VWidth: 1046
Flags: MW
LayerCount: 2
Fore
SplineSet
346 408 m 1
 613 408 l 1
 613 248 l 1
 346 248 l 1
 346 -184 l 1
 267 -184 l 1
 267 838 l 1
 346 838 l 1
 346 408 l 1
EndSplineSet
EndChar

StartChar: uni2540
Encoding: 9536 9536 731
Width: 613
VWidth: 1046
Flags: MW
LayerCount: 2
Fore
SplineSet
226 367 m 1
 226 838 l 1
 387 838 l 1
 387 367 l 1
 613 367 l 1
 613 289 l 1
 524 289 435 289 346 289 c 1
 346 -184 l 1
 267 -184 l 1
 267 289 l 1
 178 289 89 289 0 289 c 1
 0 367 l 1
 226 367 l 1
EndSplineSet
EndChar

StartChar: uni2541
Encoding: 9537 9537 732
Width: 613
VWidth: 1046
Flags: MW
LayerCount: 2
Fore
SplineSet
267 367 m 1
 267 838 l 1
 346 838 l 1
 346 367 l 1
 435 367 524 367 613 367 c 1
 613 289 l 1
 387 289 l 1
 387 -184 l 1
 226 -184 l 1
 226 289 l 1
 0 289 l 1
 0 367 l 1
 89 367 178 367 267 367 c 1
EndSplineSet
EndChar

StartChar: uni2542
Encoding: 9538 9538 733
Width: 613
VWidth: 1046
Flags: MW
LayerCount: 2
Fore
SplineSet
226 289 m 1
 0 289 l 1
 0 367 l 1
 226 367 l 1
 226 838 l 1
 387 838 l 1
 387 367 l 1
 613 367 l 1
 613 289 l 1
 387 289 l 1
 387 -184 l 1
 226 -184 l 1
 226 289 l 1
EndSplineSet
EndChar

StartChar: uni2543
Encoding: 9539 9539 734
Width: 613
VWidth: 1046
Flags: MW
LayerCount: 2
Fore
SplineSet
226 408 m 1
 226 838 l 1
 387 838 l 1
 387 367 l 1
 613 367 l 1
 613 289 l 1
 524 289 435 289 346 289 c 1
 346 131 346 -26 346 -184 c 1
 267 -184 l 1
 267 248 l 1
 0 248 l 1
 0 408 l 1
 226 408 l 1
EndSplineSet
EndChar

StartChar: uni2544
Encoding: 9540 9540 735
Width: 613
VWidth: 1046
Flags: MW
LayerCount: 2
Fore
SplineSet
226 367 m 1
 226 838 l 1
 387 838 l 1
 387 408 l 1
 613 408 l 1
 613 248 l 1
 346 248 l 1
 346 -184 l 1
 267 -184 l 1
 267 -26 267 131 267 289 c 1
 178 289 89 289 0 289 c 1
 0 367 l 1
 226 367 l 1
EndSplineSet
EndChar

StartChar: uni2545
Encoding: 9541 9541 736
Width: 613
VWidth: 1046
Flags: MW
LayerCount: 2
Fore
SplineSet
346 838 m 1
 346 681 346 524 346 367 c 1
 435 367 524 367 613 367 c 1
 613 289 l 1
 387 289 l 1
 387 -184 l 1
 226 -184 l 1
 226 248 l 1
 0 248 l 1
 0 408 l 1
 267 408 l 1
 267 838 l 1
 346 838 l 1
EndSplineSet
EndChar

StartChar: uni2546
Encoding: 9542 9542 737
Width: 613
VWidth: 1046
Flags: MW
LayerCount: 2
Fore
SplineSet
346 408 m 1
 613 408 l 1
 613 248 l 1
 387 248 l 1
 387 -184 l 1
 226 -184 l 1
 226 289 l 1
 0 289 l 1
 0 367 l 1
 89 367 178 367 267 367 c 1
 267 524 267 681 267 838 c 1
 346 838 l 1
 346 408 l 1
EndSplineSet
EndChar

StartChar: uni2547
Encoding: 9543 9543 738
Width: 613
VWidth: 1046
Flags: MW
LayerCount: 2
Fore
SplineSet
226 408 m 1
 226 838 l 1
 387 838 l 1
 387 408 l 1
 613 408 l 1
 613 248 l 1
 346 248 l 1
 346 -184 l 1
 267 -184 l 1
 267 248 l 1
 0 248 l 1
 0 408 l 1
 226 408 l 1
EndSplineSet
EndChar

StartChar: uni2548
Encoding: 9544 9544 739
Width: 613
VWidth: 1046
Flags: MW
LayerCount: 2
Fore
SplineSet
346 408 m 1
 613 408 l 1
 613 248 l 1
 387 248 l 1
 387 -184 l 1
 226 -184 l 1
 226 248 l 1
 0 248 l 1
 0 408 l 1
 267 408 l 1
 267 838 l 1
 346 838 l 1
 346 408 l 1
EndSplineSet
EndChar

StartChar: uni2549
Encoding: 9545 9545 740
Width: 613
VWidth: 1046
Flags: MW
LayerCount: 2
Fore
SplineSet
226 408 m 1
 226 838 l 1
 387 838 l 1
 387 367 l 1
 613 367 l 1
 613 289 l 1
 387 289 l 1
 387 -184 l 1
 226 -184 l 1
 226 248 l 1
 0 248 l 1
 0 408 l 1
 226 408 l 1
EndSplineSet
EndChar

StartChar: uni254A
Encoding: 9546 9546 741
Width: 613
VWidth: 1046
Flags: MW
LayerCount: 2
Fore
SplineSet
387 408 m 1
 613 408 l 1
 613 248 l 1
 387 248 l 1
 387 -184 l 1
 226 -184 l 1
 226 289 l 1
 0 289 l 1
 0 367 l 1
 226 367 l 1
 226 838 l 1
 387 838 l 1
 387 408 l 1
EndSplineSet
EndChar

StartChar: uni254B
Encoding: 9547 9547 742
Width: 613
VWidth: 1046
Flags: MW
LayerCount: 2
Fore
SplineSet
226 408 m 1
 226 838 l 1
 387 838 l 1
 387 408 l 1
 613 408 l 1
 613 248 l 1
 387 248 l 1
 387 -184 l 1
 226 -184 l 1
 226 248 l 1
 0 248 l 1
 0 408 l 1
 226 408 l 1
EndSplineSet
EndChar

StartChar: uni254C
Encoding: 9548 9548 743
Width: 613
VWidth: 1046
Flags: MW
LayerCount: 2
Fore
SplineSet
562 289 m 1
 358 289 l 1
 358 367 l 1
 562 367 l 1
 562 289 l 1
255 289 m 1
 51 289 l 1
 51 367 l 1
 255 367 l 1
 255 289 l 1
EndSplineSet
EndChar

StartChar: uni254D
Encoding: 9549 9549 744
Width: 613
VWidth: 1046
Flags: MW
LayerCount: 2
Fore
SplineSet
562 248 m 1
 358 248 l 1
 358 408 l 1
 562 408 l 1
 562 248 l 1
255 248 m 1
 51 248 l 1
 51 408 l 1
 255 408 l 1
 255 248 l 1
EndSplineSet
EndChar

StartChar: uni254E
Encoding: 9550 9550 745
Width: 613
VWidth: 1046
Flags: MW
LayerCount: 2
Fore
SplineSet
346 276 m 0
 346 -133 l 0
 267 -133 l 0
 267 276 l 0
 346 276 l 0
346 787 m 0
 346 378 l 0
 267 378 l 0
 267 787 l 0
 346 787 l 0
EndSplineSet
EndChar

StartChar: uni254F
Encoding: 9551 9551 746
Width: 613
VWidth: 1046
Flags: MW
LayerCount: 2
Fore
SplineSet
387 276 m 1
 387 -133 l 1
 226 -133 l 1
 226 276 l 1
 387 276 l 1
387 787 m 1
 387 378 l 1
 226 378 l 1
 226 787 l 1
 387 787 l 1
EndSplineSet
EndChar

StartChar: uni2504
Encoding: 9476 9476 747
Width: 613
VWidth: 1046
Flags: MW
LayerCount: 2
Fore
SplineSet
450 367 m 0
 572 367 l 0
 572 289 l 0
 450 289 l 0
 450 367 l 0
245 367 m 0
 368 367 l 0
 368 289 l 0
 245 289 l 0
 245 367 l 0
41 367 m 0
 163 367 l 0
 163 289 l 0
 41 289 l 0
 41 367 l 0
EndSplineSet
EndChar

StartChar: uni2505
Encoding: 9477 9477 748
Width: 613
VWidth: 1046
Flags: MW
LayerCount: 2
Fore
SplineSet
450 408 m 1
 572 408 l 1
 572 248 l 1
 450 248 l 1
 450 408 l 1
245 408 m 1
 368 408 l 1
 368 248 l 1
 245 248 l 1
 245 408 l 1
41 408 m 1
 163 408 l 1
 163 248 l 1
 41 248 l 1
 41 408 l 1
EndSplineSet
EndChar

StartChar: uni2506
Encoding: 9478 9478 749
Width: 613
VWidth: 1046
Flags: MW
LayerCount: 2
Fore
SplineSet
346 106 m 0
 346 -133 l 0
 267 -133 l 0
 267 106 l 0
 346 106 l 0
346 446 m 0
 346 208 l 0
 267 208 l 0
 267 446 l 0
 346 446 l 0
346 787 m 0
 346 548 l 0
 267 548 l 0
 267 787 l 0
 346 787 l 0
EndSplineSet
EndChar

StartChar: uni2507
Encoding: 9479 9479 750
Width: 613
VWidth: 1046
Flags: MW
LayerCount: 2
Fore
SplineSet
387 106 m 1
 387 -133 l 1
 226 -133 l 1
 226 106 l 1
 387 106 l 1
387 446 m 1
 387 208 l 1
 226 208 l 1
 226 446 l 1
 387 446 l 1
387 787 m 1
 387 548 l 1
 226 548 l 1
 226 787 l 1
 387 787 l 1
EndSplineSet
EndChar

StartChar: uni2508
Encoding: 9480 9480 751
Width: 613
VWidth: 1046
Flags: MW
LayerCount: 2
Fore
SplineSet
582 289 m 1
 490 289 l 1
 490 367 l 1
 582 367 l 1
 582 289 l 1
429 289 m 1
 337 289 l 1
 337 367 l 1
 429 367 l 1
 429 289 l 1
276 289 m 1
 184 289 l 1
 184 367 l 1
 276 367 l 1
 276 289 l 1
123 289 m 1
 31 289 l 1
 31 367 l 1
 123 367 l 1
 123 289 l 1
EndSplineSet
EndChar

StartChar: uni2509
Encoding: 9481 9481 752
Width: 613
VWidth: 1046
Flags: MW
LayerCount: 2
Fore
SplineSet
582 248 m 1
 490 248 l 1
 490 408 l 1
 582 408 l 1
 582 248 l 1
429 248 m 1
 337 248 l 1
 337 408 l 1
 429 408 l 1
 429 248 l 1
276 248 m 1
 184 248 l 1
 184 408 l 1
 276 408 l 1
 276 248 l 1
123 248 m 1
 31 248 l 1
 31 408 l 1
 123 408 l 1
 123 248 l 1
EndSplineSet
EndChar

StartChar: uni250A
Encoding: 9482 9482 753
Width: 613
VWidth: 1046
Flags: MW
LayerCount: 2
Fore
SplineSet
346 20 m 0
 346 -133 l 0
 267 -133 l 0
 267 20 l 0
 346 20 l 0
346 276 m 0
 346 123 l 0
 267 123 l 0
 267 276 l 0
 346 276 l 0
346 531 m 0
 346 378 l 0
 267 378 l 0
 267 531 l 0
 346 531 l 0
346 787 m 0
 346 633 l 0
 267 633 l 0
 267 787 l 0
 346 787 l 0
EndSplineSet
EndChar

StartChar: uni250B
Encoding: 9483 9483 754
Width: 613
VWidth: 1046
Flags: MW
LayerCount: 2
Fore
SplineSet
387 20 m 1
 387 -133 l 1
 226 -133 l 1
 226 20 l 1
 387 20 l 1
387 276 m 1
 387 123 l 1
 226 123 l 1
 226 276 l 1
 387 276 l 1
387 531 m 1
 387 378 l 1
 226 378 l 1
 226 531 l 1
 387 531 l 1
387 787 m 1
 387 633 l 1
 226 633 l 1
 226 787 l 1
 387 787 l 1
EndSplineSet
EndChar

StartChar: uni257C
Encoding: 9596 9596 755
Width: 613
VWidth: 1046
Flags: MW
LayerCount: 2
Fore
SplineSet
267 367 m 1
 267 408 l 1
 613 408 l 1
 613 248 l 1
 267 248 l 1
 267 289 l 1
 0 289 l 1
 0 367 l 1
 267 367 l 1
EndSplineSet
EndChar

StartChar: uni257D
Encoding: 9597 9597 756
Width: 613
VWidth: 1046
Flags: MW
LayerCount: 2
Fore
SplineSet
387 367 m 1
 387 -184 l 1
 226 -184 l 1
 226 367 l 1
 267 367 l 1
 267 838 l 1
 346 838 l 1
 346 367 l 1
 387 367 l 1
EndSplineSet
EndChar

StartChar: uni257E
Encoding: 9598 9598 757
Width: 613
VWidth: 1046
Flags: MW
LayerCount: 2
Fore
SplineSet
346 248 m 1
 0 248 l 1
 0 408 l 1
 346 408 l 1
 346 367 l 1
 613 367 l 1
 613 289 l 1
 346 289 l 1
 346 248 l 1
EndSplineSet
EndChar

StartChar: uni257F
Encoding: 9599 9599 758
Width: 613
VWidth: 1046
Flags: MW
LayerCount: 2
Fore
SplineSet
267 289 m 1
 226 289 l 1
 226 838 l 1
 387 838 l 1
 387 289 l 1
 346 289 l 1
 346 -184 l 1
 267 -184 l 1
 267 289 l 1
EndSplineSet
EndChar

StartChar: uni256D
Encoding: 9581 9581 759
Width: 613
VWidth: 1046
Flags: MW
LayerCount: 2
Fore
SplineSet
267 -82 m 0
 267 165 376 367 511 367 c 0
 613 367 l 1
 613 289 l 1
 511 289 l 0
 419 289 346 122 346 -82 c 0
 346 -184 l 1
 267 -184 l 1
 267 -82 l 0
EndSplineSet
EndChar

StartChar: uni256E
Encoding: 9582 9582 760
Width: 613
VWidth: 1046
Flags: MW
LayerCount: 2
Fore
SplineSet
0 289 m 1
 0 367 l 1
 102 367 l 0
 237 367 346 165 346 -82 c 0
 346 -184 l 1
 267 -184 l 1
 267 -82 l 0
 267 122 194 289 102 289 c 0
 0 289 l 1
EndSplineSet
EndChar

StartChar: uni256F
Encoding: 9583 9583 761
Width: 613
VWidth: 1046
Flags: MW
LayerCount: 2
Fore
SplineSet
0 287 m 1
 0 365 l 1
 102 365 l 0
 194 365 267 532 267 736 c 0
 267 838 l 1
 346 838 l 1
 346 736 l 0
 346 489 237 287 102 287 c 0
 0 287 l 1
EndSplineSet
EndChar

StartChar: uni2570
Encoding: 9584 9584 762
Width: 613
VWidth: 1046
Flags: MW
LayerCount: 2
Fore
SplineSet
267 736 m 0
 267 838 l 1
 346 838 l 1
 346 736 l 0
 346 532 419 365 511 365 c 0
 613 365 l 1
 613 287 l 1
 511 287 l 0
 376 287 267 489 267 736 c 0
EndSplineSet
EndChar

StartChar: uni2571
Encoding: 9585 9585 763
Width: 613
VWidth: 1046
Flags: MW
LayerCount: 2
Fore
SplineSet
657 838 m 0
 44 -184 l 0
 -44 -184 l 0
 569 838 l 0
 657 838 l 0
EndSplineSet
EndChar

StartChar: uni2572
Encoding: 9586 9586 764
Width: 613
VWidth: 1046
Flags: MW
LayerCount: 2
Fore
SplineSet
-44 838 m 0
 44 838 l 0
 657 -184 l 0
 569 -184 l 0
 -44 838 l 0
EndSplineSet
EndChar

StartChar: uni2573
Encoding: 9587 9587 765
Width: 613
VWidth: 1046
Flags: MW
LayerCount: 2
Fore
SplineSet
-44 838 m 1
 44 838 l 1
 306 401 l 1
 569 838 l 1
 657 838 l 1
 351 327 l 1
 657 -184 l 1
 569 -184 l 1
 306 253 l 1
 44 -184 l 1
 -44 -184 l 1
 262 327 l 1
 -44 838 l 1
EndSplineSet
EndChar

StartChar: uni2581
Encoding: 9601 9601 766
Width: 613
VWidth: 1046
Flags: MW
LayerCount: 2
Fore
SplineSet
0 -56 m 29
 613 -56 l 29
 613 -184 l 25
 0 -184 l 25
 0 -56 l 29
EndSplineSet
EndChar

StartChar: uni2582
Encoding: 9602 9602 767
Width: 613
VWidth: 1046
Flags: MW
LayerCount: 2
Fore
SplineSet
0 72 m 29
 613 72 l 29
 613 -184 l 25
 0 -184 l 25
 0 72 l 29
EndSplineSet
EndChar

StartChar: uni2583
Encoding: 9603 9603 768
Width: 613
VWidth: 1046
Flags: MW
LayerCount: 2
Fore
SplineSet
0 199 m 25
 613 199 l 25
 613 -184 l 25
 0 -184 l 25
 0 199 l 25
EndSplineSet
EndChar

StartChar: uni2585
Encoding: 9605 9605 769
Width: 613
VWidth: 1046
Flags: MW
LayerCount: 2
Fore
SplineSet
0 455 m 29
 613 455 l 29
 613 -184 l 25
 0 -184 l 25
 0 455 l 29
EndSplineSet
EndChar

StartChar: uni2586
Encoding: 9606 9606 770
Width: 613
VWidth: 1046
Flags: MW
LayerCount: 2
Fore
SplineSet
0 582 m 29
 613 582 l 29
 613 -184 l 25
 0 -184 l 25
 0 582 l 29
EndSplineSet
EndChar

StartChar: uni2587
Encoding: 9607 9607 771
Width: 613
VWidth: 1046
Flags: MW
LayerCount: 2
Fore
SplineSet
0 710 m 29
 613 710 l 29
 613 -184 l 25
 0 -184 l 25
 0 710 l 29
EndSplineSet
EndChar

StartChar: uni2589
Encoding: 9609 9609 772
Width: 613
VWidth: 1046
Flags: MW
LayerCount: 2
Fore
SplineSet
0 838 m 25
 536 838 l 29
 536 -184 l 29
 0 -184 l 25
 0 838 l 25
EndSplineSet
EndChar

StartChar: uni258A
Encoding: 9610 9610 773
Width: 613
VWidth: 1046
Flags: MW
LayerCount: 2
Fore
SplineSet
0 838 m 25
 460 838 l 29
 460 -184 l 29
 0 -184 l 25
 0 838 l 25
EndSplineSet
EndChar

StartChar: uni258B
Encoding: 9611 9611 774
Width: 613
VWidth: 1046
Flags: MW
LayerCount: 2
Fore
SplineSet
0 838 m 25
 383 838 l 29
 383 -184 l 29
 0 -184 l 25
 0 838 l 25
EndSplineSet
EndChar

StartChar: uni258D
Encoding: 9613 9613 775
Width: 613
VWidth: 1046
Flags: MW
LayerCount: 2
Fore
SplineSet
0 838 m 25
 230 838 l 29
 230 -184 l 29
 0 -184 l 25
 0 838 l 25
EndSplineSet
EndChar

StartChar: uni258E
Encoding: 9614 9614 776
Width: 613
VWidth: 1046
Flags: MW
LayerCount: 2
Fore
SplineSet
0 838 m 25
 153 838 l 29
 153 -184 l 29
 0 -184 l 25
 0 838 l 25
EndSplineSet
EndChar

StartChar: uni258F
Encoding: 9615 9615 777
Width: 613
VWidth: 1046
Flags: MW
LayerCount: 2
Fore
SplineSet
0 838 m 25
 77 838 l 25
 77 -184 l 25
 0 -184 l 25
 0 838 l 25
EndSplineSet
EndChar

StartChar: upblock
Encoding: 9600 9600 778
Width: 613
VWidth: 1046
Flags: MW
LayerCount: 2
Fore
SplineSet
0 838 m 29
 613 838 l 29
 613 327 l 29
 0 327 l 29
 0 838 l 29
EndSplineSet
EndChar

StartChar: rtblock
Encoding: 9616 9616 779
Width: 613
VWidth: 1046
Flags: MW
LayerCount: 2
Fore
SplineSet
306 838 m 25
 613 838 l 25
 613 -184 l 25
 306 -184 l 25
 306 838 l 25
EndSplineSet
EndChar

StartChar: ltshade
Encoding: 9617 9617 780
Width: 613
VWidth: 1046
Flags: MW
LayerCount: 2
Fore
SplineSet
613 -82 m 1
 613 -133 l 1
 552 -133 l 1
 552 -82 l 1
 613 -82 l 1
613 123 m 1
 613 72 l 1
 552 72 l 1
 552 123 l 1
 613 123 l 1
613 327 m 1
 613 276 l 1
 552 276 l 1
 552 327 l 1
 613 327 l 1
613 531 m 1
 613 480 l 1
 552 480 l 1
 552 531 l 1
 613 531 l 1
613 736 m 1
 613 685 l 1
 552 685 l 1
 552 736 l 1
 613 736 l 1
61 20 m 1
 61 -31 l 1
 0 -31 l 1
 0 20 l 1
 61 20 l 1
61 225 m 1
 61 174 l 1
 0 174 l 1
 0 225 l 1
 61 225 l 1
61 429 m 1
 61 378 l 1
 0 378 l 1
 0 429 l 1
 61 429 l 1
61 633 m 1
 61 582 l 1
 0 582 l 1
 0 633 l 1
 61 633 l 1
0 838 m 1
 61 838 l 1
 61 787 l 1
 0 787 l 1
 0 838 l 1
552 838 m 1
 552 787 l 1
 490 787 l 1
 490 838 l 1
 552 838 l 1
429 838 m 1
 429 787 l 1
 368 787 l 1
 368 838 l 1
 429 838 l 1
306 838 m 1
 306 787 l 1
 245 787 l 1
 245 838 l 1
 306 838 l 1
184 838 m 1
 184 787 l 1
 123 787 l 1
 123 838 l 1
 184 838 l 1
490 736 m 1
 490 685 l 1
 429 685 l 1
 429 736 l 1
 490 736 l 1
368 736 m 1
 368 685 l 1
 306 685 l 1
 306 736 l 1
 368 736 l 1
245 736 m 1
 245 685 l 1
 184 685 l 1
 184 736 l 1
 245 736 l 1
123 736 m 1
 123 685 l 1
 61 685 l 1
 61 736 l 1
 123 736 l 1
552 633 m 1
 552 582 l 1
 490 582 l 1
 490 633 l 1
 552 633 l 1
429 633 m 1
 429 582 l 1
 368 582 l 1
 368 633 l 1
 429 633 l 1
306 633 m 1
 306 582 l 1
 245 582 l 1
 245 633 l 1
 306 633 l 1
184 633 m 1
 184 582 l 1
 123 582 l 1
 123 633 l 1
 184 633 l 1
490 531 m 1
 490 480 l 1
 429 480 l 1
 429 531 l 1
 490 531 l 1
368 531 m 1
 368 480 l 1
 306 480 l 1
 306 531 l 1
 368 531 l 1
245 531 m 1
 245 480 l 1
 184 480 l 1
 184 531 l 1
 245 531 l 1
123 531 m 1
 123 480 l 1
 61 480 l 1
 61 531 l 1
 123 531 l 1
552 429 m 1
 552 378 l 1
 490 378 l 1
 490 429 l 1
 552 429 l 1
429 429 m 1
 429 378 l 1
 368 378 l 1
 368 429 l 1
 429 429 l 1
306 429 m 1
 306 378 l 1
 245 378 l 1
 245 429 l 1
 306 429 l 1
184 429 m 1
 184 378 l 1
 123 378 l 1
 123 429 l 1
 184 429 l 1
490 327 m 1
 490 276 l 1
 429 276 l 1
 429 327 l 1
 490 327 l 1
368 327 m 1
 368 276 l 1
 306 276 l 1
 306 327 l 1
 368 327 l 1
245 327 m 1
 245 276 l 1
 184 276 l 1
 184 327 l 1
 245 327 l 1
123 327 m 1
 123 276 l 1
 61 276 l 1
 61 327 l 1
 123 327 l 1
552 225 m 1
 552 174 l 1
 490 174 l 1
 490 225 l 1
 552 225 l 1
429 225 m 1
 429 174 l 1
 368 174 l 1
 368 225 l 1
 429 225 l 1
306 225 m 1
 306 174 l 1
 245 174 l 1
 245 225 l 1
 306 225 l 1
184 225 m 1
 184 174 l 1
 123 174 l 1
 123 225 l 1
 184 225 l 1
490 123 m 1
 490 72 l 1
 429 72 l 1
 429 123 l 1
 490 123 l 1
368 123 m 1
 368 72 l 1
 306 72 l 1
 306 123 l 1
 368 123 l 1
245 123 m 1
 245 72 l 1
 184 72 l 1
 184 123 l 1
 245 123 l 1
123 123 m 1
 123 72 l 1
 61 72 l 1
 61 123 l 1
 123 123 l 1
552 20 m 1
 552 -31 l 1
 490 -31 l 1
 490 20 l 1
 552 20 l 1
429 20 m 1
 429 -31 l 1
 368 -31 l 1
 368 20 l 1
 429 20 l 1
306 20 m 1
 306 -31 l 1
 245 -31 l 1
 245 20 l 1
 306 20 l 1
184 20 m 1
 184 -31 l 1
 123 -31 l 1
 123 20 l 1
 184 20 l 1
490 -82 m 1
 490 -133 l 1
 429 -133 l 1
 429 -82 l 1
 490 -82 l 1
368 -82 m 1
 368 -133 l 1
 306 -133 l 1
 306 -82 l 1
 368 -82 l 1
245 -82 m 1
 245 -133 l 1
 184 -133 l 1
 184 -82 l 1
 245 -82 l 1
123 -82 m 1
 123 -133 l 1
 61 -133 l 1
 61 -82 l 1
 123 -82 l 1
EndSplineSet
EndChar

StartChar: uni2594
Encoding: 9620 9620 781
Width: 613
VWidth: 1046
Flags: MW
LayerCount: 2
Fore
SplineSet
0 838 m 25
 613 838 l 25
 613 710 l 25
 0 710 l 25
 0 838 l 25
EndSplineSet
EndChar

StartChar: uni2595
Encoding: 9621 9621 782
Width: 613
VWidth: 1046
Flags: MW
LayerCount: 2
Fore
SplineSet
536 838 m 25
 613 838 l 25
 613 -184 l 25
 536 -184 l 25
 536 838 l 25
EndSplineSet
EndChar

StartChar: uni2596
Encoding: 9622 9622 783
Width: 613
VWidth: 1046
Flags: MW
LayerCount: 2
Fore
SplineSet
0 327 m 25
 306 327 l 25
 306 -184 l 25
 0 -184 l 25
 0 327 l 25
EndSplineSet
EndChar

StartChar: uni2597
Encoding: 9623 9623 784
Width: 613
VWidth: 1046
Flags: MW
LayerCount: 2
Fore
SplineSet
306 327 m 25
 613 327 l 25
 613 -184 l 25
 306 -184 l 25
 306 327 l 25
EndSplineSet
EndChar

StartChar: uni2598
Encoding: 9624 9624 785
Width: 613
VWidth: 1046
Flags: MW
LayerCount: 2
Fore
SplineSet
0 838 m 25
 306 838 l 25
 306 327 l 25
 0 327 l 25
 0 838 l 25
EndSplineSet
EndChar

StartChar: uni259D
Encoding: 9629 9629 786
Width: 613
VWidth: 1046
Flags: MW
LayerCount: 2
Fore
SplineSet
306 838 m 25
 613 838 l 25
 613 327 l 25
 306 327 l 25
 306 838 l 25
EndSplineSet
EndChar

